{"glyphs":{"0":{"ha":507,"x_min":24,"x_max":358,"o":"m 189 688 q 139 600 161 663 q 107 383 107 504 q 132 172 104 263 q 192 86 158 93 l 193 86 l 201 94 q 233 151 219 111 q 276 369 268 247 q 261 594 285 501 q 200 683 239 679 q 189 688 192 686 m 235 761 q 297 713 272 749 q 342 615 324 679 q 358 364 369 510 q 311 122 350 221 q 264 38 290 68 q 176 4 225 -4 q 97 56 132 13 q 53 146 74 88 q 24 385 21 246 q 61 626 26 526 q 186 781 103 754 q 235 761 218 790 z "},"1":{"ha":393,"x_min":69,"x_max":249,"o":"m 82 692 q 126 736 99 703 q 130 740 128 738 q 133 744 132 743 l 136 749 q 140 753 139 753 q 143 757 142 756 q 149 764 146 758 q 150 765 150 764 l 158 774 l 161 775 q 165 779 164 778 l 176 785 q 190 786 181 786 q 215 778 203 786 q 236 749 229 768 q 240 722 240 724 q 240 672 242 701 q 238 658 239 668 q 238 643 238 649 q 235 621 235 635 q 233 608 233 615 q 239 317 229 494 q 240 286 239 301 q 249 36 249 99 q 236 6 249 18 q 207 -6 224 -6 q 177 6 189 -6 q 165 36 165 18 q 157 282 165 97 q 156 313 156 297 q 150 611 146 493 q 151 620 150 614 q 151 631 151 626 l 153 636 q 153 643 153 640 q 132 625 146 636 q 101 617 118 614 q 74 633 83 619 q 69 656 68 643 q 76 681 71 669 l 82 692 z "},"2":{"ha":518,"x_min":40,"x_max":372,"o":"m 53 646 q 115 742 58 703 q 235 779 172 779 q 338 743 301 779 q 372 643 374 707 q 307 418 372 560 q 256 315 285 368 q 237 281 247 299 q 213 240 226 264 q 190 199 200 215 q 150 128 153 135 q 142 110 143 114 q 131 82 133 90 q 189 83 144 81 q 219 86 192 83 q 290 90 282 90 q 319 78 307 90 q 332 49 332 65 q 319 19 332 31 q 290 7 307 7 q 226 3 285 7 q 194 0 199 0 q 71 8 113 -6 q 46 29 54 14 q 40 47 40 40 q 40 71 39 58 q 51 108 47 97 q 75 164 63 143 q 118 240 83 181 q 182 356 146 289 q 231 453 210 407 q 289 643 289 578 q 279 683 289 671 q 235 696 267 696 q 163 672 197 696 q 136 639 139 657 q 121 610 133 621 q 90 601 108 600 q 63 616 74 603 q 53 646 51 629 z "},"3":{"ha":492,"x_min":33,"x_max":339,"o":"m 33 618 q 147 756 71 732 q 219 753 183 767 q 278 707 254 740 q 310 554 325 642 q 207 382 293 460 q 254 335 232 360 q 331 221 310 274 q 339 110 357 160 q 242 21 318 50 q 78 42 138 -22 q 33 176 33 88 q 45 206 33 194 q 75 218 57 218 q 104 206 92 218 q 117 176 117 194 q 138 99 117 122 q 160 88 149 89 q 210 97 179 85 q 261 139 253 115 q 254 189 268 160 q 192 278 239 226 q 142 329 171 301 q 110 358 136 332 q 98 393 96 374 q 115 424 100 413 q 138 438 122 431 l 140 438 l 142 439 q 149 442 147 442 q 226 568 215 500 q 211 658 236 621 q 172 676 193 683 q 146 656 158 672 q 113 592 128 636 q 92 567 107 575 q 60 565 76 560 q 36 586 44 571 q 33 618 28 601 z "},"4":{"ha":471,"x_min":26,"x_max":326,"o":"m 325 722 q 325 485 324 676 q 326 376 325 407 q 321 38 326 117 q 306 8 319 19 q 276 -1 293 -3 q 247 13 258 0 q 238 43 236 26 q 243 314 243 110 q 235 313 240 314 q 229 311 231 313 q 172 307 208 310 q 101 308 126 304 q 68 315 86 310 q 35 340 46 325 q 26 358 29 347 l 26 367 q 28 374 26 372 q 29 382 28 379 q 33 396 32 390 q 38 406 36 404 q 50 500 42 429 q 53 533 51 518 q 56 551 56 549 q 101 751 69 681 q 125 774 108 767 q 157 774 142 781 q 178 750 172 767 q 178 718 185 733 q 138 542 151 661 q 132 490 133 504 q 119 392 124 414 l 119 390 l 168 390 q 221 394 201 393 q 231 397 224 396 q 242 397 239 397 l 242 485 q 242 724 240 676 q 254 753 242 742 q 285 764 267 765 q 313 751 301 764 q 325 722 325 739 z "},"5":{"ha":440,"x_min":29,"x_max":294,"o":"m 90 793 q 175 790 133 793 q 238 788 207 788 q 267 775 256 788 q 279 746 279 763 q 267 716 279 728 q 238 704 256 704 q 169 707 203 704 q 111 710 114 710 q 113 631 108 674 l 115 589 q 121 519 121 528 q 163 524 142 525 q 243 479 211 519 q 294 300 290 419 q 264 106 299 189 q 215 33 243 56 q 126 14 175 1 q 33 117 54 32 q 35 238 21 174 q 54 263 39 254 q 86 267 69 271 q 112 248 103 263 q 117 217 121 233 q 115 136 104 172 q 147 94 124 101 q 163 99 154 93 q 188 138 175 110 q 211 296 215 206 q 178 428 208 385 q 156 442 165 440 q 113 424 138 442 q 81 417 99 414 q 54 433 64 419 q 47 464 44 449 q 39 490 39 475 q 33 581 39 519 q 29 625 29 614 q 32 749 22 699 q 64 782 36 776 q 90 793 72 790 z "},"6":{"ha":486,"x_min":32,"x_max":331,"o":"m 150 128 q 200 83 169 90 q 250 107 238 76 q 250 208 267 146 q 211 272 235 264 q 201 271 207 275 q 165 226 182 260 q 153 189 158 215 q 150 139 150 164 l 150 128 m 210 686 q 149 569 176 663 q 115 360 119 471 q 115 301 114 328 q 158 342 131 325 q 242 350 201 367 q 331 232 303 325 q 328 76 356 144 q 272 12 310 32 q 185 1 235 -8 q 101 51 135 11 q 56 138 72 85 q 32 363 25 232 q 69 594 36 483 q 161 754 106 714 q 192 762 175 765 q 219 744 210 758 q 227 713 231 731 q 210 686 224 696 z "},"7":{"ha":538,"x_min":61,"x_max":392,"o":"m 88 769 q 225 782 133 785 q 357 769 297 781 q 363 768 358 769 q 368 765 367 767 l 369 765 q 392 739 385 758 q 392 708 394 731 q 388 695 390 704 q 385 682 386 686 q 376 652 383 678 q 363 608 368 626 q 288 396 340 539 q 143 19 172 83 q 121 -3 138 3 q 89 -3 104 -10 q 66 19 72 3 q 67 51 60 36 q 210 424 99 128 q 283 635 278 618 q 292 665 286 646 q 301 693 299 685 q 222 699 278 696 q 113 690 142 701 q 81 693 96 685 q 61 718 67 701 q 63 749 56 733 q 88 769 71 764 z "},"8":{"ha":538,"x_min":44,"x_max":390,"o":"m 201 265 q 156 171 163 214 q 172 103 150 128 q 215 88 192 83 q 253 126 240 92 q 236 208 261 157 q 201 265 225 232 m 269 314 q 271 313 269 313 q 310 246 293 279 q 331 100 353 163 q 231 6 304 19 q 111 46 163 -8 q 74 183 61 100 q 151 336 83 256 q 117 386 129 367 q 44 546 54 478 q 114 714 32 644 q 299 782 219 803 q 364 733 339 771 q 390 657 383 704 q 363 469 401 571 q 269 314 328 383 m 219 385 q 285 500 260 438 q 307 646 315 583 q 276 701 301 694 q 240 696 263 706 q 167 650 208 683 q 126 562 122 610 q 186 432 131 514 q 219 385 214 393 z "},"9":{"ha":589,"x_min":81,"x_max":442,"o":"m 346 667 q 250 669 296 678 q 178 615 193 661 q 163 465 151 539 q 204 375 174 404 q 251 363 225 354 q 325 449 290 376 q 326 453 325 450 q 328 460 326 457 q 331 482 331 471 l 336 549 q 337 567 336 560 q 338 576 338 575 q 343 643 340 622 q 346 657 343 649 l 346 667 m 429 724 q 429 657 426 715 q 431 627 431 647 q 432 596 432 607 q 435 561 433 592 q 436 524 436 531 q 442 406 439 483 q 442 193 446 275 q 433 111 439 144 q 407 49 425 67 q 325 6 379 17 q 249 0 296 0 q 158 17 190 0 q 90 85 121 35 q 85 116 81 100 q 104 142 89 132 q 135 147 119 151 q 161 128 151 143 q 194 92 182 97 q 249 83 208 83 q 310 88 285 83 q 346 104 336 94 q 347 107 346 106 q 351 126 350 118 q 358 197 356 146 q 360 347 363 250 q 281 285 325 301 q 146 315 206 257 q 81 453 93 365 q 99 642 65 544 q 236 753 129 733 q 351 750 290 761 q 393 771 365 775 q 422 756 411 769 q 429 724 432 742 z "}," ":{"ha":478,"x_min":0,"x_max":0,"o":""},"!":{"ha":282,"x_min":33,"x_max":136,"o":"m 136 669 q 117 163 117 399 q 105 133 117 146 q 75 121 93 121 q 46 133 58 121 q 33 163 33 146 q 53 676 33 403 q 67 705 54 693 q 97 715 81 717 q 126 700 115 713 q 136 669 138 688 m 111 47 q 121 24 117 35 q 121 -8 128 7 q 99 -31 114 -24 q 67 -31 83 -37 q 44 -8 51 -24 q 35 15 39 4 q 35 47 28 31 q 57 69 42 63 q 88 69 72 76 q 111 47 104 63 z "},"\"":{"ha":381,"x_min":35,"x_max":236,"o":"m 118 654 q 119 618 119 643 l 119 579 l 119 572 q 108 542 119 554 q 78 531 96 531 q 48 542 60 531 q 36 572 36 554 l 36 579 l 36 618 q 35 651 36 640 q 46 681 35 668 q 75 694 57 693 q 104 684 92 696 q 118 654 117 672 m 231 694 q 232 639 231 665 l 233 638 q 236 575 236 576 q 224 545 236 557 q 194 533 211 533 q 165 545 176 533 q 153 575 153 557 q 152 589 153 582 q 151 608 151 596 q 150 632 150 621 l 150 633 q 147 694 147 663 q 159 724 147 711 q 189 736 171 736 q 218 724 206 736 q 231 694 231 711 z "},"#":{"ha":647,"x_min":10,"x_max":503,"o":"m 300 354 q 224 356 250 354 l 211 356 q 197 238 206 307 q 219 240 204 239 q 242 240 233 240 l 261 240 q 279 242 267 242 q 282 256 281 247 q 285 269 283 264 q 292 310 286 285 q 300 354 297 340 m 63 446 q 76 445 67 446 q 96 444 86 444 q 117 444 103 444 q 136 442 131 443 q 149 585 144 519 q 163 614 150 603 q 193 624 175 625 q 222 610 210 622 q 232 579 233 597 q 226 517 231 568 q 219 439 222 467 l 225 439 q 315 438 257 438 q 333 563 319 461 q 349 591 336 581 q 379 600 361 601 q 406 584 396 597 q 415 554 417 571 q 400 440 408 492 q 428 444 410 442 q 456 446 447 446 q 488 438 474 449 q 503 410 501 428 q 494 380 504 393 q 467 364 483 367 q 385 357 415 358 q 374 294 383 343 q 367 256 369 269 q 366 250 367 253 q 365 244 365 247 q 436 246 390 246 q 465 234 453 246 q 478 204 478 222 q 465 175 478 188 q 436 163 453 163 q 350 161 382 163 q 341 101 346 139 q 333 50 336 64 q 319 23 332 33 q 288 14 306 13 q 260 30 271 17 q 251 60 250 43 q 265 157 258 117 l 264 157 l 246 157 q 188 154 201 154 q 185 135 188 149 q 182 114 183 121 q 178 82 182 99 q 174 50 176 69 q 158 23 171 33 q 128 14 144 13 q 99 29 110 15 q 92 60 89 43 q 96 93 94 75 q 100 125 96 108 q 103 151 100 135 q 51 150 86 150 q 22 163 35 150 q 10 192 10 175 q 22 222 10 210 q 51 233 35 233 q 113 235 92 233 q 128 358 119 286 q 110 360 122 360 q 92 361 99 361 q 72 362 82 361 q 58 363 63 363 q 29 376 40 364 q 19 406 18 389 q 32 435 19 424 q 63 446 44 447 z "},"$":{"ha":450,"x_min":14,"x_max":296,"o":"m 119 410 q 124 465 121 429 q 128 521 126 501 q 104 497 110 511 q 97 472 97 483 q 119 410 96 449 m 188 204 q 183 132 185 157 l 185 133 l 186 133 q 214 146 206 140 q 221 150 219 149 l 222 151 q 219 160 222 154 q 188 204 214 176 m 218 590 q 235 579 224 588 q 288 519 256 563 q 279 461 311 486 q 249 453 265 451 q 221 469 232 456 l 208 486 q 196 318 204 429 q 210 303 200 314 q 221 292 219 293 q 250 261 232 279 q 296 194 283 222 q 293 108 317 144 q 211 54 271 72 q 179 46 194 47 q 176 0 176 15 q 163 -30 175 -18 q 132 -40 150 -42 q 103 -26 115 -39 q 93 4 92 -14 q 96 53 93 19 q 33 88 58 64 q 19 115 19 97 q 29 146 18 132 q 56 160 39 160 q 88 150 74 161 l 100 142 q 105 215 101 167 q 110 288 108 263 q 51 360 74 328 q 14 476 13 424 q 29 535 17 508 q 73 585 43 565 q 136 608 103 606 q 138 632 136 617 q 140 656 139 647 q 155 685 142 674 q 185 693 168 696 q 214 678 203 692 q 224 649 225 665 q 218 590 221 629 z "},"%":{"ha":682,"x_min":13,"x_max":531,"o":"m 425 283 l 421 271 q 418 253 417 258 q 419 249 418 249 q 436 243 429 240 q 450 256 444 246 q 453 269 456 264 q 450 274 453 271 q 435 279 442 278 q 425 283 429 282 m 463 358 q 531 300 513 343 q 524 215 547 260 q 460 164 501 175 q 367 185 410 149 q 335 240 342 204 q 342 297 332 272 q 415 378 363 361 q 463 358 446 388 m 139 479 l 138 479 q 108 497 118 482 q 97 493 99 494 l 96 493 l 96 489 q 104 454 97 471 l 106 451 l 108 451 q 124 461 115 453 q 138 476 129 465 q 139 479 138 478 m 160 560 q 204 536 189 553 q 225 481 228 513 q 178 397 221 433 q 79 372 129 356 q 32 414 49 382 q 13 482 17 438 q 51 564 8 535 q 131 579 86 586 q 160 560 149 575 m 410 658 q 329 393 381 571 q 322 368 328 385 q 292 263 317 349 q 264 163 268 176 q 224 28 235 64 q 203 3 218 11 q 171 1 188 -4 q 147 23 154 7 q 144 56 139 39 q 183 185 154 83 q 213 285 188 199 q 243 392 238 371 q 250 415 244 397 q 331 685 301 594 q 352 709 336 701 q 385 711 368 717 q 408 690 400 706 q 410 658 415 675 z "},"&":{"ha":540,"x_min":35,"x_max":394,"o":"m 297 226 q 294 219 294 224 q 289 179 289 197 q 311 213 311 201 q 311 215 314 215 q 300 225 308 219 l 297 226 m 246 626 q 197 604 215 629 q 174 531 176 576 q 190 464 171 490 q 240 447 207 443 q 244 448 242 447 q 247 449 246 449 q 274 438 263 449 q 288 413 286 428 q 289 408 288 411 l 289 407 q 278 379 289 392 q 253 365 268 367 q 169 319 208 360 q 115 226 131 278 q 118 153 103 179 q 183 122 133 124 q 204 128 193 122 q 214 242 201 200 q 257 304 226 288 q 342 297 294 324 q 394 200 403 263 q 344 117 389 158 q 292 76 328 101 q 301 -6 293 54 l 315 -92 q 306 -122 317 -108 q 279 -139 296 -136 q 248 -131 263 -142 q 232 -103 233 -121 q 218 -17 224 -49 q 211 43 213 21 q 181 39 194 39 q 46 111 85 43 q 35 249 13 169 q 108 375 54 318 q 136 400 119 389 q 124 414 128 408 q 90 535 86 463 q 131 654 93 603 q 253 710 179 715 q 281 695 269 708 q 290 665 292 682 q 276 636 289 647 q 246 626 263 625 z "},"'":{"ha":251,"x_min":21,"x_max":106,"o":"m 106 646 q 104 567 103 603 l 104 549 q 92 519 104 532 q 63 507 79 507 q 33 519 44 507 q 21 549 21 532 l 21 565 q 22 653 19 604 q 38 681 25 669 q 68 690 51 692 q 96 676 85 689 q 106 646 107 663 z "},"(":{"ha":365,"x_min":17,"x_max":213,"o":"m 208 696 q 100 357 101 506 q 213 32 100 199 q 201 -26 235 -3 q 170 -32 188 -36 q 143 -14 153 -28 q 17 358 17 175 q 136 736 18 531 q 160 756 144 751 q 192 751 176 761 q 212 726 207 743 q 208 696 217 710 z "},")":{"ha":333,"x_min":8,"x_max":189,"o":"m 83 753 q 189 353 189 607 q 89 0 186 107 q 59 -12 76 -12 q 29 -1 42 -12 q 17 28 17 11 q 28 58 17 46 q 83 174 63 93 q 106 353 104 254 q 15 704 106 582 q 8 736 6 719 q 25 763 11 753 q 56 770 39 774 q 83 753 74 767 z "},"*":{"ha":489,"x_min":17,"x_max":343,"o":"m 232 543 q 267 489 242 510 q 281 460 281 478 q 271 429 282 443 q 243 415 260 417 q 213 425 226 414 q 154 511 174 458 q 86 439 119 464 q 56 431 72 428 q 29 449 39 435 q 22 479 19 463 q 38 507 24 496 q 92 567 65 525 q 24 635 60 588 q 17 667 14 650 q 33 693 19 683 q 65 701 47 704 q 92 683 82 697 q 131 640 113 657 q 135 653 132 644 q 140 665 139 661 q 151 711 146 699 q 160 725 154 721 q 206 746 175 756 q 231 727 222 742 q 236 696 240 713 q 221 646 228 663 q 220 636 221 642 q 219 626 219 631 q 278 658 244 635 q 309 665 292 668 q 336 647 326 661 q 343 617 346 633 q 326 590 340 600 q 232 543 274 553 z "},"+":{"ha":438,"x_min":11,"x_max":292,"o":"m 117 321 q 47 325 81 321 q 19 342 29 328 q 11 372 8 356 q 27 399 14 389 q 57 408 40 410 q 108 404 82 404 q 101 501 104 449 q 113 531 101 518 q 142 544 125 543 q 172 533 160 544 q 185 504 185 521 q 192 406 188 454 q 243 411 228 408 q 274 406 260 415 q 292 379 289 396 q 286 348 296 363 q 260 331 276 333 q 200 322 231 324 q 203 235 203 288 q 191 206 203 218 q 161 193 179 193 q 132 206 144 193 q 119 235 119 218 q 117 321 119 286 z "},",":{"ha":246,"x_min":-14,"x_max":101,"o":"m 99 50 l 99 40 q 101 -8 101 11 q 92 -62 101 -33 q 60 -112 83 -85 q 0 -115 31 -142 q -13 -87 -12 -104 q -3 -56 -14 -69 q 14 -32 10 -43 q 15 33 21 -17 l 15 44 q 25 75 14 63 q 54 89 36 88 q 84 79 71 90 q 99 50 97 68 z "},"-":{"ha":364,"x_min":7,"x_max":218,"o":"m 49 421 q 174 425 119 421 q 203 415 190 426 q 218 388 217 404 q 208 356 219 369 q 181 342 197 343 q 49 338 122 338 q 19 350 32 338 q 7 379 7 363 q 19 409 7 397 q 49 421 32 421 z "},".":{"ha":238,"x_min":8,"x_max":85,"o":"m 83 36 q 85 35 83 35 q 75 -24 107 0 q 44 -31 61 -35 q 17 -14 26 -28 l 15 -12 q 8 19 6 1 q 25 46 11 36 q 56 53 39 56 q 83 36 74 50 z "},"/":{"ha":476,"x_min":39,"x_max":329,"o":"m 329 701 q 200 285 271 540 q 191 253 197 275 q 181 217 185 231 q 163 150 163 157 q 136 57 151 111 q 119 -4 121 3 q 99 -29 114 -21 q 68 -33 85 -37 q 42 -13 51 -28 q 39 18 33 1 q 82 172 74 143 q 100 239 82 179 q 110 275 104 253 q 119 307 117 297 q 251 729 197 583 q 272 753 257 746 q 304 754 288 761 q 328 733 321 749 q 329 701 336 717 z "},":":{"ha":249,"x_min":14,"x_max":103,"o":"m 96 254 q 74 204 106 218 q 42 203 58 197 q 18 225 25 210 q 17 226 18 226 q 15 231 15 228 q 14 236 14 235 l 14 239 l 14 240 l 14 242 q 22 272 11 258 q 49 289 32 286 q 79 281 65 292 q 96 254 93 271 m 89 489 l 92 485 q 94 481 94 482 l 96 479 q 103 447 106 464 q 85 421 100 431 q 26 432 51 400 l 28 432 l 26 433 l 24 436 q 15 467 13 450 q 31 494 17 485 q 61 504 44 506 q 89 489 78 503 z "},";":{"ha":260,"x_min":0,"x_max":113,"o":"m 101 49 q 113 -25 118 6 q 53 -93 104 -78 q 21 -90 36 -99 q 0 -65 6 -82 q 4 -33 -4 -49 q 28 -14 13 -18 l 31 -12 q 24 17 33 -4 q 24 49 17 32 q 46 71 31 65 q 78 72 61 78 q 101 49 94 65 m 101 210 l 101 207 l 101 206 q 90 176 101 188 q 60 164 78 164 q 31 176 43 164 q 18 206 18 188 l 18 207 l 18 210 q 31 239 18 226 q 60 251 43 251 q 90 239 78 251 q 101 210 101 226 z "},"<":{"ha":436,"x_min":21,"x_max":289,"o":"m 261 374 q 149 310 221 356 q 140 305 146 308 q 131 299 135 301 l 125 296 q 119 292 122 293 q 172 275 128 289 q 181 272 174 275 q 199 267 189 269 q 211 263 208 264 q 246 250 229 257 q 269 239 260 246 q 289 213 285 231 q 285 182 293 196 q 259 163 275 167 q 228 168 243 158 l 217 174 q 203 178 213 175 q 186 183 193 181 q 165 190 182 185 q 147 194 149 194 q 94 213 125 201 q 47 238 61 226 q 26 261 36 247 q 21 301 17 279 q 65 356 26 332 q 82 367 68 358 q 104 381 99 378 q 224 449 185 431 q 256 451 239 457 q 279 429 272 444 q 261 374 297 394 z "},"=":{"ha":350,"x_min":18,"x_max":204,"o":"m 63 458 q 125 460 81 460 l 136 460 l 156 460 q 185 448 172 460 q 197 418 197 436 q 185 389 197 401 q 156 376 172 376 l 136 376 l 125 376 q 68 375 83 376 q 38 385 50 374 q 24 415 25 397 q 34 444 22 432 q 63 458 46 457 m 58 338 l 99 338 l 111 338 q 136 338 119 338 q 160 340 153 339 q 190 331 178 342 q 204 301 203 319 q 194 272 206 285 q 167 257 183 258 q 140 255 158 256 q 111 254 121 254 l 100 254 l 61 254 q 31 265 43 253 q 18 294 18 276 q 28 324 17 311 q 58 338 40 336 z "},">":{"ha":415,"x_min":17,"x_max":268,"o":"m 86 451 q 92 449 89 449 q 108 440 97 444 q 132 429 114 436 q 144 424 133 428 q 157 418 156 419 q 190 404 171 413 q 246 371 232 383 q 268 336 265 354 q 249 283 276 304 q 219 261 244 281 q 194 242 197 244 q 97 161 132 196 q 67 149 85 149 q 38 161 50 149 q 26 191 26 174 q 38 219 26 208 q 144 308 72 254 l 147 311 q 156 317 151 314 q 164 324 161 321 q 154 328 158 326 q 140 334 150 329 q 125 342 131 339 q 111 347 122 342 q 99 353 100 353 q 84 359 92 356 q 74 364 76 363 q 31 389 43 378 q 17 417 18 400 q 26 449 15 435 q 55 462 38 461 q 86 451 72 463 z "},"?":{"ha":486,"x_min":32,"x_max":339,"o":"m 32 478 q 68 611 29 556 q 165 678 107 664 q 276 657 229 692 q 339 544 328 619 q 326 438 344 492 q 282 347 313 399 q 258 307 278 339 q 210 218 228 258 q 189 133 189 172 q 177 103 189 115 q 147 92 165 92 q 118 103 131 92 q 106 133 106 115 q 133 251 106 189 q 188 351 147 285 q 202 375 196 365 q 211 389 208 385 q 256 533 264 476 q 228 589 251 572 q 185 596 208 603 q 136 563 154 589 q 115 481 114 528 q 105 451 117 464 q 75 438 93 439 q 46 449 58 438 q 32 478 33 460 m 174 -8 l 174 -10 l 175 -10 l 175 -14 l 176 -15 q 172 -47 181 -32 q 147 -67 164 -61 q 116 -63 131 -71 q 96 -39 101 -56 q 97 -8 90 -24 q 119 15 104 8 q 151 14 136 21 q 174 -8 167 7 z "},"@":{"ha":738,"x_min":28,"x_max":590,"o":"m 382 418 q 342 431 369 431 q 293 419 308 433 q 238 329 238 374 q 263 276 236 299 q 301 271 285 261 q 317 290 310 275 q 328 347 328 313 q 331 358 328 353 q 339 375 333 369 q 354 385 347 383 q 358 387 356 386 q 364 388 361 388 q 368 389 367 389 q 382 386 374 389 q 399 378 389 385 q 408 363 407 369 q 411 351 411 354 q 424 313 415 324 q 429 311 425 311 q 482 353 453 311 q 508 453 515 399 q 429 553 500 513 q 299 574 363 590 q 142 463 196 547 q 110 296 94 385 q 201 158 126 206 q 438 126 293 101 q 469 119 454 129 q 486 93 483 110 q 478 62 489 76 q 451 44 468 47 q 158 88 276 14 q 28 281 51 154 q 71 507 6 401 q 279 654 143 621 q 469 625 375 679 q 590 464 578 565 q 550 306 603 379 q 431 228 499 228 q 383 239 406 225 q 342 199 368 213 q 214 210 278 161 q 154 331 151 253 q 240 483 154 414 q 346 515 281 518 q 446 472 411 511 q 456 442 457 460 q 442 414 454 425 q 410 403 428 403 q 382 418 393 404 z "},"A":{"ha":544,"x_min":31,"x_max":399,"o":"m 126 326 q 282 333 189 325 q 280 353 282 339 q 276 374 278 367 q 217 675 249 592 q 204 700 211 692 q 189 675 196 689 q 129 360 161 617 q 126 326 126 338 m 44 13 q 31 160 26 54 q 47 369 33 254 q 115 713 79 639 q 154 769 133 749 q 217 790 183 796 q 267 757 244 786 q 293 706 285 732 q 360 385 329 614 q 363 356 361 375 q 365 329 365 338 q 379 303 379 318 q 372 274 382 285 q 385 149 381 203 q 399 22 396 44 q 394 -9 403 6 q 367 -28 385 -24 q 335 -22 350 -32 q 318 4 321 -12 q 301 140 314 17 q 290 250 290 246 q 118 243 192 239 q 114 158 114 197 q 121 47 111 68 q 122 15 128 32 q 100 -8 115 -1 q 68 -9 85 -15 q 44 13 51 -3 z "},"B":{"ha":497,"x_min":38,"x_max":353,"o":"m 133 426 q 233 482 200 443 q 256 571 264 522 q 203 664 247 624 q 156 696 179 685 q 133 426 133 575 m 144 74 q 231 124 194 86 q 269 218 267 167 q 236 299 269 269 q 135 328 203 331 q 136 290 135 319 q 139 235 138 260 q 144 74 142 169 m 85 801 q 258 726 188 790 q 338 583 326 664 q 299 431 351 496 q 253 388 279 407 q 292 361 274 376 q 353 217 353 307 q 292 68 350 131 q 126 -14 229 -3 q 99 -7 113 -15 q 61 35 61 -1 q 56 232 61 104 q 53 300 54 261 q 50 357 51 339 q 75 719 46 571 q 46 735 57 721 q 38 765 35 749 q 53 792 40 782 q 85 801 67 803 z "},"C":{"ha":535,"x_min":22,"x_max":389,"o":"m 265 643 q 235 678 256 663 q 196 696 214 694 q 138 656 160 697 q 106 511 111 604 q 110 331 100 439 q 131 193 119 239 q 183 96 150 118 q 228 96 203 81 q 283 158 258 110 q 306 267 310 210 q 316 297 304 283 q 346 310 328 310 q 375 300 363 311 q 389 271 388 289 q 358 122 393 192 q 267 22 324 51 q 136 26 199 -15 q 50 172 78 67 q 26 322 36 228 q 22 517 17 439 q 64 693 31 631 q 201 779 110 785 q 281 748 242 776 q 340 681 321 719 q 342 649 347 665 q 321 625 336 632 q 290 623 306 618 q 265 643 274 628 z "},"D":{"ha":529,"x_min":22,"x_max":383,"o":"m 146 82 q 238 167 200 107 q 300 401 300 264 q 240 626 303 538 q 113 701 189 696 q 129 389 113 618 l 129 386 q 146 82 144 156 m 58 782 q 308 675 215 803 q 383 401 386 565 q 308 122 383 238 q 71 -17 221 -17 q 42 -4 54 -17 q 29 25 29 8 q 63 65 29 58 q 46 379 61 175 l 46 382 q 29 718 29 604 q 22 736 25 724 q 30 767 19 753 q 58 782 40 781 z "},"E":{"ha":460,"x_min":33,"x_max":314,"o":"m 82 781 q 178 775 118 774 l 211 775 q 265 776 239 776 q 295 765 283 776 q 307 735 307 753 q 295 706 307 718 q 265 693 283 693 q 214 692 240 693 l 179 692 l 121 692 q 122 431 118 568 q 135 432 126 432 q 174 433 146 433 q 201 435 193 433 q 217 436 211 435 q 247 427 233 438 q 263 400 260 417 q 255 368 265 382 q 226 353 244 354 q 206 351 219 351 q 174 350 197 350 q 124 347 149 350 q 124 336 124 344 q 125 322 125 328 q 129 82 129 147 q 185 86 153 82 q 208 88 190 86 q 244 90 226 89 q 269 93 267 93 q 299 83 286 94 q 314 56 313 72 q 304 26 315 39 q 276 10 293 13 q 266 9 274 10 q 253 8 258 8 q 192 3 243 7 q 82 -3 136 -3 q 53 10 65 -3 q 40 39 40 22 q 46 58 40 47 q 42 321 46 125 l 39 399 q 39 718 35 588 q 33 746 31 729 q 51 773 36 763 q 82 781 65 783 z "},"F":{"ha":472,"x_min":32,"x_max":328,"o":"m 93 783 l 97 783 l 106 783 l 110 783 q 114 785 111 785 q 178 786 142 786 q 308 758 264 786 q 327 733 324 749 q 321 701 331 717 q 295 683 313 688 q 264 688 278 679 q 178 703 243 703 q 119 701 146 703 l 118 701 q 115 410 111 576 l 188 410 l 211 410 l 246 410 q 276 398 264 410 q 288 368 288 386 q 276 339 288 351 q 246 326 264 326 l 210 326 l 186 326 l 118 326 q 143 31 128 121 q 135 -1 146 14 q 108 -18 125 -15 q 77 -10 92 -21 q 61 17 63 0 q 33 383 40 133 q 38 749 25 632 q 53 776 40 765 q 83 785 67 786 q 89 784 86 785 q 93 783 92 783 z "},"G":{"ha":531,"x_min":15,"x_max":383,"o":"m 256 565 q 247 624 257 590 q 224 679 238 658 q 210 693 215 689 q 206 696 207 696 q 196 692 203 696 q 169 667 183 683 q 99 393 101 579 q 115 234 97 307 q 163 122 132 161 q 199 92 183 97 q 215 92 207 88 q 268 163 243 103 q 301 296 294 228 q 301 349 304 325 q 179 338 218 340 q 149 348 161 336 q 135 378 136 360 q 144 407 133 394 q 174 421 156 419 q 294 432 217 424 q 303 439 300 438 q 335 446 318 449 q 361 428 351 443 q 383 289 392 381 q 344 131 376 204 q 247 15 307 40 q 168 14 210 -1 q 97 71 132 28 q 15 394 13 178 q 104 718 18 611 q 207 779 153 779 q 292 728 256 778 q 328 647 314 694 q 339 563 342 600 q 326 533 339 544 q 296 522 314 522 q 267 536 279 524 q 256 565 256 549 z "},"H":{"ha":554,"x_min":29,"x_max":410,"o":"m 388 736 q 393 611 392 635 q 401 386 401 417 q 410 18 410 175 q 397 -12 410 0 q 368 -24 385 -24 q 338 -12 350 -24 q 326 18 326 0 q 319 375 326 149 q 304 372 308 372 q 125 357 221 372 q 143 42 131 179 q 133 11 144 24 q 104 -4 122 -1 q 74 6 88 -6 q 60 35 61 17 q 40 400 50 147 q 40 422 40 411 q 38 452 39 433 q 38 489 38 471 q 29 728 35 583 q 40 758 28 746 q 69 772 51 771 q 99 760 86 772 q 113 732 111 749 q 115 671 114 703 q 117 588 115 639 q 121 492 119 536 q 122 440 122 469 q 304 456 206 456 q 315 454 313 456 q 310 608 311 558 q 304 732 308 633 q 315 763 303 750 q 344 775 326 775 q 374 765 361 776 q 388 736 386 753 z "},"I":{"ha":274,"x_min":38,"x_max":128,"o":"m 128 736 q 121 354 121 594 l 121 183 l 121 32 q 109 2 121 14 q 79 -10 97 -10 q 50 2 63 -10 q 38 32 38 14 l 38 183 l 38 354 q 44 740 38 596 q 58 769 46 757 q 89 779 71 781 q 117 765 106 778 q 128 736 129 753 z "},"J":{"ha":478,"x_min":-12,"x_max":328,"o":"m 315 717 q 314 561 307 657 q 317 522 315 550 q 322 474 319 494 q 322 464 322 472 l 324 457 q 324 449 324 454 q 325 440 325 443 q 328 408 328 418 q 321 188 339 279 q 275 74 308 119 q 165 10 235 17 q 103 14 129 6 q 49 57 74 24 l 43 63 q 35 74 38 71 q 6 117 10 110 q -12 175 -11 147 q -5 205 -15 192 q 24 221 6 218 q 54 213 40 224 q 69 185 68 203 q 101 125 74 161 l 110 114 q 115 107 113 108 q 131 93 124 96 q 158 93 136 92 q 208 122 188 94 q 239 204 228 150 q 246 401 256 286 q 244 413 244 408 q 242 432 243 418 q 239 467 242 446 q 234 516 236 488 q 231 556 232 544 q 233 726 224 661 q 249 755 235 744 q 279 763 263 765 q 308 747 297 761 q 315 717 318 733 z "},"K":{"ha":560,"x_min":29,"x_max":415,"o":"m 378 732 q 339 424 406 565 q 196 269 290 314 q 222 247 203 264 q 256 218 242 229 l 258 215 q 335 149 315 167 q 406 74 375 111 q 415 44 417 61 q 400 15 414 26 q 369 6 386 4 q 342 21 353 7 q 278 88 311 56 q 204 153 274 90 q 201 154 203 153 q 163 188 186 168 q 132 215 140 207 q 136 33 136 114 q 124 3 136 15 q 94 -8 113 -8 q 65 3 78 -8 q 53 33 53 15 q 47 260 53 143 l 47 261 q 38 286 38 274 q 44 310 38 299 q 42 382 44 321 q 29 736 29 611 q 41 765 29 753 q 71 778 53 778 q 100 765 88 778 q 113 736 113 753 q 124 388 113 621 q 126 333 126 343 q 264 458 217 356 q 296 718 319 578 q 303 749 293 735 q 329 767 313 764 q 360 760 346 769 q 378 732 375 750 z "},"L":{"ha":465,"x_min":15,"x_max":319,"o":"m 85 767 q 91 761 85 767 q 99 739 97 756 q 101 687 100 722 q 104 622 103 651 q 117 338 113 443 q 124 81 121 246 l 149 81 l 185 78 q 274 76 251 74 q 304 67 292 78 q 319 39 317 57 q 311 8 322 22 q 282 -7 300 -6 q 179 -6 253 -10 q 144 -3 146 -3 q 89 -4 106 -3 q 54 10 68 -7 q 40 42 40 24 q 33 335 40 154 q 21 618 29 440 q 18 683 19 647 q 15 735 17 718 q 26 765 14 753 q 54 778 38 778 q 85 767 72 779 z "},"M":{"ha":615,"x_min":35,"x_max":471,"o":"m 379 424 q 332 269 333 275 q 313 206 318 225 q 307 188 310 199 q 306 183 306 186 l 304 182 q 266 152 296 154 q 226 178 236 150 q 225 181 226 179 q 224 185 225 182 q 222 192 224 186 q 218 200 219 197 q 206 231 214 210 q 194 258 197 251 q 125 440 165 333 q 119 457 122 446 q 119 419 119 444 q 118 381 118 394 q 119 192 118 286 l 119 31 q 108 1 119 14 q 78 -11 96 -11 q 48 1 60 -11 q 36 31 36 14 l 36 192 q 35 381 35 286 q 40 692 38 585 q 35 713 38 699 q 43 750 29 733 q 85 781 53 781 q 115 767 103 779 q 125 738 126 754 q 124 719 125 731 q 124 701 124 708 q 186 515 140 643 l 203 469 q 260 319 221 419 q 314 492 296 436 q 317 501 314 494 q 319 511 319 508 q 381 719 360 644 q 382 746 381 738 q 394 776 382 764 q 425 786 407 788 q 461 760 453 783 q 468 725 472 744 q 464 707 465 714 q 464 383 460 606 q 465 352 464 375 q 465 308 465 329 q 471 39 471 131 q 458 9 471 21 q 429 -3 446 -3 q 399 9 411 -3 q 388 39 388 21 q 382 306 388 129 q 381 350 382 328 q 381 381 381 372 q 379 424 381 410 z "},"N":{"ha":565,"x_min":18,"x_max":419,"o":"m 317 165 q 336 749 336 372 q 349 778 336 765 q 378 790 361 790 q 408 778 396 790 q 419 749 419 765 q 399 149 419 358 q 394 93 396 110 q 391 68 393 83 q 389 51 389 53 q 386 42 389 50 q 382 31 383 35 q 376 19 379 22 q 360 3 369 8 q 328 -1 344 -6 q 303 18 313 3 l 303 19 l 301 21 l 297 29 q 290 42 296 33 q 282 57 285 51 q 235 142 253 106 q 225 160 231 149 q 174 265 192 222 q 157 305 164 288 q 144 338 150 322 q 135 363 139 354 l 118 404 q 128 25 128 181 q 116 -4 128 8 q 86 -17 104 -17 q 57 -4 69 -17 q 44 25 44 8 q 29 514 44 200 q 28 546 29 529 q 24 639 26 589 q 21 708 21 689 q 19 715 19 711 q 18 722 18 719 q 24 753 15 739 q 50 771 33 768 q 60 772 54 772 q 90 760 78 772 q 103 732 103 749 q 103 726 103 731 q 104 719 104 722 q 150 560 121 649 q 213 393 181 474 q 251 297 218 378 q 299 199 263 268 l 307 182 q 317 165 311 176 z "},"O":{"ha":465,"x_min":26,"x_max":318,"o":"m 314 519 q 315 514 315 518 q 316 491 315 511 q 317 465 317 471 q 318 286 321 353 q 292 111 314 178 q 254 42 276 68 q 179 8 221 8 q 115 31 142 8 q 79 74 96 46 q 28 288 32 156 q 26 393 26 315 q 39 549 29 478 q 79 694 53 644 q 122 747 96 728 q 196 764 156 771 q 275 706 251 753 q 314 519 318 621 m 231 517 q 201 667 235 603 q 182 682 194 678 q 171 679 174 682 q 153 656 163 672 q 121 538 135 621 q 110 392 111 464 q 111 290 110 317 q 151 115 114 182 q 179 92 165 92 q 192 99 186 92 q 213 138 204 111 q 235 290 231 189 q 235 461 238 340 q 233 482 233 465 q 232 504 232 499 q 231 517 231 508 z "},"P":{"ha":451,"x_min":26,"x_max":301,"o":"m 117 356 q 199 429 169 376 q 219 568 233 489 q 167 675 208 638 q 108 689 139 699 q 117 361 104 576 l 117 356 m 88 769 q 221 739 158 790 q 301 581 286 682 q 272 389 319 476 q 121 268 222 299 q 128 43 128 99 q 115 14 128 26 q 86 1 103 1 q 56 14 68 1 q 44 43 44 26 q 35 333 44 129 q 33 358 33 346 q 26 735 21 588 q 40 764 28 753 q 69 775 53 775 q 88 769 76 775 z "},"Q":{"ha":585,"x_min":26,"x_max":438,"o":"m 226 21 q 179 8 206 8 q 115 31 142 8 q 79 74 96 46 q 28 288 32 156 q 26 393 26 315 q 39 549 29 478 q 79 694 53 644 q 122 747 96 728 q 196 764 156 771 q 275 706 251 753 q 314 519 318 621 q 315 514 315 518 q 316 491 315 511 q 317 465 317 471 q 318 286 321 353 q 292 111 314 178 q 287 97 290 107 q 281 83 283 88 q 294 71 286 79 q 407 4 353 18 q 433 -15 424 0 q 438 -46 442 -29 q 419 -72 433 -62 q 388 -76 404 -81 q 238 10 308 -56 l 226 21 m 231 517 q 201 667 235 603 q 182 682 194 678 q 171 679 174 682 q 153 656 163 672 q 121 538 135 621 q 110 392 111 464 q 111 290 110 317 q 151 115 114 182 q 179 92 165 92 q 190 114 182 106 q 207 124 197 121 q 213 138 208 126 q 235 290 231 189 q 235 461 238 340 q 233 482 233 465 q 232 504 232 499 q 231 517 231 508 z "},"R":{"ha":483,"x_min":35,"x_max":338,"o":"m 119 343 q 189 414 160 368 q 225 542 225 474 q 190 643 225 606 q 121 676 165 672 l 121 517 q 119 385 121 450 l 119 343 m 193 293 q 243 196 219 236 q 315 83 263 161 q 331 58 328 64 q 337 28 340 44 q 319 1 333 11 q 288 -5 306 -8 q 261 13 271 -1 l 246 36 q 171 154 197 108 q 121 251 140 206 l 119 251 q 118 50 118 168 q 106 20 118 32 q 76 8 94 8 q 47 20 60 8 q 35 50 35 32 q 35 190 35 88 q 36 385 36 292 q 38 517 38 451 l 38 721 q 50 750 38 738 q 79 763 63 763 q 85 762 81 763 q 92 761 89 761 q 253 699 193 765 q 308 542 308 636 q 261 371 308 450 q 193 293 231 324 z "},"S":{"ha":499,"x_min":39,"x_max":343,"o":"m 263 567 q 261 665 279 631 q 221 694 249 690 q 164 681 190 699 q 119 608 132 657 q 135 483 106 549 q 214 363 153 440 q 222 353 215 361 q 235 337 228 346 q 244 325 242 328 q 272 288 256 310 q 318 206 307 238 q 322 89 342 142 q 282 31 311 57 q 215 -10 253 4 q 139 -15 175 -24 q 69 31 94 -7 q 46 92 50 61 q 43 144 43 107 q 39 193 43 175 q 44 224 35 210 q 69 243 53 239 q 101 239 86 247 q 119 213 115 231 q 126 144 126 186 q 139 78 126 94 q 156 65 144 67 q 188 69 168 63 q 243 117 233 86 q 240 176 253 143 q 204 239 231 203 q 178 274 193 256 q 149 311 153 306 q 58 450 82 397 q 39 628 18 538 q 115 747 58 707 q 236 776 171 788 q 335 701 306 765 q 343 546 368 639 q 324 520 339 529 q 292 515 308 511 q 267 535 275 519 q 263 567 258 550 z "},"T":{"ha":460,"x_min":-25,"x_max":314,"o":"m 194 681 q 200 522 201 593 q 194 367 200 468 q 190 131 188 207 q 199 36 192 82 q 190 6 200 19 q 163 -10 179 -7 q 131 -2 144 -12 q 115 26 118 8 q 107 126 108 75 q 111 371 104 207 q 117 522 117 472 q 111 672 118 592 q 114 689 111 685 q 15 692 76 689 q -15 704 -3 692 q -25 735 -26 717 q -11 763 -24 751 q 18 775 1 775 q 154 772 99 772 q 173 773 160 772 q 199 774 186 774 l 272 774 q 302 761 290 774 q 314 732 314 749 q 302 702 314 714 q 272 690 290 690 l 200 690 l 193 690 q 194 685 193 689 q 194 681 194 682 z "},"U":{"ha":571,"x_min":26,"x_max":425,"o":"m 122 728 q 110 438 101 589 q 161 160 118 254 q 171 135 167 146 l 172 129 l 175 124 q 193 89 182 97 q 229 78 204 78 q 292 151 264 79 q 333 347 321 224 q 342 578 344 457 q 332 728 339 692 q 340 760 331 746 q 367 776 350 774 q 398 769 383 779 q 414 742 413 758 q 425 579 422 689 q 417 339 428 454 q 368 115 401 196 q 317 33 346 61 q 229 -6 281 -3 q 135 29 168 -6 q 96 96 111 53 l 94 97 q 94 101 94 100 l 92 107 q 85 126 88 122 q 26 433 35 240 q 39 740 18 592 q 56 767 42 757 q 86 775 69 778 q 115 759 104 774 q 122 728 125 744 z "},"V":{"ha":513,"x_min":13,"x_max":368,"o":"m 368 735 q 313 408 349 589 q 271 218 304 363 q 225 22 231 42 q 183 -11 218 -11 q 143 21 150 -11 q 104 200 126 81 q 76 375 92 271 q 75 381 75 378 q 47 550 64 454 q 13 721 31 647 q 17 752 8 738 q 43 771 26 767 q 74 766 60 775 q 93 740 89 757 q 129 565 110 676 q 157 393 147 460 q 158 388 158 390 q 186 219 172 299 q 190 236 189 231 q 231 425 211 331 q 285 746 268 607 q 301 773 288 763 q 331 782 314 783 q 359 766 349 779 q 368 735 369 753 z "},"W":{"ha":663,"x_min":19,"x_max":518,"o":"m 518 724 q 504 492 515 675 q 497 351 500 392 q 472 38 486 156 q 442 1 469 8 q 440 0 440 1 q 409 -3 426 -8 q 383 17 392 1 q 268 336 311 142 q 257 386 260 369 q 239 315 242 328 q 163 28 219 236 q 142 3 157 11 q 111 -1 128 -6 q 101 3 107 0 q 76 36 81 13 q 38 386 47 276 q 19 742 19 572 q 31 771 19 758 q 61 783 43 783 q 91 771 79 783 q 103 742 103 758 q 121 394 103 576 q 135 247 128 313 q 158 336 156 322 q 222 628 197 488 q 226 639 222 633 q 225 671 225 650 q 238 701 225 689 q 267 713 250 713 q 297 701 285 713 q 308 671 308 689 q 349 354 308 533 q 403 175 372 253 q 414 357 411 276 q 418 424 415 379 q 422 496 421 469 q 435 729 429 639 q 449 758 436 746 q 479 768 461 769 q 508 753 496 767 q 518 724 519 740 z "},"X":{"ha":499,"x_min":10,"x_max":351,"o":"m 315 738 q 306 689 315 721 q 283 607 301 671 q 218 385 244 471 q 221 380 219 383 q 222 375 222 376 l 243 328 q 263 281 251 308 q 300 192 292 214 q 351 47 340 94 q 347 15 356 31 q 322 -4 339 0 q 290 1 306 -8 q 271 26 275 10 q 224 161 263 58 q 206 202 218 174 q 186 249 194 231 q 182 260 185 251 q 163 197 175 236 q 146 142 151 157 q 106 22 111 32 q 79 6 96 8 q 49 13 63 3 q 31 39 35 22 q 36 69 28 56 l 39 78 q 42 90 40 85 q 65 167 43 94 q 131 379 92 246 q 47 586 72 514 q 10 756 6 703 q 25 783 13 772 q 56 793 38 794 q 83 778 72 792 q 93 749 94 765 q 126 614 90 714 q 168 506 138 582 q 203 629 171 514 q 225 710 221 693 q 231 732 231 729 q 232 735 231 733 q 243 764 232 751 q 272 776 254 776 q 302 766 290 778 q 315 738 314 754 z "},"Y":{"ha":504,"x_min":19,"x_max":358,"o":"m 103 726 l 103 683 q 104 564 101 608 q 125 454 108 489 q 140 433 133 439 q 153 432 144 429 q 182 456 164 435 q 221 526 200 476 q 264 682 251 597 q 265 732 264 718 q 280 760 267 749 q 310 769 293 771 q 336 758 325 768 q 353 721 356 744 q 349 678 351 706 l 349 668 q 349 650 349 663 q 350 629 350 638 q 353 583 353 613 q 358 410 360 461 q 307 128 358 222 q 60 35 231 -14 q 35 56 43 40 q 31 88 26 71 q 51 113 36 104 q 82 115 65 121 q 179 114 143 99 q 233 167 213 126 q 275 410 275 244 l 275 446 q 247 403 261 421 q 168 350 208 357 q 93 364 128 342 q 50 419 68 382 q 21 558 28 467 q 19 685 17 607 l 19 724 q 31 753 19 742 q 60 767 43 765 q 90 755 78 767 q 103 726 103 743 z "},"Z":{"ha":526,"x_min":3,"x_max":381,"o":"m 361 706 q 303 597 333 667 q 226 407 264 511 l 146 182 q 111 92 125 122 q 201 96 150 96 q 289 96 235 97 l 339 96 q 369 84 357 96 q 381 54 381 72 q 369 24 381 36 q 339 13 357 13 l 289 13 q 203 13 233 14 q 57 -3 111 13 q 25 1 40 -7 q 6 26 10 10 q 8 58 0 40 q 15 85 8 75 q 67 210 31 106 l 83 254 q 119 356 99 299 q 149 435 140 413 q 228 631 196 564 q 257 692 244 668 q 224 689 249 692 q 199 688 211 689 q 43 679 104 678 q 14 693 25 681 q 3 722 3 706 q 17 752 4 740 q 46 763 29 764 q 192 769 99 761 l 217 772 q 321 778 274 778 q 356 757 344 778 q 361 706 381 735 z "},"[":{"ha":351,"x_min":28,"x_max":206,"o":"m 92 751 q 161 747 139 747 q 191 735 179 747 q 203 706 203 722 q 191 676 203 688 q 161 664 179 664 q 119 665 135 664 l 119 657 q 115 578 117 628 q 111 347 111 486 q 111 121 108 224 q 113 50 111 67 l 117 50 q 123 51 118 50 q 132 51 128 51 l 136 51 q 138 53 136 53 l 140 53 q 147 54 146 53 q 157 55 151 54 q 164 56 163 56 q 194 43 182 56 q 206 14 206 31 q 194 -16 206 -4 q 164 -28 182 -28 q 142 -31 163 -28 q 125 -33 128 -33 q 88 -33 103 -35 q 65 -29 75 -33 q 39 -8 50 -24 q 31 21 32 1 q 29 44 29 26 q 28 77 29 51 q 28 119 28 103 q 28 347 25 222 q 32 581 28 486 q 44 714 36 690 l 44 715 q 60 744 46 733 q 92 751 74 754 z "},"\\":{"ha":465,"x_min":71,"x_max":317,"o":"m 153 719 q 207 458 163 679 q 256 239 231 340 q 317 33 279 135 q 315 1 322 17 q 293 -21 308 -14 q 261 -19 276 -26 q 239 3 246 -12 q 174 218 199 117 q 125 442 160 274 q 71 700 89 624 q 77 731 68 717 q 103 750 86 746 q 134 745 119 754 q 153 719 149 736 z "},"]":{"ha":307,"x_min":-6,"x_max":160,"o":"m 32 57 q 63 56 36 58 l 67 56 q 72 283 67 138 q 76 404 74 324 q 75 693 81 578 q 43 694 53 693 q 15 708 26 696 q 4 739 3 721 q 19 767 6 756 q 49 778 32 779 q 113 775 85 775 q 139 765 128 775 q 153 739 150 754 l 157 726 q 160 401 164 603 q 156 279 157 328 q 150 19 150 106 q 119 -21 150 -11 q 96 -28 113 -25 q 65 -28 82 -29 q 54 -26 60 -28 l 43 -26 l 40 -26 l 39 -26 q 9 -17 22 -28 q -6 13 -4 -6 q 4 42 -7 29 q 32 57 15 56 z "},"^":{"ha":413,"x_min":8,"x_max":267,"o":"m 15 483 q 17 486 15 485 l 21 494 l 32 517 q 61 581 43 544 q 74 607 65 590 q 119 686 97 657 q 136 701 131 697 q 171 711 153 713 q 208 689 194 710 q 218 663 217 672 q 244 557 226 621 q 246 551 244 553 q 267 468 263 489 q 260 437 269 451 q 235 419 251 422 q 203 424 218 415 q 185 450 189 433 q 165 531 181 469 q 164 536 164 532 q 153 578 160 549 q 151 574 153 576 q 149 571 150 572 q 136 544 140 554 q 107 482 113 490 q 83 436 90 447 q 25 425 60 403 q 8 452 11 436 q 15 483 6 468 z "},"_":{"ha":486,"x_min":7,"x_max":342,"o":"m 50 64 q 174 63 82 63 q 211 64 183 64 q 300 65 260 65 q 329 53 317 65 q 342 24 342 42 q 329 -6 342 6 q 300 -18 317 -18 q 213 -19 261 -18 l 175 -19 q 46 -19 94 -21 q 17 -5 28 -18 q 7 25 6 8 q 21 54 8 43 q 50 64 33 65 z "},"`":{"ha":282,"x_min":7,"x_max":138,"o":"m 83 722 q 128 663 117 675 q 138 632 139 649 q 122 604 136 615 q 92 594 110 593 q 64 608 75 594 q 14 676 46 631 q 8 708 4 692 q 26 735 11 724 q 57 740 40 744 q 83 722 74 736 z "},"a":{"ha":522,"x_min":26,"x_max":375,"o":"m 256 407 q 229 446 244 436 q 211 450 221 451 q 140 390 178 443 q 108 297 106 339 q 117 279 110 283 q 147 271 125 271 q 211 296 182 269 l 217 301 q 226 310 219 303 q 257 353 256 335 q 276 383 261 372 q 278 385 278 383 q 256 407 263 392 m 356 357 q 353 332 353 346 q 360 301 356 315 q 363 289 360 300 q 369 263 365 278 q 375 242 374 247 q 370 210 379 225 q 344 192 361 196 q 313 195 328 186 q 294 221 299 204 q 290 235 293 225 q 286 251 288 246 q 281 247 283 249 l 272 239 l 269 238 q 267 235 267 236 q 146 188 214 186 q 63 216 94 189 q 26 289 31 243 q 72 438 19 358 q 193 531 125 518 q 275 515 238 542 q 332 439 310 494 q 331 403 340 419 q 356 357 361 392 z "},"b":{"ha":497,"x_min":40,"x_max":350,"o":"m 128 278 q 199 271 165 268 q 243 290 225 275 q 268 372 275 318 q 225 444 260 426 q 190 449 211 453 q 132 417 167 444 q 128 415 131 417 q 125 413 126 414 l 125 403 q 128 278 128 289 m 126 740 q 124 511 122 629 q 264 518 199 551 q 322 464 299 500 q 350 383 344 428 q 299 228 364 286 q 114 196 231 168 q 86 185 103 185 q 56 197 68 185 q 44 226 44 210 q 42 401 44 314 q 40 468 42 450 q 44 744 38 654 q 58 774 44 763 q 88 785 71 786 q 117 770 106 783 q 126 740 128 757 z "},"c":{"ha":476,"x_min":19,"x_max":329,"o":"m 215 438 q 189 446 206 453 q 131 389 157 432 q 103 307 103 346 q 128 269 103 278 q 185 281 142 265 q 198 285 190 283 q 208 289 206 288 q 253 297 235 296 q 306 289 281 300 q 329 267 322 283 q 329 235 336 250 q 306 213 322 219 q 275 213 290 206 q 233 208 258 217 q 213 201 222 206 q 163 188 185 192 q 100 192 126 181 q 19 304 22 219 q 60 433 18 367 q 156 522 100 499 q 226 528 192 538 q 283 486 261 519 q 292 456 294 472 q 274 428 289 439 q 242 421 260 418 q 215 438 225 424 z "},"d":{"ha":503,"x_min":42,"x_max":358,"o":"m 346 736 l 346 663 q 347 444 346 506 q 358 229 350 314 q 349 199 360 213 q 321 185 338 186 q 278 210 290 181 q 247 200 253 201 q 169 188 203 188 q 42 274 72 190 q 49 417 17 336 q 147 525 79 494 q 263 528 204 551 l 263 664 l 263 736 q 274 765 263 753 q 304 778 286 778 q 334 765 322 778 q 346 736 346 753 m 263 433 q 182 450 221 465 q 126 385 143 432 q 119 303 106 336 q 172 271 129 272 l 178 271 q 185 273 181 272 q 192 274 189 274 q 226 281 201 275 q 242 285 231 282 q 258 292 253 289 q 268 296 263 293 l 269 297 q 264 432 267 343 l 263 433 z "},"e":{"ha":485,"x_min":38,"x_max":340,"o":"m 247 414 q 226 449 242 435 q 193 454 213 458 q 147 427 168 449 q 119 376 125 406 q 117 361 117 365 q 185 388 176 385 q 242 413 196 392 l 244 414 l 247 414 m 153 285 q 156 282 154 283 q 160 281 158 281 l 165 278 q 176 274 168 276 q 210 271 196 271 q 274 289 251 274 q 305 298 288 300 q 332 282 322 296 q 340 250 342 267 q 324 222 338 233 q 211 188 279 190 q 113 211 149 188 q 47 292 67 243 q 38 394 26 342 q 88 485 49 447 q 176 535 126 524 q 275 517 229 547 q 332 417 319 485 l 332 411 q 333 403 332 410 l 333 394 q 322 364 335 379 q 217 310 307 349 q 185 297 207 306 q 153 285 164 289 z "},"f":{"ha":457,"x_min":6,"x_max":310,"o":"m 228 579 q 185 696 239 649 q 157 710 169 710 l 157 708 l 154 703 q 126 449 129 632 l 138 449 l 140 449 q 213 449 186 450 q 242 434 231 447 q 251 404 253 421 q 238 375 250 386 q 207 365 225 364 q 142 365 185 367 l 139 365 l 125 365 l 125 288 l 125 225 q 113 195 125 207 q 83 183 101 183 q 54 195 67 183 q 42 225 42 207 l 42 288 l 42 369 l 40 369 q 13 385 24 372 q 6 417 3 399 q 43 453 10 449 q 76 732 47 656 q 154 793 96 789 q 239 760 197 793 q 299 674 279 726 q 310 565 318 621 q 293 538 307 549 q 263 531 279 528 q 235 547 244 533 q 228 579 225 561 z "},"g":{"ha":500,"x_min":24,"x_max":354,"o":"m 263 435 q 151 438 197 467 q 107 365 107 413 q 140 286 107 311 q 271 288 182 256 l 271 290 q 265 383 271 306 q 263 421 265 404 l 263 435 m 343 506 q 349 390 342 489 q 354 293 354 307 q 333 97 358 165 q 178 7 290 -14 q 57 53 110 18 q 38 78 42 63 q 44 110 35 94 q 72 128 54 124 q 103 122 89 132 q 192 89 139 99 q 231 93 217 85 q 254 128 244 101 q 269 199 265 151 q 92 218 161 169 q 24 365 24 269 q 47 449 24 410 q 110 510 69 488 q 263 524 178 550 q 306 550 275 553 q 333 536 322 549 q 343 506 344 524 z "},"h":{"ha":506,"x_min":28,"x_max":361,"o":"m 111 739 q 114 500 111 567 q 118 408 114 496 q 157 464 129 428 q 215 519 188 500 q 283 533 250 542 q 333 493 317 525 q 353 439 347 468 q 361 318 364 389 q 351 218 360 264 q 333 192 347 201 q 301 186 318 182 q 276 203 285 189 q 269 235 267 218 q 278 321 275 263 q 271 422 281 379 q 263 450 267 442 q 261 449 261 450 q 260 449 261 449 q 221 411 242 436 q 138 231 146 318 q 127 203 138 215 q 103 190 117 192 q 72 197 86 188 q 54 225 57 207 q 31 497 35 353 q 28 739 28 565 q 40 769 28 757 q 69 781 51 781 q 99 769 86 781 q 111 739 111 757 z "},"i":{"ha":269,"x_min":24,"x_max":124,"o":"m 115 508 q 122 431 119 483 q 121 357 122 394 l 121 351 q 124 233 119 285 q 115 202 125 215 q 88 186 104 189 q 57 194 71 183 q 42 224 43 206 q 38 353 36 275 l 38 358 q 33 496 39 457 q 41 526 31 513 q 68 543 51 540 q 99 535 85 546 q 115 508 113 525 m 104 675 q 107 664 107 672 q 108 654 108 660 l 108 649 q 96 619 108 632 q 67 607 83 607 q 37 619 49 607 q 25 649 25 632 l 25 650 q 24 658 24 653 q 29 690 19 675 q 56 708 39 704 q 87 702 72 711 q 104 675 101 693 z "},"j":{"ha":357,"x_min":-22,"x_max":213,"o":"m 203 494 q 203 478 203 490 q 204 457 204 467 q 207 408 207 440 q 213 264 213 331 q 192 74 210 139 q 154 -3 176 24 q 76 -42 122 -40 q 24 -33 43 -44 q -11 -1 6 -24 q -22 28 -22 11 q -7 57 -21 46 q 23 67 6 68 q 51 53 40 67 q 61 42 56 47 q 63 40 63 42 q 72 42 68 40 q 90 51 82 42 q 111 96 103 64 q 129 264 126 147 q 124 403 129 329 q 121 453 124 433 q 120 475 121 463 q 119 492 119 488 q 131 522 119 510 q 161 535 143 535 q 190 524 178 536 q 203 494 203 511 m 182 664 l 188 650 q 188 618 194 635 q 164 596 181 601 q 133 597 149 590 q 110 619 117 604 l 104 633 q 106 665 99 650 q 128 688 113 681 q 160 688 144 694 q 182 664 176 681 z "},"k":{"ha":474,"x_min":32,"x_max":328,"o":"m 324 507 q 240 368 304 435 q 235 363 239 367 q 229 358 231 360 q 311 261 239 315 q 327 233 325 250 q 319 203 329 217 q 292 187 308 189 q 261 194 275 185 q 188 263 211 231 q 157 311 167 288 q 119 299 139 303 q 122 125 122 215 q 110 95 122 107 q 81 83 99 83 q 51 95 64 83 q 39 125 39 107 q 35 322 39 222 q 34 358 35 339 q 33 390 33 378 q 32 413 32 401 q 43 751 28 632 q 58 778 46 768 q 89 788 71 789 q 116 772 106 785 q 125 742 126 758 q 115 414 111 625 q 117 385 117 404 q 181 428 147 394 q 243 529 229 475 q 263 554 249 546 q 294 558 278 563 q 319 538 311 553 q 324 507 328 524 z "},"l":{"ha":263,"x_min":31,"x_max":118,"o":"m 114 738 q 115 457 114 592 l 117 454 q 117 449 117 451 q 118 158 118 304 q 106 128 118 140 q 76 117 94 117 q 47 128 58 117 q 35 158 35 140 q 33 447 35 304 q 33 453 33 450 q 32 457 32 456 q 31 738 31 590 q 43 767 31 756 q 72 779 56 779 q 102 767 90 779 q 114 738 114 756 z "},"m":{"ha":592,"x_min":18,"x_max":447,"o":"m 28 211 q 19 351 17 271 q 35 478 21 432 q 69 529 47 515 q 113 536 89 540 q 144 518 128 533 q 222 350 181 485 q 231 386 228 381 q 263 483 244 449 q 293 526 275 510 q 347 549 318 547 q 399 525 378 550 q 421 486 411 513 q 440 390 435 446 q 446 292 446 332 q 447 224 447 268 q 435 194 447 206 q 406 182 422 182 q 376 194 388 182 q 364 224 364 206 q 357 382 364 321 q 343 457 353 424 q 340 451 342 456 q 336 446 338 447 q 311 367 322 417 q 303 332 310 363 q 296 296 297 301 q 274 232 286 253 q 230 204 257 206 q 182 226 203 203 q 153 288 163 250 q 151 293 153 289 q 150 299 150 297 l 149 303 q 147 310 147 308 q 144 319 144 318 q 108 419 118 399 q 107 421 108 421 q 110 226 92 319 q 103 195 113 210 q 75 178 93 181 q 44 185 58 175 q 28 211 31 194 z "},"n":{"ha":488,"x_min":29,"x_max":342,"o":"m 228 451 q 204 438 221 451 q 118 229 121 369 q 86 189 118 196 q 65 186 76 185 q 38 202 49 189 q 29 232 28 215 q 31 250 31 238 q 32 268 32 263 q 33 361 33 293 q 36 501 33 457 q 50 531 38 519 q 81 540 63 542 q 110 526 99 539 q 119 497 121 514 q 119 483 119 492 q 118 471 118 475 q 150 501 128 482 q 211 533 179 526 q 274 521 244 542 q 328 425 313 496 q 342 313 339 381 q 340 226 342 251 q 326 197 339 208 q 297 186 314 185 q 267 200 279 188 q 257 231 256 213 q 247 407 264 333 q 236 440 243 425 q 231 450 233 444 q 228 451 229 451 z "},"o":{"ha":490,"x_min":22,"x_max":344,"o":"m 164 449 q 104 375 114 418 q 119 301 94 336 q 175 272 140 272 q 253 329 217 275 q 244 414 276 365 q 167 449 213 464 l 164 449 m 161 533 q 247 522 206 542 q 315 460 289 501 q 344 369 342 417 q 322 283 347 322 q 178 189 261 193 q 53 251 101 186 q 22 393 4 315 q 136 529 42 479 q 161 533 149 536 z "},"p":{"ha":440,"x_min":25,"x_max":294,"o":"m 108 272 q 182 299 153 272 q 211 369 214 328 q 183 435 211 411 q 114 454 157 456 q 108 272 106 378 m 68 533 q 236 499 172 553 q 294 369 294 451 q 240 239 297 293 q 110 189 188 189 l 110 182 q 113 46 113 117 q 101 17 113 29 q 71 4 89 4 q 42 17 54 4 q 29 46 29 29 q 26 179 29 115 q 25 271 25 226 q 35 489 24 390 q 43 517 33 504 q 68 533 53 531 z "},"q":{"ha":447,"x_min":22,"x_max":303,"o":"m 217 451 q 131 421 157 447 q 106 351 99 394 q 144 285 110 308 q 219 269 176 261 q 217 451 219 407 m 279 529 q 301 489 304 518 q 299 478 301 481 q 301 224 303 411 l 301 214 q 303 33 301 81 q 291 4 303 17 q 261 -8 279 -8 q 232 2 244 -10 q 219 32 219 14 q 218 185 218 75 q 97 217 150 178 q 22 342 31 263 q 75 483 14 428 q 244 535 135 539 q 253 536 247 536 q 279 529 268 539 z "},"r":{"ha":446,"x_min":26,"x_max":301,"o":"m 29 261 l 29 383 l 29 399 q 28 507 28 451 q 40 536 28 524 q 69 549 53 549 q 99 536 88 549 q 111 507 111 524 l 111 461 q 260 535 176 535 q 289 522 276 535 q 301 493 301 510 q 289 463 301 475 q 260 451 276 451 q 153 376 197 451 q 113 256 122 322 l 113 231 q 108 213 113 221 q 68 185 99 185 q 38 197 50 185 q 26 226 26 210 q 29 261 26 239 z "},"s":{"ha":386,"x_min":46,"x_max":240,"o":"m 196 469 q 143 450 164 471 q 124 424 129 438 q 125 411 122 421 q 165 367 131 394 q 194 343 172 360 q 222 315 213 328 q 211 217 264 258 q 99 171 161 176 q 68 180 81 169 q 53 208 56 190 q 63 238 51 225 q 90 253 74 251 q 147 274 125 257 l 144 275 q 140 279 142 278 q 132 286 139 281 q 119 297 125 292 l 113 301 q 76 336 92 318 q 46 383 57 358 q 85 510 22 447 q 203 551 135 557 q 231 537 219 550 q 240 507 242 524 q 226 478 239 489 q 196 469 213 467 z "},"t":{"ha":414,"x_min":-17,"x_max":268,"o":"m 138 740 q 135 640 135 711 l 135 613 l 175 613 q 205 601 193 613 q 217 571 217 589 q 205 541 217 553 q 175 529 193 529 l 133 529 q 133 517 133 524 q 133 507 133 511 l 132 503 q 129 408 129 425 q 140 300 129 342 q 153 275 147 281 l 157 271 l 157 272 q 163 274 161 272 q 169 282 167 276 q 181 329 179 308 q 181 340 181 335 q 183 353 182 344 q 183 369 183 363 q 184 394 183 382 q 185 413 185 407 q 201 440 188 429 q 231 450 214 451 q 258 435 247 449 q 268 406 269 422 q 267 390 268 401 q 267 367 267 378 q 266 349 267 358 q 265 333 265 339 q 264 321 264 326 q 247 253 260 288 q 208 204 236 222 q 151 189 181 186 q 90 221 114 192 q 61 276 72 240 q 46 407 46 324 q 49 507 46 429 l 49 510 q 49 515 49 513 q 50 522 50 518 q 50 529 50 526 q 26 528 35 529 q -4 540 8 528 q -17 568 -17 551 q -6 599 -18 586 q 24 611 6 611 q 51 613 32 613 l 51 640 q 54 747 51 715 q 69 775 57 764 q 100 785 82 786 q 128 770 117 783 q 138 740 139 757 z "},"u":{"ha":469,"x_min":35,"x_max":324,"o":"m 118 499 q 122 285 100 339 q 126 278 125 279 q 131 281 128 278 q 194 364 164 299 q 226 464 219 415 l 226 496 q 239 525 226 513 q 268 538 251 538 q 296 527 285 538 q 310 501 307 517 q 311 489 311 497 q 310 458 311 469 l 310 419 q 313 294 310 321 q 324 229 315 263 q 317 198 326 213 q 292 181 308 183 q 260 185 275 176 q 242 211 246 194 q 232 264 233 256 q 175 210 206 229 q 100 197 136 185 q 46 253 64 208 q 35 507 14 329 q 50 535 36 525 q 81 544 64 546 q 109 529 99 543 q 118 499 119 515 z "},"v":{"ha":475,"x_min":39,"x_max":329,"o":"m 121 506 q 156 371 135 433 q 182 292 167 326 q 208 354 192 311 q 247 499 242 447 q 263 527 249 517 q 293 535 276 538 q 322 520 311 533 q 329 489 332 507 q 288 326 324 433 q 247 239 264 267 q 219 206 236 219 q 163 192 193 183 q 125 222 140 197 q 106 257 118 232 q 75 347 88 301 q 39 489 64 382 q 46 521 36 507 q 72 538 56 535 q 103 532 89 542 q 121 506 118 522 z "},"w":{"ha":560,"x_min":36,"x_max":414,"o":"m 117 507 q 121 414 121 492 q 122 369 122 392 q 124 319 122 333 q 125 321 124 321 q 154 378 150 372 q 171 404 161 393 q 201 428 182 419 q 246 425 222 436 q 271 400 261 417 q 299 329 286 379 q 301 324 300 328 q 303 318 303 319 q 304 326 303 324 q 324 433 314 372 q 329 475 325 439 q 330 483 329 478 q 331 489 331 488 l 331 493 l 331 494 q 343 524 331 511 q 372 536 356 536 q 402 524 390 536 q 414 494 414 511 q 407 422 414 475 q 385 307 394 343 q 346 208 368 233 q 319 189 335 194 q 276 192 299 181 q 238 242 253 203 q 225 282 228 265 l 225 283 l 224 286 q 221 300 222 293 q 219 308 219 307 q 217 318 217 314 l 199 282 q 160 221 175 239 q 133 199 144 204 q 88 194 111 186 q 60 221 69 203 q 49 247 51 238 q 39 368 39 285 q 38 414 39 390 l 38 464 q 36 481 38 476 l 36 486 l 36 488 q 41 519 32 504 q 67 538 50 533 q 98 533 83 542 q 117 507 113 524 z "},"x":{"ha":411,"x_min":22,"x_max":264,"o":"m 263 481 q 221 400 249 447 q 196 361 215 392 q 231 310 211 340 q 264 232 257 265 q 260 200 268 215 q 233 181 251 185 q 202 185 217 176 q 183 211 188 194 q 160 267 178 232 q 144 289 157 269 q 99 211 115 246 q 76 190 92 196 q 44 190 60 183 q 23 214 29 197 q 24 246 17 231 q 63 317 33 268 q 93 361 69 328 q 61 413 72 390 q 35 494 39 453 q 43 525 32 511 q 72 540 54 539 q 103 531 89 542 q 118 503 117 519 q 144 435 119 474 q 147 439 144 436 q 150 444 149 442 q 185 511 174 481 q 207 535 190 528 q 239 535 224 542 q 263 513 256 529 q 263 481 269 496 z "},"y":{"ha":482,"x_min":28,"x_max":336,"o":"m 336 490 q 331 360 332 446 q 329 324 329 342 q 307 125 325 189 q 264 44 292 75 q 178 4 231 8 q 36 69 61 -4 q 32 81 35 72 l 31 82 q 31 85 31 83 q 29 89 31 89 l 29 92 q 33 124 25 108 q 58 143 42 139 q 90 139 75 147 q 110 114 104 131 q 111 110 110 111 q 114 97 113 100 q 118 93 115 94 q 172 88 132 86 q 203 101 189 88 q 226 149 215 114 q 243 260 239 192 q 190 206 215 224 q 116 187 153 178 q 57 240 79 196 q 28 496 22 311 q 42 526 29 514 q 71 536 54 538 q 101 522 89 535 q 111 493 113 510 q 132 276 106 331 q 136 269 135 271 q 142 274 139 269 q 210 367 175 297 q 250 494 244 436 q 260 517 250 504 q 300 536 274 540 q 327 520 317 533 q 336 490 338 507 z "},"z":{"ha":444,"x_min":31,"x_max":299,"o":"m 40 469 q 34 475 40 469 q 31 499 29 482 q 45 526 32 515 q 75 536 58 538 l 76 536 l 79 536 l 89 536 l 104 536 l 121 536 q 160 538 149 536 q 224 535 190 538 q 251 531 242 535 q 267 525 263 528 q 288 506 281 518 q 293 481 296 494 q 290 467 293 478 q 283 453 288 460 q 265 426 276 440 q 211 364 256 414 q 210 360 211 363 q 207 357 208 358 q 161 307 178 328 q 135 276 142 285 q 132 272 135 275 q 176 274 151 272 q 210 276 207 276 q 261 275 246 276 q 289 261 278 274 q 299 231 300 249 q 285 203 297 214 q 254 193 272 192 l 214 193 q 199 192 210 193 q 182 192 189 192 q 126 189 150 189 q 72 199 93 189 q 38 263 31 217 q 68 326 42 292 q 100 363 76 338 q 144 413 122 390 q 150 418 146 417 q 164 435 153 422 q 179 454 175 447 l 161 454 q 122 453 150 453 q 67 453 75 451 q 40 469 50 456 z "},"{":{"ha":438,"x_min":18,"x_max":292,"o":"m 157 638 l 154 646 l 154 647 l 153 647 l 151 647 q 136 629 139 647 q 139 556 135 599 q 150 478 146 504 q 163 397 158 426 q 165 308 167 344 q 153 272 163 289 q 122 233 142 253 l 119 231 q 132 225 124 228 q 163 193 151 215 q 171 151 168 179 l 171 111 l 171 86 q 179 29 171 42 l 181 28 q 185 26 182 26 q 190 28 186 28 q 197 29 194 29 q 203 38 200 32 q 208 63 208 49 q 221 92 208 81 q 250 104 233 104 q 280 92 268 104 q 292 63 292 81 q 279 3 292 32 q 222 -50 257 -40 q 107 -12 142 -74 q 92 38 96 6 q 88 85 88 58 l 88 111 l 88 147 l 88 153 q 85 154 86 154 q 81 156 82 156 l 78 156 q 49 168 51 167 q 18 218 18 188 q 26 246 18 233 q 38 264 29 253 q 43 270 39 265 q 50 278 47 275 q 53 281 50 279 q 56 285 56 283 q 63 290 61 289 q 81 314 78 307 l 82 314 q 79 388 83 344 q 68 464 78 413 q 56 546 60 517 q 53 633 51 599 q 80 699 56 672 q 140 731 104 725 q 206 712 178 736 q 239 646 235 688 q 230 616 240 629 q 203 600 219 603 q 172 610 185 599 q 157 638 158 621 z "},"|":{"ha":265,"x_min":35,"x_max":119,"o":"m 118 722 q 119 306 121 578 l 119 249 q 118 4 118 125 q 106 -26 118 -14 q 76 -37 93 -37 q 47 -26 58 -37 q 35 4 35 -14 q 36 249 35 125 l 36 306 q 35 719 38 578 q 46 749 33 736 q 75 763 58 761 q 105 751 93 763 q 118 722 117 739 z "},"}":{"ha":407,"x_min":1,"x_max":258,"o":"m 19 671 q 72 719 39 704 q 139 726 104 733 q 197 694 172 719 q 229 631 222 668 q 233 532 238 592 q 215 444 225 486 l 213 433 q 194 344 197 363 q 203 342 197 344 q 217 336 206 340 l 228 331 q 243 322 239 326 q 258 304 251 317 q 254 263 268 281 q 228 226 250 257 q 225 222 225 224 q 222 218 222 219 q 188 149 188 174 q 194 117 188 142 q 194 113 194 115 l 196 110 q 204 61 204 81 q 182 0 204 24 q 94 -33 153 -33 q 14 -6 42 -33 q 1 24 1 7 q 14 54 1 42 q 42 65 25 65 q 71 54 60 65 l 72 54 q 76 53 75 53 q 94 50 82 50 q 113 53 108 50 q 121 57 119 56 l 121 61 q 115 88 121 69 q 114 94 115 90 q 107 119 108 111 q 104 149 104 139 q 122 218 104 186 q 156 269 132 236 l 157 271 q 136 285 143 278 q 111 339 110 307 q 132 454 115 386 q 133 459 132 456 q 135 464 133 463 q 150 542 146 510 q 147 614 154 585 q 121 644 143 639 q 92 628 103 650 q 67 608 83 613 q 35 614 50 604 q 15 639 19 622 q 19 671 11 656 z "},"~":{"ha":507,"x_min":26,"x_max":361,"o":"m 26 326 q 108 406 53 396 q 199 386 149 411 q 228 371 214 379 l 267 351 q 274 349 272 349 q 278 393 278 361 q 290 422 278 410 q 319 435 303 435 q 349 422 338 435 q 361 393 361 410 q 349 311 361 336 q 293 264 332 271 q 233 275 267 260 q 188 299 219 281 l 163 311 q 124 324 133 325 q 117 319 118 321 q 104 297 110 313 q 82 273 99 281 q 50 272 65 265 q 26 294 33 278 q 26 326 19 311 z "},"":{"ha":339,"x_min":97,"x_max":194,"o":"m 174 671 q 182 656 176 664 q 160 600 196 617 q 128 600 144 593 q 104 622 111 607 q 100 632 104 625 q 97 664 92 647 q 118 689 103 681 q 149 691 132 696 q 174 671 165 686 m 190 465 q 189 261 185 385 q 190 210 189 236 q 194 54 194 94 q 182 24 194 36 q 153 13 169 13 q 123 24 135 13 q 111 54 111 36 q 107 207 111 94 q 106 258 106 233 q 107 471 101 386 q 121 499 108 488 q 151 510 133 511 q 180 495 168 508 q 190 465 192 482 z "},"":{"ha":597,"x_min":67,"x_max":449,"o":"m 153 240 q 215 372 204 351 q 224 390 218 379 q 293 535 269 488 q 260 544 275 546 q 176 460 214 542 q 150 263 135 365 q 153 240 150 254 m 394 553 q 447 465 424 515 q 449 433 454 450 q 428 410 443 417 q 396 408 413 403 q 372 429 379 414 q 362 449 368 436 q 353 467 356 461 q 299 356 318 397 q 290 338 296 349 q 206 157 218 182 q 199 140 200 146 q 244 97 219 113 q 315 100 276 76 q 365 164 358 125 q 381 192 367 182 q 413 199 396 201 q 440 183 429 197 q 447 151 450 168 q 358 28 433 71 q 199 28 275 -22 q 160 58 171 47 q 151 43 157 53 q 144 29 146 33 q 120 8 138 14 q 89 11 103 3 q 68 35 74 18 q 71 67 63 51 q 84 95 74 72 q 103 135 94 118 q 67 251 75 189 q 101 494 49 381 q 256 628 160 624 q 331 610 294 631 q 347 643 339 628 q 372 663 356 658 q 404 660 389 668 q 424 635 419 651 q 421 604 429 618 q 394 553 413 589 z "},"":{"ha":724,"x_min":56,"x_max":579,"o":"m 496 643 q 428 711 492 683 q 317 726 361 739 q 250 678 276 715 q 222 592 224 642 q 225 513 221 560 q 235 447 233 457 q 319 440 288 443 l 350 438 q 496 431 428 431 q 525 418 513 431 q 538 389 538 406 q 525 359 538 371 q 496 347 513 347 q 342 354 424 347 q 313 357 340 354 q 277 360 299 358 q 246 364 256 363 q 251 310 249 343 q 247 208 254 246 q 189 74 238 138 q 333 79 246 74 q 349 81 339 81 q 364 82 358 82 q 533 90 499 90 q 563 78 551 90 q 575 49 575 65 q 563 19 575 31 q 533 7 551 7 q 369 -1 501 7 q 353 -2 364 -1 q 339 -4 343 -3 q 178 -10 240 -10 q 119 -7 135 -10 q 94 -1 103 -4 q 79 8 83 4 q 63 32 67 17 q 75 79 54 58 q 85 88 81 85 l 90 90 l 92 92 q 165 221 154 149 q 161 368 172 278 l 100 368 q 69 378 82 367 q 56 407 57 390 q 67 438 56 425 q 96 450 79 450 q 149 451 114 451 q 143 504 146 475 q 139 594 138 551 q 183 730 142 672 q 293 807 225 788 q 461 788 367 826 q 538 736 503 771 q 579 650 575 696 q 569 619 581 632 q 540 604 558 607 q 510 614 524 603 q 496 643 497 625 z "},"":{"ha":663,"x_min":75,"x_max":511,"o":"m 378 435 q 308 485 346 485 q 242 456 274 488 q 203 379 207 421 q 229 311 199 338 q 317 269 275 269 q 371 300 349 272 q 399 365 394 328 q 388 422 404 403 q 386 424 386 422 q 385 426 386 425 q 378 435 379 432 m 156 575 q 194 533 165 563 l 199 529 q 311 568 253 572 q 411 524 367 567 l 413 525 l 414 525 q 454 554 426 536 q 511 540 489 574 q 497 482 531 504 q 464 460 489 478 l 464 458 q 483 367 486 418 q 453 272 479 317 q 460 262 454 271 q 469 246 465 253 q 471 244 471 246 q 496 204 492 214 q 499 172 504 189 q 478 149 493 156 q 446 147 463 142 q 422 167 429 151 l 403 197 l 401 199 q 393 210 396 207 q 319 186 361 188 q 200 228 258 183 q 150 164 176 200 q 124 147 140 150 q 93 153 107 143 q 75 180 78 164 q 82 211 72 196 q 142 288 114 257 q 121 389 114 333 q 146 465 125 431 q 144 467 144 465 q 136 474 143 467 q 92 521 117 493 q 82 552 81 535 q 97 581 83 569 q 127 590 110 592 q 156 575 144 589 z "},"":{"ha":753,"x_min":135,"x_max":606,"o":"m 203 193 q 289 188 233 193 q 300 187 293 188 q 310 185 307 186 q 311 222 311 197 q 313 257 313 235 q 207 269 286 258 q 179 287 189 272 q 172 318 169 301 q 190 344 175 335 q 221 351 204 354 q 300 342 278 343 q 288 360 292 353 q 274 383 279 376 q 267 399 268 394 q 200 540 239 451 q 199 542 200 542 q 138 676 161 631 q 135 708 129 692 q 156 732 140 725 q 187 735 171 740 q 211 714 203 729 q 275 576 229 679 q 276 574 276 575 q 340 438 314 488 l 347 424 q 351 417 349 422 q 356 410 354 411 q 449 564 399 465 q 478 622 456 578 l 499 667 q 529 725 510 689 q 553 745 538 740 q 585 742 569 750 q 605 717 600 733 q 601 685 610 700 l 574 629 l 522 526 q 418 354 464 411 l 417 353 q 415 350 417 350 q 414 349 414 350 q 413 349 414 349 q 410 344 413 347 q 403 339 407 343 q 479 349 453 344 q 510 342 496 351 q 526 314 525 332 q 519 283 529 297 q 493 267 510 269 q 396 256 433 257 q 394 219 396 232 q 394 199 394 213 q 393 181 393 186 q 464 189 440 183 q 495 184 481 193 q 514 158 510 175 q 509 126 518 140 q 482 108 500 111 q 390 97 435 97 l 390 40 q 378 10 390 22 q 349 -1 367 -1 q 319 10 331 -1 q 307 40 307 22 l 307 101 q 294 103 303 103 q 282 104 286 104 q 200 110 228 110 q 170 124 182 111 q 160 153 158 136 q 172 183 160 171 q 203 193 185 194 z "},"":{"ha":313,"x_min":67,"x_max":168,"o":"m 161 272 q 168 50 168 190 q 156 21 168 33 q 126 8 143 8 q 97 21 108 8 q 85 50 85 33 q 78 267 85 186 q 88 297 76 283 q 117 311 100 310 q 147 301 135 313 q 161 272 160 290 m 153 718 q 150 599 150 654 q 157 507 150 551 q 150 476 160 490 q 124 458 140 461 q 92 466 107 456 q 75 493 78 476 q 67 597 67 539 q 67 626 67 611 q 69 669 68 642 q 69 721 69 696 q 83 750 71 739 q 113 761 96 761 q 142 747 131 760 q 153 718 154 735 z "},"":{"ha":514,"x_min":49,"x_max":360,"o":"m 258 239 q 285 268 278 254 q 283 283 286 275 q 253 315 278 294 q 194 357 236 331 l 192 360 q 158 382 178 368 q 138 353 144 365 q 131 329 128 338 q 185 283 135 313 q 221 263 218 264 q 258 239 251 244 m 260 574 q 182 596 229 621 q 143 511 132 567 q 161 486 147 500 q 193 472 179 486 q 203 453 201 461 q 217 442 206 451 q 238 428 229 433 q 240 426 240 428 q 306 381 288 396 q 357 321 344 349 q 360 233 381 278 q 321 183 347 206 q 354 86 354 142 q 300 8 354 31 q 235 -3 276 -1 q 138 17 185 -7 q 65 69 104 35 q 52 98 53 81 q 63 129 51 115 q 91 142 74 142 q 121 132 108 143 q 175 90 153 104 q 229 81 199 79 q 269 86 258 82 q 271 88 271 86 q 250 138 271 115 q 179 190 229 161 q 143 211 176 192 q 88 250 107 232 q 49 311 56 279 q 94 435 36 368 q 63 492 68 463 q 73 595 50 546 q 143 669 96 644 q 245 682 193 696 q 329 618 297 668 q 335 587 339 603 q 317 561 332 571 q 285 555 301 551 q 260 574 269 558 z "},"":{"ha":414,"x_min":39,"x_max":269,"o":"m 269 644 q 268 629 268 638 l 268 622 q 256 592 268 604 q 226 581 243 581 q 197 592 208 581 q 185 622 185 604 l 185 629 l 185 636 q 186 651 186 644 q 201 680 189 669 q 232 689 214 690 q 260 674 249 688 q 269 644 271 661 m 124 640 q 122 626 122 635 l 122 625 l 122 619 q 110 590 122 601 q 81 578 97 578 q 51 590 63 578 q 39 619 39 601 l 39 626 l 39 632 l 39 639 q 40 649 40 644 q 56 676 43 665 q 86 686 68 688 q 114 671 103 683 q 124 640 125 658 z "},"":{"ha":807,"x_min":17,"x_max":660,"o":"m 490 611 q 504 607 497 611 q 660 397 640 531 q 600 168 676 278 q 406 28 525 57 q 146 85 269 -7 q 17 301 28 171 q 79 521 6 419 q 268 649 153 622 q 490 611 383 675 m 388 400 q 325 404 354 421 q 282 349 293 386 q 290 300 274 317 q 324 286 303 290 q 399 288 354 279 q 429 280 415 290 q 446 253 443 269 q 438 221 447 235 q 411 204 428 207 q 233 240 290 188 q 203 372 181 292 q 285 476 224 443 q 433 469 358 519 q 452 444 449 460 q 446 413 456 428 q 419 394 436 399 q 388 400 401 390 m 469 525 q 288 568 381 589 q 147 472 201 549 q 100 310 92 397 q 194 151 108 214 q 385 108 286 85 q 532 215 475 131 q 576 385 589 299 q 489 518 565 467 q 469 525 475 521 z "},"":{"ha":447,"x_min":14,"x_max":303,"o":"m 28 654 q 157 713 97 717 q 253 647 215 707 q 303 435 303 563 q 272 394 303 401 q 251 372 265 378 q 107 346 167 329 q 56 375 76 353 q 33 426 36 397 q 85 522 26 485 q 206 542 132 553 q 182 603 197 579 q 150 629 167 626 q 85 593 128 632 q 55 583 72 582 q 25 596 38 583 q 15 626 14 608 q 28 654 15 643 m 204 457 q 128 451 157 468 q 117 435 114 442 q 118 431 117 432 q 128 426 121 428 q 215 446 157 418 l 217 447 q 219 449 219 447 q 218 457 218 451 l 204 457 z "},"":{"ha":801,"x_min":117,"x_max":657,"o":"m 353 514 q 327 490 344 506 q 301 465 310 474 l 293 458 q 208 375 229 399 q 211 374 210 374 q 243 347 213 372 q 253 339 244 346 l 263 333 q 273 324 267 329 q 282 317 279 319 q 336 272 313 294 q 383 218 365 244 q 387 187 392 204 q 368 161 382 169 q 337 156 353 151 q 311 175 321 160 q 279 211 303 190 q 232 251 264 226 q 222 259 228 254 q 211 267 215 264 q 192 282 204 274 q 157 310 167 300 q 128 338 133 331 q 117 361 121 350 q 125 401 113 385 q 179 465 151 438 q 236 519 183 469 l 240 522 q 244 526 244 525 q 293 574 274 553 q 323 585 306 585 q 353 574 340 585 q 364 544 364 561 q 353 514 364 526 m 633 511 q 561 444 589 469 q 535 422 558 442 q 508 399 513 403 l 482 372 q 506 351 494 360 q 561 310 518 342 q 602 278 576 297 q 640 247 628 258 q 656 219 654 236 q 647 188 658 201 q 619 173 636 175 q 589 182 603 171 q 510 243 561 206 q 454 286 506 246 q 415 322 426 307 q 396 375 396 349 q 417 424 396 399 q 453 461 428 438 q 506 507 494 496 q 575 571 539 535 q 605 582 588 582 q 635 569 622 582 q 646 540 646 557 q 633 511 646 522 z "},"":{"ha":897,"x_min":68,"x_max":753,"o":"m 107 536 q 697 533 272 546 q 725 521 715 531 q 736 507 732 515 q 740 498 738 504 q 743 489 742 492 q 747 454 744 478 q 751 361 749 444 l 751 272 l 751 244 l 751 236 l 753 235 q 743 204 754 218 q 715 189 732 190 q 685 197 699 186 q 669 226 671 208 q 668 272 668 232 l 668 360 q 664 446 668 414 l 664 450 q 111 453 264 463 q 82 463 94 451 q 68 492 69 474 q 78 522 67 508 q 107 536 89 535 z "},"":{"ha":807,"x_min":17,"x_max":660,"o":"m 490 611 q 504 607 497 611 q 660 397 640 531 q 600 168 676 278 q 406 28 525 57 q 146 85 269 -7 q 17 301 28 171 q 79 521 6 419 q 268 649 153 622 q 490 611 383 675 m 299 367 q 318 382 308 372 q 340 425 338 404 q 335 439 340 435 q 274 436 314 447 q 274 418 274 428 q 276 393 275 408 q 276 365 276 378 l 276 361 q 299 367 286 367 m 469 525 q 288 568 381 589 q 147 472 201 549 q 100 310 92 397 q 194 151 108 214 q 385 108 286 85 q 532 215 475 131 q 576 385 589 299 q 489 518 565 467 q 469 525 475 521 m 232 511 q 371 513 321 539 q 424 418 428 485 q 379 325 419 367 l 375 321 q 463 250 439 272 q 474 220 474 238 q 463 190 474 203 q 433 179 450 179 q 403 190 415 179 q 322 257 382 213 q 306 268 315 261 q 293 278 297 275 q 288 276 292 278 q 281 275 283 275 q 281 234 281 260 q 282 196 282 208 q 269 166 282 178 q 240 154 257 154 q 210 166 222 154 q 199 196 199 178 q 194 338 199 246 q 193 361 194 350 l 190 458 q 210 496 188 482 q 232 511 218 507 z "},"":{"ha":664,"x_min":26,"x_max":519,"o":"m 75 739 q 299 732 160 724 q 309 733 304 732 q 322 734 314 733 q 339 735 331 735 q 478 739 442 739 q 507 727 494 739 q 519 697 519 715 q 507 668 519 681 q 478 656 494 656 q 343 651 443 656 q 303 649 304 649 q 60 657 154 640 q 33 674 43 660 q 26 704 24 688 q 43 732 29 722 q 75 739 57 742 z "},"":{"ha":479,"x_min":72,"x_max":333,"o":"m 142 788 q 181 804 158 806 q 306 747 265 792 q 333 672 338 715 q 285 593 328 632 q 167 560 231 547 q 81 621 111 571 q 72 725 49 674 q 142 788 92 768 m 193 717 q 149 692 156 708 q 153 664 142 679 q 183 640 164 644 q 231 657 207 636 q 247 675 243 669 q 250 682 250 681 q 246 690 250 686 q 193 717 232 704 z "},"":{"ha":536,"x_min":79,"x_max":390,"o":"m 265 521 q 264 469 264 504 q 349 474 326 474 q 378 462 367 474 q 390 432 390 450 q 378 403 390 415 q 349 390 367 390 q 267 386 329 390 q 268 335 268 365 q 256 305 268 317 q 226 293 244 293 q 197 305 210 293 q 185 335 185 317 l 185 381 q 115 383 151 379 q 88 399 99 386 q 79 431 78 413 q 96 458 82 447 q 126 465 110 468 q 182 464 160 463 q 182 524 181 496 q 194 552 182 540 q 225 564 207 564 q 253 550 242 563 q 265 521 265 538 m 126 236 q 231 240 179 242 l 269 240 q 331 239 296 239 q 360 227 349 239 q 372 197 372 215 q 360 167 372 179 q 331 156 349 156 q 267 157 294 156 l 229 157 q 135 154 189 158 q 104 163 117 153 q 89 190 92 174 q 97 222 86 208 q 126 236 108 235 z "},"":{"ha":414,"x_min":7,"x_max":268,"o":"m 25 697 q 44 710 36 706 q 71 718 57 717 l 72 718 l 75 718 q 78 719 76 719 q 87 720 81 719 q 96 722 93 721 q 135 717 122 722 q 199 631 196 692 q 174 539 200 593 q 139 483 151 501 q 136 479 136 481 q 160 483 143 479 q 164 485 163 483 q 226 493 199 493 q 256 481 244 493 q 268 451 268 469 q 256 422 268 435 q 226 410 244 410 q 182 403 211 410 l 178 403 q 146 396 163 399 q 138 394 143 396 l 135 394 l 133 393 l 129 393 q 124 392 128 393 q 119 390 121 392 q 104 388 113 390 q 67 385 74 385 q 44 386 51 385 q 28 396 33 392 q 11 421 17 404 q 11 442 10 432 q 13 446 11 443 q 14 450 14 449 q 21 461 17 456 q 26 471 22 464 q 33 482 31 478 q 51 504 43 492 q 61 517 54 508 q 71 531 68 526 q 85 553 75 536 q 100 578 96 569 q 115 628 117 613 q 114 633 115 632 q 106 639 114 635 l 103 639 q 98 638 101 639 q 92 638 94 638 q 89 636 90 636 l 86 636 l 82 635 l 81 635 l 78 633 q 71 628 76 632 q 40 622 57 618 q 13 640 22 626 q 7 671 3 654 q 25 697 11 688 z "},"":{"ha":386,"x_min":13,"x_max":242,"o":"m 36 736 q 144 739 104 763 q 178 701 167 726 q 183 657 186 682 q 174 613 183 636 q 178 611 175 611 q 182 610 181 611 q 192 607 189 607 l 194 606 l 197 606 q 235 575 224 600 q 242 546 239 565 l 242 533 l 242 529 q 221 465 242 496 q 176 426 201 442 q 82 393 133 403 q 51 398 65 389 q 32 425 36 407 q 38 456 29 442 q 65 474 47 471 q 133 499 107 482 q 158 529 158 514 l 158 531 q 151 532 153 531 q 135 533 144 533 q 101 522 118 531 q 64 525 82 514 q 44 546 50 532 q 44 577 38 561 q 65 600 50 593 q 88 624 75 606 q 100 663 100 646 l 100 667 l 97 667 q 67 658 86 667 q 34 658 50 651 q 13 682 18 665 q 13 714 6 697 q 36 736 19 731 z "},"":{"ha":351,"x_min":63,"x_max":204,"o":"m 204 788 q 139 632 175 686 q 113 615 129 618 q 81 621 96 611 q 63 648 67 631 q 69 679 60 665 q 125 811 99 721 q 144 836 129 828 q 176 839 160 844 q 201 819 193 835 q 204 788 210 804 z "},"":{"ha":556,"x_min":-7,"x_max":411,"o":"m 411 510 q 383 324 401 421 q 378 290 383 313 q 363 193 368 232 q 347 165 361 175 q 315 157 333 154 q 292 169 301 160 q 207 156 256 156 q 121 178 157 158 l 117 165 l 108 132 q 88 57 99 99 q 74 3 76 15 q 55 -23 69 -14 q 24 -28 40 -32 q -2 -8 7 -24 q -7 24 -11 7 l 36 186 q 54 256 43 211 q 64 297 46 279 q 101 511 96 432 q 116 540 103 529 q 146 550 129 551 q 175 535 164 549 q 185 506 186 522 q 143 265 179 414 q 210 239 163 242 q 263 247 239 239 q 279 256 272 251 q 283 258 282 258 l 285 260 q 290 268 288 265 q 292 284 290 272 q 296 304 294 296 q 299 321 297 307 q 301 338 300 335 q 328 518 318 440 q 343 547 329 536 q 374 556 357 558 q 402 540 392 554 q 411 510 413 526 z "},"":{"ha":688,"x_min":49,"x_max":542,"o":"m 281 260 q 94 351 154 282 q 49 493 40 413 q 157 650 58 604 q 339 681 224 679 l 404 681 q 497 681 469 679 q 527 671 514 682 q 542 643 540 660 q 521 603 544 617 q 526 393 524 532 l 526 149 l 526 38 q 515 8 526 21 q 485 -4 503 -4 q 455 8 467 -4 q 443 38 443 21 l 443 149 l 443 393 q 438 596 440 528 q 403 597 417 596 l 360 597 q 361 363 358 536 q 364 289 361 356 q 368 38 368 111 q 356 8 368 19 q 326 -4 343 -4 q 297 8 308 -4 q 285 38 285 19 q 281 260 285 160 z "},"":{"ha":319,"x_min":49,"x_max":172,"o":"m 169 385 q 172 347 176 367 q 147 317 165 326 q 115 308 135 308 q 64 328 83 306 q 49 382 42 351 q 83 424 56 411 q 139 426 107 436 q 162 412 153 424 q 169 385 171 400 z "},"":{"ha":499,"x_min":67,"x_max":354,"o":"m 246 -72 q 324 -114 293 -79 q 354 -194 354 -149 q 317 -278 354 -243 q 215 -314 278 -310 q 88 -286 147 -317 q 67 -262 72 -279 q 69 -231 61 -246 q 93 -210 76 -215 q 125 -211 110 -204 q 211 -231 160 -231 q 261 -215 246 -229 q 271 -194 271 -207 q 235 -154 271 -161 l 231 -154 l 228 -156 q 224 -156 225 -156 l 215 -156 q 206 -157 211 -157 q 176 -158 194 -158 q 167 -158 174 -158 q 158 -156 161 -157 q 144 -149 153 -154 q 128 -129 135 -143 q 132 -87 117 -107 l 132 -86 l 135 -83 q 139 -78 136 -81 q 143 -72 142 -75 q 168 -37 151 -60 q 169 -36 168 -36 q 169 -35 169 -36 q 182 -17 175 -28 q 192 -4 189 -7 q 196 2 193 -1 q 199 7 199 6 l 200 10 q 223 31 207 25 q 254 32 239 38 q 276 10 269 26 q 276 -22 283 -7 q 246 -72 274 -32 z "},"":{"ha":340,"x_min":25,"x_max":194,"o":"m 39 656 q 78 678 46 663 l 79 678 l 81 678 q 101 689 99 686 q 107 710 106 693 q 120 738 108 726 q 149 749 132 749 l 150 749 q 178 735 167 747 q 190 707 190 724 l 190 706 q 192 538 188 678 l 192 518 q 194 399 194 464 q 183 369 194 382 q 153 357 171 357 q 124 369 136 357 q 111 399 111 382 q 108 517 111 463 l 108 535 q 108 569 108 549 q 107 599 107 590 q 92 590 97 594 q 60 581 78 579 q 33 597 43 583 q 25 628 24 611 q 39 656 26 644 z "},"":{"ha":429,"x_min":42,"x_max":283,"o":"m 151 579 q 133 561 142 574 q 125 514 121 539 q 140 471 128 486 q 158 464 147 461 q 192 486 182 468 q 200 531 203 506 q 183 571 197 557 q 164 579 175 581 q 151 579 158 578 m 179 661 q 246 626 219 657 q 283 540 276 593 q 265 444 288 488 q 175 382 235 394 q 76 417 117 369 q 42 507 46 454 q 63 604 38 563 q 156 665 96 657 q 179 661 168 668 z "},"":{"ha":747,"x_min":119,"x_max":601,"o":"m 181 565 q 276 506 226 542 q 364 411 349 453 q 367 382 369 399 q 360 364 364 374 q 340 333 356 353 q 286 276 325 313 q 176 192 211 207 q 144 191 161 185 q 121 214 128 197 q 120 245 114 229 q 143 268 126 261 l 144 269 q 148 272 146 271 q 153 275 150 274 q 175 290 158 279 q 229 338 217 325 q 275 386 263 369 q 279 392 279 389 q 274 397 278 393 q 268 404 271 401 q 226 439 254 418 q 143 490 182 472 q 122 515 128 499 q 125 547 117 532 q 149 567 132 563 q 181 565 165 572 m 453 581 l 481 554 l 506 529 q 550 483 538 497 q 601 385 597 429 q 561 282 606 331 q 436 188 522 239 q 378 201 400 168 q 374 233 369 217 q 393 260 378 250 q 499 338 467 304 q 518 376 521 361 q 488 429 515 397 q 447 469 474 446 q 422 493 433 483 l 396 519 q 383 549 383 532 q 394 579 382 567 q 423 592 406 592 q 453 581 440 592 z "},"":{"ha":731,"x_min":43,"x_max":585,"o":"m 56 535 q 43 565 43 547 q 56 593 43 582 q 57 596 56 594 l 63 607 l 64 611 q 82 643 74 633 q 146 657 110 674 q 169 632 163 650 l 174 619 q 176 608 175 617 q 176 596 176 600 q 181 532 178 575 q 183 399 183 490 q 172 369 183 382 q 142 357 160 357 q 113 369 125 357 q 100 399 100 382 q 97 525 100 483 q 56 535 75 515 m 472 607 q 406 483 461 575 q 297 306 357 400 l 294 303 q 193 139 256 240 q 129 26 149 67 q 105 6 121 11 q 74 8 89 1 q 53 32 58 15 q 54 64 47 49 q 122 182 74 104 q 155 235 125 188 q 224 346 185 282 q 226 350 225 349 q 335 526 324 507 q 394 636 381 603 q 417 658 401 651 q 449 660 432 665 q 471 638 464 653 q 472 607 478 622 m 585 388 q 583 303 585 346 q 581 221 581 222 q 585 50 579 124 q 576 19 588 33 q 547 4 565 6 q 517 14 531 3 q 503 42 504 25 q 497 161 497 92 q 492 160 494 161 q 486 160 489 160 q 382 158 417 154 q 344 169 364 160 q 318 215 318 189 q 329 251 318 232 q 346 276 340 269 q 365 303 360 297 q 376 319 369 308 q 386 333 383 329 q 418 393 408 371 q 440 416 424 410 q 472 415 457 422 q 494 393 488 408 q 494 361 501 378 q 456 289 479 324 q 432 254 442 267 q 422 240 431 251 q 481 243 433 240 q 497 240 486 243 q 499 272 499 250 q 500 306 500 294 q 501 389 501 349 q 515 419 503 407 q 544 429 528 431 q 574 417 563 429 q 585 388 586 404 z "},"":{"ha":699,"x_min":43,"x_max":553,"o":"m 56 535 q 43 565 43 547 q 56 593 43 582 q 57 596 56 594 l 63 607 l 64 611 q 82 643 74 633 q 146 657 110 674 q 169 632 163 650 l 174 619 q 176 608 175 617 q 176 596 176 600 q 181 532 178 575 q 183 399 183 490 q 172 369 183 382 q 142 357 160 357 q 113 369 125 357 q 100 399 100 382 q 97 525 100 483 q 56 535 75 515 m 472 607 q 406 483 461 575 q 297 306 357 400 l 294 303 q 193 139 256 240 q 129 26 149 67 q 105 6 121 11 q 74 8 89 1 q 53 32 58 15 q 54 64 47 49 q 122 182 74 104 q 155 235 125 188 q 224 346 185 282 q 226 350 225 349 q 335 526 324 507 q 394 636 381 603 q 417 658 401 651 q 449 660 432 665 q 471 638 464 653 q 472 607 478 622 m 351 324 q 401 347 379 340 q 475 343 442 360 q 536 263 529 317 q 517 175 540 219 q 461 94 499 133 l 464 94 q 511 99 486 99 q 541 86 529 99 q 553 57 553 74 q 541 27 553 39 q 511 15 529 15 q 476 13 499 15 q 442 8 447 8 q 397 4 419 4 l 383 4 q 372 3 379 3 q 328 7 346 1 q 301 63 288 24 q 315 83 306 75 q 338 103 328 96 q 341 104 339 103 q 344 107 343 106 q 353 113 347 108 q 363 119 358 117 l 364 119 l 365 121 l 368 122 q 371 124 369 124 q 443 211 415 157 q 453 251 456 235 q 438 269 453 261 l 436 269 q 431 269 435 269 q 425 268 428 268 q 397 254 417 265 q 367 247 383 244 q 340 265 350 250 q 351 324 318 300 z "},"":{"ha":700,"x_min":28,"x_max":556,"o":"m 472 607 q 406 483 461 575 q 297 306 357 400 l 294 303 q 193 139 256 240 q 129 26 149 67 q 105 6 121 11 q 74 8 89 1 q 53 32 58 15 q 54 64 47 49 q 122 182 74 104 q 155 235 125 188 q 224 346 185 282 q 226 350 225 349 q 335 526 324 507 q 394 636 381 603 q 417 658 401 651 q 449 660 432 665 q 471 638 464 653 q 472 607 478 622 m 33 627 q 38 634 33 627 q 58 647 42 642 q 92 656 75 653 q 135 649 113 657 q 193 614 175 633 q 213 553 221 586 q 186 508 207 529 q 178 501 183 507 q 193 494 181 500 q 231 439 226 476 q 175 331 240 372 q 49 321 110 290 q 28 344 33 328 q 31 376 22 361 q 54 397 38 392 q 86 394 71 403 q 129 400 103 386 q 149 424 149 411 q 133 428 144 425 q 113 429 125 428 q 100 430 108 429 q 88 432 92 431 q 69 439 79 433 q 47 468 53 449 q 56 510 42 489 q 72 529 63 521 q 81 535 75 531 q 90 542 86 539 q 99 547 92 542 q 107 553 106 553 q 122 564 118 561 q 104 572 111 569 l 99 572 q 83 568 92 572 q 51 571 67 563 q 31 596 36 579 q 33 627 25 613 m 556 349 q 550 194 549 285 q 551 142 550 169 q 553 44 553 96 q 541 15 553 26 q 511 3 529 3 q 482 15 494 3 q 469 44 469 26 q 468 140 469 93 l 468 144 l 371 142 q 333 146 347 142 q 296 197 293 157 q 308 233 296 211 q 317 249 310 235 q 326 265 324 263 q 376 379 354 315 q 397 403 382 396 q 429 406 413 411 q 453 385 444 400 q 456 353 461 369 q 400 226 433 290 q 431 227 408 226 q 467 228 454 228 q 472 358 465 286 q 488 386 474 375 q 518 396 501 397 q 547 381 536 394 q 556 349 557 367 z "},"":{"ha":475,"x_min":56,"x_max":331,"o":"m 265 632 l 265 631 q 268 599 274 615 q 247 575 263 582 q 215 572 232 567 q 190 593 199 578 q 183 617 185 611 q 190 648 181 633 q 217 665 199 663 q 248 659 233 668 q 265 632 263 650 m 279 426 q 138 171 157 268 q 138 111 129 132 q 153 88 142 97 q 210 90 175 72 q 247 153 247 110 q 259 182 247 169 q 289 194 271 194 q 318 182 306 194 q 331 153 331 169 q 250 17 331 60 q 106 19 169 -26 q 56 188 32 69 q 214 478 82 308 q 242 494 225 492 q 272 486 258 496 q 279 426 303 460 z "},"":{"ha":544,"x_min":31,"x_max":399,"o":"m 126 326 q 282 333 189 325 q 280 353 282 339 q 276 374 278 367 q 217 675 249 592 q 204 700 211 692 q 189 675 196 689 q 129 360 161 617 q 126 326 126 338 m 44 13 q 31 160 26 54 q 47 369 33 254 q 115 713 79 639 q 154 769 133 749 q 217 790 183 796 q 267 757 244 786 q 293 706 285 732 q 360 385 329 614 q 363 356 361 375 q 365 329 365 338 q 379 303 379 318 q 372 274 382 285 q 385 149 381 203 q 399 22 396 44 q 394 -9 403 6 q 367 -28 385 -24 q 335 -22 350 -32 q 318 4 321 -12 q 301 140 314 17 q 290 250 290 246 q 118 243 192 239 q 114 158 114 197 q 121 47 111 68 q 122 15 128 32 q 100 -8 115 -1 q 68 -9 85 -15 q 44 13 51 -3 m 171 901 q 164 906 165 906 q 110 946 126 931 q 97 974 97 957 q 107 1004 96 992 q 129 1012 114 1011 q 156 1010 144 1013 l 167 1007 q 208 976 175 999 l 215 972 q 274 929 258 944 q 286 899 286 917 q 274 869 286 882 q 244 858 261 858 q 214 869 226 858 q 171 901 203 883 z "},"":{"ha":544,"x_min":31,"x_max":399,"o":"m 126 326 q 282 333 189 325 q 280 353 282 339 q 276 374 278 367 q 217 675 249 592 q 204 700 211 692 q 189 675 196 689 q 129 360 161 617 q 126 326 126 338 m 44 13 q 31 160 26 54 q 47 369 33 254 q 115 713 79 639 q 154 769 133 749 q 217 790 183 796 q 267 757 244 786 q 293 706 285 732 q 360 385 329 614 q 363 356 361 375 q 365 329 365 338 q 379 303 379 318 q 372 274 382 285 q 385 149 381 203 q 399 22 396 44 q 394 -9 403 6 q 367 -28 385 -24 q 335 -22 350 -32 q 318 4 321 -12 q 301 140 314 17 q 290 250 290 246 q 118 243 192 239 q 114 158 114 197 q 121 47 111 68 q 122 15 128 32 q 100 -8 115 -1 q 68 -9 85 -15 q 44 13 51 -3 m 243 938 q 222 913 235 925 q 197 883 214 900 q 157 861 181 868 q 125 864 140 856 q 106 889 110 872 q 108 921 100 906 q 133 940 117 936 l 142 946 q 158 964 151 956 q 178 990 161 968 q 236 996 204 1021 q 252 968 250 985 q 243 938 254 951 z "},"":{"ha":544,"x_min":31,"x_max":399,"o":"m 126 326 q 282 333 189 325 q 280 353 282 339 q 276 374 278 367 q 217 675 249 592 q 204 700 211 692 q 189 675 196 689 q 129 360 161 617 q 126 326 126 338 m 44 13 q 31 160 26 54 q 47 369 33 254 q 115 713 79 639 q 154 769 133 749 q 217 790 183 796 q 267 757 244 786 q 293 706 285 732 q 360 385 329 614 q 363 356 361 375 q 365 329 365 338 q 379 303 379 318 q 372 274 382 285 q 385 149 381 203 q 399 22 396 44 q 394 -9 403 6 q 367 -28 385 -24 q 335 -22 350 -32 q 318 4 321 -12 q 301 140 314 17 q 290 250 290 246 q 118 243 192 239 q 114 158 114 197 q 121 47 111 68 q 122 15 128 32 q 100 -8 115 -1 q 68 -9 85 -15 q 44 13 51 -3 m 78 885 q 136 969 119 947 q 163 997 154 990 q 203 1017 182 1013 q 274 986 242 1021 q 324 915 294 965 q 329 883 333 900 q 310 858 325 867 q 278 853 294 849 q 253 872 261 857 q 213 929 225 917 q 201 917 208 926 q 147 839 185 896 q 120 822 138 825 q 89 828 103 818 q 72 854 75 838 q 78 885 68 871 z "},"":{"ha":544,"x_min":31,"x_max":399,"o":"m 126 326 q 282 333 189 325 q 280 353 282 339 q 276 374 278 367 q 217 675 249 592 q 204 700 211 692 q 189 675 196 689 q 129 360 161 617 q 126 326 126 338 m 44 13 q 31 160 26 54 q 47 369 33 254 q 115 713 79 639 q 154 769 133 749 q 217 790 183 796 q 267 757 244 786 q 293 706 285 732 q 360 385 329 614 q 363 356 361 375 q 365 329 365 338 q 379 303 379 318 q 372 274 382 285 q 385 149 381 203 q 399 22 396 44 q 394 -9 403 6 q 367 -28 385 -24 q 335 -22 350 -32 q 318 4 321 -12 q 301 140 314 17 q 290 250 290 246 q 118 243 192 239 q 114 158 114 197 q 121 47 111 68 q 122 15 128 32 q 100 -8 115 -1 q 68 -9 85 -15 q 44 13 51 -3 m 38 885 q 94 969 53 949 q 176 969 128 988 q 222 944 189 965 q 240 932 232 938 q 246 964 246 954 q 258 993 246 981 q 288 1006 269 1006 q 317 993 304 1006 q 329 964 329 981 q 318 903 329 933 q 300 869 308 882 q 260 842 282 847 q 226 844 243 838 q 208 854 211 853 q 192 864 206 856 q 183 869 186 869 q 179 872 182 871 l 176 875 q 144 892 154 889 q 138 894 142 893 q 133 896 135 896 l 132 896 q 131 894 132 894 q 128 890 131 893 q 118 864 122 883 q 98 838 113 847 q 67 835 83 829 q 41 853 50 839 q 38 885 32 868 z "},"":{"ha":544,"x_min":31,"x_max":399,"o":"m 126 326 q 282 333 189 325 q 280 353 282 339 q 276 374 278 367 q 217 675 249 592 q 204 700 211 692 q 189 675 196 689 q 129 360 161 617 q 126 326 126 338 m 44 13 q 31 160 26 54 q 47 369 33 254 q 115 713 79 639 q 154 769 133 749 q 217 790 183 796 q 267 757 244 786 q 293 706 285 732 q 360 385 329 614 q 363 356 361 375 q 365 329 365 338 q 379 303 379 318 q 372 274 382 285 q 385 149 381 203 q 399 22 396 44 q 394 -9 403 6 q 367 -28 385 -24 q 335 -22 350 -32 q 318 4 321 -12 q 301 140 314 17 q 290 250 290 246 q 118 243 192 239 q 114 158 114 197 q 121 47 111 68 q 122 15 128 32 q 100 -8 115 -1 q 68 -9 85 -15 q 44 13 51 -3 m 139 940 q 142 934 140 938 q 144 928 143 931 q 144 925 144 926 l 146 922 q 151 914 149 919 q 155 883 160 899 q 135 858 150 867 q 103 854 119 850 q 78 874 86 858 l 74 882 q 71 885 72 883 q 69 889 69 888 l 63 907 q 62 939 56 922 q 85 963 68 956 q 116 962 100 968 q 139 940 132 956 m 299 956 l 306 939 l 306 938 q 307 935 307 936 l 308 931 q 310 926 310 928 q 310 894 317 911 q 288 872 303 878 q 256 874 271 867 q 233 896 240 881 q 232 900 233 897 q 229 904 231 903 q 228 907 229 906 q 221 924 225 917 q 222 955 215 939 q 244 978 229 971 q 276 978 260 985 q 299 956 293 971 z "},"":{"ha":547,"x_min":32,"x_max":400,"o":"m 206 667 q 192 642 201 661 q 132 326 161 585 l 132 325 q 279 333 197 325 q 278 340 279 338 q 218 642 249 560 q 206 667 210 661 m 186 833 q 181 817 178 828 q 203 801 185 799 q 221 809 215 803 q 225 822 226 815 q 221 831 225 828 q 197 833 214 838 l 186 833 m 47 -21 q 32 126 29 14 q 49 336 35 221 q 117 679 81 606 q 150 731 132 711 q 100 797 111 753 q 110 870 90 836 q 171 918 129 904 q 200 918 186 925 q 269 899 239 919 q 308 832 304 875 q 260 735 315 765 q 264 729 261 733 q 268 724 267 725 q 296 672 285 700 q 361 350 331 579 q 364 331 361 344 q 379 303 376 319 q 371 271 383 286 q 378 203 372 256 q 386 115 383 151 q 400 -11 397 11 q 395 -44 404 -29 q 369 -61 386 -58 q 337 -56 351 -65 q 319 -29 322 -47 q 304 107 315 -14 q 296 186 301 139 q 289 250 290 233 q 122 243 192 242 q 115 124 118 203 q 122 14 113 35 q 123 -18 129 -1 q 101 -42 117 -35 q 70 -42 86 -49 q 47 -21 54 -36 z "},"":{"ha":756,"x_min":38,"x_max":611,"o":"m 288 675 l 285 672 q 281 669 282 671 q 242 628 265 658 q 201 525 226 606 q 153 338 172 429 q 150 325 150 329 q 322 338 226 325 l 322 363 q 299 651 325 576 q 288 675 292 671 m 317 764 q 406 764 354 760 q 415 765 410 764 q 428 766 419 765 q 443 767 436 767 q 532 771 510 771 q 562 758 550 771 q 574 729 574 746 q 562 699 574 711 q 532 688 550 688 q 449 683 514 688 l 410 681 q 378 679 399 679 l 378 678 q 404 492 397 615 q 538 501 474 492 q 569 494 556 504 q 585 465 583 483 q 577 435 588 449 q 550 418 567 421 q 406 408 482 408 l 406 363 q 401 194 406 299 q 401 165 401 192 q 400 131 400 138 q 399 76 399 108 q 397 72 399 75 l 397 69 q 471 68 425 65 q 500 69 479 69 q 569 72 533 72 q 599 60 588 72 q 611 31 611 49 q 599 1 611 14 q 569 -11 588 -11 q 504 -14 538 -11 q 475 -15 483 -14 q 390 -14 422 -18 q 367 -28 381 -26 q 335 -22 350 -32 q 318 4 321 -12 q 315 78 314 21 q 317 133 315 110 q 317 167 317 140 q 318 197 318 194 q 319 226 318 207 q 321 253 319 244 q 133 242 210 242 q 121 149 125 194 q 117 79 117 108 q 117 67 117 75 q 118 57 118 60 q 119 51 118 56 q 121 47 119 49 q 122 15 128 32 q 100 -8 115 -1 q 68 -9 85 -15 q 44 13 51 -3 q 38 158 26 54 q 71 356 44 233 q 175 678 125 611 q 290 760 238 760 l 293 760 q 317 764 307 765 z "},"":{"ha":535,"x_min":22,"x_max":389,"o":"m 265 643 q 235 678 256 663 q 196 696 214 694 q 138 656 160 697 q 106 511 111 604 q 110 331 100 439 q 131 193 119 239 q 183 96 150 118 q 228 96 203 81 q 283 158 258 110 q 306 267 310 210 q 316 297 304 283 q 346 310 328 310 q 375 300 363 311 q 389 271 388 289 q 358 122 393 192 q 267 22 324 51 q 189 7 228 1 l 179 -3 q 206 -12 185 -6 l 208 -14 q 211 -15 210 -14 q 290 -83 272 -36 q 286 -146 301 -118 q 239 -194 275 -172 q 154 -211 197 -221 q 126 -206 138 -208 l 121 -203 q 96 -196 107 -199 q 69 -179 78 -193 q 63 -147 60 -165 q 79 -121 65 -131 q 111 -114 93 -111 q 144 -124 140 -122 q 147 -125 146 -124 l 150 -125 q 161 -128 154 -126 q 169 -131 168 -131 q 194 -125 181 -132 q 201 -119 197 -124 q 208 -114 206 -115 l 211 -111 l 211 -110 l 206 -104 q 183 -93 197 -97 q 181 -92 182 -93 l 178 -92 q 139 -75 158 -85 q 100 -43 111 -61 q 97 22 81 -11 q 113 47 101 33 q 50 172 72 88 q 26 322 36 228 q 22 517 17 439 q 64 693 31 631 q 201 779 110 785 q 281 748 242 776 q 340 681 321 719 q 342 649 347 665 q 321 625 336 632 q 290 623 306 618 q 265 643 274 628 z "},"":{"ha":460,"x_min":33,"x_max":314,"o":"m 82 781 q 178 775 118 774 l 211 775 q 265 776 239 776 q 295 765 283 776 q 307 735 307 753 q 295 706 307 718 q 265 693 283 693 q 214 692 240 693 l 179 692 l 121 692 q 122 431 118 568 q 135 432 126 432 q 174 433 146 433 q 201 435 193 433 q 217 436 211 435 q 247 427 233 438 q 263 400 260 417 q 255 368 265 382 q 226 353 244 354 q 206 351 219 351 q 174 350 197 350 q 124 347 149 350 q 124 336 124 344 q 125 322 125 328 q 129 82 129 147 q 185 86 153 82 q 208 88 190 86 q 244 90 226 89 q 269 93 267 93 q 299 83 286 94 q 314 56 313 72 q 304 26 315 39 q 276 10 293 13 q 266 9 274 10 q 253 8 258 8 q 192 3 243 7 q 82 -3 136 -3 q 53 10 65 -3 q 40 39 40 22 q 46 58 40 47 q 42 321 46 125 l 39 399 q 39 718 35 588 q 33 746 31 729 q 51 773 36 763 q 82 781 65 783 m 136 986 q 204 911 176 929 q 222 884 218 901 q 217 853 226 867 q 191 834 207 838 q 160 840 175 831 q 106 888 132 857 q 68 939 90 904 q 61 970 58 954 q 79 997 64 986 q 110 1003 93 1007 q 136 986 126 1000 z "},"":{"ha":460,"x_min":33,"x_max":314,"o":"m 82 781 q 178 775 118 774 l 211 775 q 265 776 239 776 q 295 765 283 776 q 307 735 307 753 q 295 706 307 718 q 265 693 283 693 q 214 692 240 693 l 179 692 l 121 692 q 122 431 118 568 q 135 432 126 432 q 174 433 146 433 q 201 435 193 433 q 217 436 211 435 q 247 427 233 438 q 263 400 260 417 q 255 368 265 382 q 226 353 244 354 q 206 351 219 351 q 174 350 197 350 q 124 347 149 350 q 124 336 124 344 q 125 322 125 328 q 129 82 129 147 q 185 86 153 82 q 208 88 190 86 q 244 90 226 89 q 269 93 267 93 q 299 83 286 94 q 314 56 313 72 q 304 26 315 39 q 276 10 293 13 q 266 9 274 10 q 253 8 258 8 q 192 3 243 7 q 82 -3 136 -3 q 53 10 65 -3 q 40 39 40 22 q 46 58 40 47 q 42 321 46 125 l 39 399 q 39 718 35 588 q 33 746 31 729 q 51 773 36 763 q 82 781 65 783 m 229 951 q 211 924 221 940 q 210 922 211 922 l 208 919 l 206 917 q 185 883 199 903 q 154 849 171 863 q 123 838 140 838 q 96 853 106 839 q 85 883 85 865 q 99 911 86 900 q 135 958 114 924 q 136 963 136 961 q 138 964 136 964 l 139 967 q 163 1001 150 986 q 190 1018 172 1015 q 221 1010 207 1021 q 237 982 235 999 q 229 951 239 965 z "},"":{"ha":460,"x_min":33,"x_max":314,"o":"m 82 781 q 178 775 118 774 l 211 775 q 265 776 239 776 q 295 765 283 776 q 307 735 307 753 q 295 706 307 718 q 265 693 283 693 q 214 692 240 693 l 179 692 l 121 692 q 122 431 118 568 q 135 432 126 432 q 174 433 146 433 q 201 435 193 433 q 217 436 211 435 q 247 427 233 438 q 263 400 260 417 q 255 368 265 382 q 226 353 244 354 q 206 351 219 351 q 174 350 197 350 q 124 347 149 350 q 124 336 124 344 q 125 322 125 328 q 129 82 129 147 q 185 86 153 82 q 208 88 190 86 q 244 90 226 89 q 269 93 267 93 q 299 83 286 94 q 314 56 313 72 q 304 26 315 39 q 276 10 293 13 q 266 9 274 10 q 253 8 258 8 q 192 3 243 7 q 82 -3 136 -3 q 53 10 65 -3 q 40 39 40 22 q 46 58 40 47 q 42 321 46 125 l 39 399 q 39 718 35 588 q 33 746 31 729 q 51 773 36 763 q 82 781 65 783 m 54 919 q 110 992 93 975 q 142 1015 125 1008 q 192 1014 168 1026 q 235 967 215 1003 q 271 893 249 942 q 272 861 278 878 q 251 838 267 844 q 219 837 236 831 q 196 858 203 843 q 163 925 169 914 l 163 926 q 153 915 158 922 q 140 897 149 908 q 122 872 132 885 q 64 861 99 839 q 47 888 50 871 q 54 919 44 906 z "},"":{"ha":460,"x_min":33,"x_max":314,"o":"m 82 781 q 178 775 118 774 l 211 775 q 265 776 239 776 q 295 765 283 776 q 307 735 307 753 q 295 706 307 718 q 265 693 283 693 q 214 692 240 693 l 179 692 l 121 692 q 122 431 118 568 q 135 432 126 432 q 174 433 146 433 q 201 435 193 433 q 217 436 211 435 q 247 427 233 438 q 263 400 260 417 q 255 368 265 382 q 226 353 244 354 q 206 351 219 351 q 174 350 197 350 q 124 347 149 350 q 124 336 124 344 q 125 322 125 328 q 129 82 129 147 q 185 86 153 82 q 208 88 190 86 q 244 90 226 89 q 269 93 267 93 q 299 83 286 94 q 314 56 313 72 q 304 26 315 39 q 276 10 293 13 q 266 9 274 10 q 253 8 258 8 q 192 3 243 7 q 82 -3 136 -3 q 53 10 65 -3 q 40 39 40 22 q 46 58 40 47 q 42 321 46 125 l 39 399 q 39 718 35 588 q 33 746 31 729 q 51 773 36 763 q 82 781 65 783 m 46 900 q 61 921 50 904 q 75 939 63 921 q 99 971 90 961 q 125 996 114 989 q 171 1008 146 1011 q 206 992 190 1004 q 228 965 218 982 q 267 890 238 950 q 268 858 274 875 q 246 835 263 842 q 215 834 231 828 q 192 856 199 840 q 161 915 168 903 q 142 890 150 901 q 129 871 129 872 q 114 850 118 857 q 86 834 103 836 q 56 842 69 832 q 39 869 42 851 q 46 900 36 886 z "},"":{"ha":306,"x_min":18,"x_max":160,"o":"m 128 736 q 121 354 121 594 l 121 183 l 121 32 q 109 2 121 14 q 79 -10 97 -10 q 50 2 63 -10 q 38 32 38 14 l 38 183 l 38 354 q 44 740 38 596 q 58 769 46 757 q 89 779 71 781 q 117 765 106 778 q 128 736 129 753 m 85 981 q 149 908 107 950 q 160 878 160 896 q 149 849 160 861 q 119 838 136 838 q 89 849 101 838 q 18 931 51 886 q 26 989 -6 964 q 58 997 40 1000 q 85 981 75 994 z "},"":{"ha":283,"x_min":7,"x_max":135,"o":"m 128 736 q 121 354 121 594 l 121 183 l 121 32 q 109 2 121 14 q 79 -10 97 -10 q 50 2 63 -10 q 38 32 38 14 l 38 183 l 38 354 q 44 740 38 596 q 58 769 46 757 q 89 779 71 781 q 117 765 106 778 q 128 736 129 753 m 135 967 q 103 911 122 938 l 100 907 q 96 901 97 903 q 93 897 94 900 q 90 893 92 894 l 82 881 q 57 861 74 865 q 25 867 40 857 q 7 892 11 875 q 11 924 3 910 q 21 939 19 936 q 24 944 22 940 q 28 949 26 947 q 31 954 28 950 q 35 958 33 958 q 57 999 53 986 q 80 1021 64 1014 q 111 1021 96 1028 q 135 999 128 1015 q 135 967 142 983 z "},"":{"ha":343,"x_min":-29,"x_max":197,"o":"m 128 736 q 121 354 121 594 l 121 183 l 121 32 q 109 2 121 14 q 79 -10 97 -10 q 50 2 63 -10 q 38 32 38 14 l 38 183 l 38 354 q 44 740 38 596 q 58 769 46 757 q 89 779 71 781 q 117 765 106 778 q 128 736 129 753 m -22 903 q 8 943 -19 908 q 32 974 18 957 q 56 996 44 989 q 97 1007 75 1008 q 133 986 118 1003 q 151 963 138 982 q 169 932 153 960 q 192 896 186 904 q 197 864 201 881 q 178 839 193 847 q 147 833 163 829 q 121 851 131 836 q 86 908 90 903 q 81 902 85 907 q 75 893 78 897 q 65 881 72 890 q 53 863 58 871 l 46 854 q 19 838 36 840 q -12 844 1 835 q -29 872 -26 854 q -22 903 -32 889 z "},"":{"ha":332,"x_min":-12,"x_max":188,"o":"m 128 736 q 121 354 121 594 l 121 183 l 121 32 q 109 2 121 14 q 79 -10 97 -10 q 50 2 63 -10 q 38 32 38 14 l 38 183 l 38 354 q 44 740 38 596 q 58 769 46 757 q 89 779 71 781 q 117 765 106 778 q 128 736 129 753 m 71 918 l 71 915 l 71 914 l 71 913 l 72 911 q 72 907 72 908 q 66 876 75 890 q 40 858 57 861 q 9 863 24 854 q -10 889 -6 872 l -10 893 q -11 897 -11 896 l -12 906 q -5 938 -15 924 q 24 953 6 951 q 54 945 40 956 q 71 918 68 935 m 186 924 q 188 915 186 917 l 188 910 l 188 907 l 188 906 q 175 876 188 888 q 146 864 163 864 q 116 876 128 864 q 104 906 104 888 l 104 908 q 103 914 103 910 q 112 944 101 931 q 139 960 122 957 q 171 952 157 963 q 186 924 185 942 z "},"":{"ha":529,"x_min":-25,"x_max":383,"o":"m 146 82 q 238 167 200 107 q 300 401 300 264 q 240 626 303 538 q 113 701 189 696 q 125 450 113 621 l 161 450 q 190 438 178 450 q 203 408 203 426 q 190 378 203 390 q 161 367 178 367 l 131 367 q 146 82 144 182 m 58 782 q 308 675 215 803 q 383 401 386 565 q 308 122 383 238 q 71 -17 221 -17 q 42 -4 54 -17 q 29 25 29 8 q 63 65 29 58 q 47 364 61 164 q 32 363 42 364 q 17 363 22 363 q -12 375 0 363 q -25 404 -25 388 q -12 434 -25 422 q 17 446 0 446 q 28 447 21 446 q 42 447 36 447 q 29 718 29 606 q 22 736 25 724 q 30 767 19 753 q 58 782 40 781 z "},"":{"ha":565,"x_min":18,"x_max":419,"o":"m 317 165 q 336 749 336 372 q 349 778 336 765 q 378 790 361 790 q 408 778 396 790 q 419 749 419 765 q 399 149 419 358 q 394 93 396 110 q 391 68 393 83 q 389 51 389 53 q 386 42 389 50 q 382 31 383 35 q 376 19 379 22 q 360 3 369 8 q 328 -1 344 -6 q 303 18 313 3 l 303 19 l 301 21 l 297 29 q 290 42 296 33 q 282 57 285 51 q 235 142 253 106 q 225 160 231 149 q 174 265 192 222 q 157 305 164 288 q 144 338 150 322 q 135 363 139 354 l 118 404 q 128 25 128 181 q 116 -4 128 8 q 86 -17 104 -17 q 57 -4 69 -17 q 44 25 44 8 q 29 514 44 200 q 28 546 29 529 q 24 639 26 589 q 21 708 21 689 q 19 715 19 711 q 18 722 18 719 q 24 753 15 739 q 50 771 33 768 q 60 772 54 772 q 90 760 78 772 q 103 732 103 749 q 103 726 103 731 q 104 719 104 722 q 150 560 121 649 q 213 393 181 474 q 251 297 218 378 q 299 199 263 268 l 307 182 q 317 165 311 176 m 38 882 q 54 958 38 929 q 119 992 78 994 q 176 976 142 992 q 225 949 211 957 q 228 947 226 947 q 271 924 261 928 q 286 918 282 918 q 289 917 288 917 q 293 956 293 928 q 305 985 293 972 q 335 997 317 997 q 364 985 351 997 q 376 956 376 972 q 360 874 376 903 q 297 833 339 836 q 236 847 272 832 q 186 875 208 861 l 185 875 q 182 876 183 876 q 139 901 154 894 q 124 907 136 903 l 122 907 q 121 882 121 900 q 108 852 121 864 q 79 840 96 840 q 49 852 61 840 q 38 882 38 864 z "},"":{"ha":465,"x_min":26,"x_max":318,"o":"m 314 519 q 315 514 315 518 q 316 491 315 511 q 317 465 317 471 q 318 286 321 353 q 292 111 314 178 q 254 42 276 68 q 179 8 221 8 q 115 31 142 8 q 79 74 96 46 q 28 288 32 156 q 26 393 26 315 q 39 549 29 478 q 79 694 53 644 q 122 747 96 728 q 196 764 156 771 q 275 706 251 753 q 314 519 318 621 m 231 517 q 201 667 235 603 q 182 682 194 678 q 171 679 174 682 q 153 656 163 672 q 121 538 135 621 q 110 392 111 464 q 111 290 110 317 q 151 115 114 182 q 179 92 165 92 q 192 99 186 92 q 213 138 204 111 q 235 290 231 189 q 235 461 238 340 q 233 482 233 465 q 232 504 232 499 q 231 517 231 508 m 153 985 q 224 907 183 946 q 236 877 236 894 q 224 849 236 860 q 194 836 211 836 q 164 849 176 836 q 88 933 113 900 q 78 965 76 947 q 94 992 81 982 q 126 1001 108 1003 q 153 985 143 999 z "},"":{"ha":465,"x_min":26,"x_max":318,"o":"m 314 519 q 315 514 315 518 q 316 491 315 511 q 317 465 317 471 q 318 286 321 353 q 292 111 314 178 q 254 42 276 68 q 179 8 221 8 q 115 31 142 8 q 79 74 96 46 q 28 288 32 156 q 26 393 26 315 q 39 549 29 478 q 79 694 53 644 q 122 747 96 728 q 196 764 156 771 q 275 706 251 753 q 314 519 318 621 m 231 517 q 201 667 235 603 q 182 682 194 678 q 171 679 174 682 q 153 656 163 672 q 121 538 135 621 q 110 392 111 464 q 111 290 110 317 q 151 115 114 182 q 179 92 165 92 q 192 99 186 92 q 213 138 204 111 q 235 290 231 189 q 235 461 238 340 q 233 482 233 465 q 232 504 232 499 q 231 517 231 508 m 236 938 q 221 917 228 926 l 219 914 q 217 910 217 911 q 164 844 183 864 q 135 833 153 833 q 106 844 118 833 q 93 874 93 857 q 106 904 93 892 q 147 957 124 922 l 149 960 q 153 964 151 964 q 161 976 156 969 q 168 988 167 983 q 196 1003 179 1001 q 226 996 213 1006 q 244 969 242 986 q 236 938 247 953 z "},"":{"ha":465,"x_min":26,"x_max":318,"o":"m 314 519 q 315 514 315 518 q 316 491 315 511 q 317 465 317 471 q 318 286 321 353 q 292 111 314 178 q 254 42 276 68 q 179 8 221 8 q 115 31 142 8 q 79 74 96 46 q 28 288 32 156 q 26 393 26 315 q 39 549 29 478 q 79 694 53 644 q 122 747 96 728 q 196 764 156 771 q 275 706 251 753 q 314 519 318 621 m 231 517 q 201 667 235 603 q 182 682 194 678 q 171 679 174 682 q 153 656 163 672 q 121 538 135 621 q 110 392 111 464 q 111 290 110 317 q 151 115 114 182 q 179 92 165 92 q 192 99 186 92 q 213 138 204 111 q 235 290 231 189 q 235 461 238 340 q 233 482 233 465 q 232 504 232 499 q 231 517 231 508 m 54 897 q 82 931 71 917 q 104 957 85 931 q 126 978 119 972 q 164 994 143 992 q 204 982 188 994 q 228 957 217 971 q 276 885 239 944 q 263 826 297 849 q 231 821 247 817 q 206 840 215 825 q 167 900 179 882 q 156 886 164 897 l 146 876 q 131 858 140 869 q 115 840 121 847 q 85 827 103 828 q 56 839 68 826 q 42 867 43 850 q 54 897 42 885 z "},"":{"ha":465,"x_min":8,"x_max":318,"o":"m 314 519 q 315 514 315 518 q 316 491 315 511 q 317 465 317 471 q 318 286 321 353 q 292 111 314 178 q 254 42 276 68 q 179 8 221 8 q 115 31 142 8 q 79 74 96 46 q 28 288 32 156 q 26 393 26 315 q 39 549 29 478 q 79 694 53 644 q 122 747 96 728 q 196 764 156 771 q 275 706 251 753 q 314 519 318 621 m 231 517 q 201 667 235 603 q 182 682 194 678 q 171 679 174 682 q 153 656 163 672 q 121 538 135 621 q 110 392 111 464 q 111 290 110 317 q 151 115 114 182 q 179 92 165 92 q 192 99 186 92 q 213 138 204 111 q 235 290 231 189 q 235 461 238 340 q 233 482 233 465 q 232 504 232 499 q 231 517 231 508 m 8 861 q 83 942 28 932 q 131 939 104 946 q 168 925 136 938 q 179 919 172 922 q 192 913 186 915 q 222 897 214 900 l 222 907 q 234 937 222 925 q 264 949 246 949 q 293 937 281 949 q 306 907 306 925 q 293 843 306 868 q 238 810 274 810 q 190 819 218 808 l 151 839 l 132 849 q 110 858 122 856 q 101 860 107 860 l 99 860 l 97 858 q 89 838 93 854 q 68 813 83 821 q 36 810 53 804 q 12 829 21 814 q 8 861 3 844 z "},"":{"ha":465,"x_min":26,"x_max":318,"o":"m 314 519 q 315 514 315 518 q 316 491 315 511 q 317 465 317 471 q 318 286 321 353 q 292 111 314 178 q 254 42 276 68 q 179 8 221 8 q 115 31 142 8 q 79 74 96 46 q 28 288 32 156 q 26 393 26 315 q 39 549 29 478 q 79 694 53 644 q 122 747 96 728 q 196 764 156 771 q 275 706 251 753 q 314 519 318 621 m 231 517 q 201 667 235 603 q 182 682 194 678 q 171 679 174 682 q 153 656 163 672 q 121 538 135 621 q 110 392 111 464 q 111 290 110 317 q 151 115 114 182 q 179 92 165 92 q 192 99 186 92 q 213 138 204 111 q 235 290 231 189 q 235 461 238 340 q 233 482 233 465 q 232 504 232 499 q 231 517 231 508 m 122 926 q 123 919 122 924 q 124 913 124 914 q 122 913 122 911 q 125 904 122 908 q 122 874 131 889 q 97 853 114 858 q 66 856 81 847 q 46 881 51 864 l 43 889 q 40 903 40 900 q 39 924 40 917 q 51 953 39 942 q 79 967 63 965 q 110 956 97 968 q 122 926 122 944 m 275 940 q 276 924 276 935 l 276 917 l 276 907 q 265 878 276 890 q 235 865 253 865 q 206 878 218 865 q 193 907 193 890 l 193 917 q 192 932 193 925 q 201 963 190 950 q 229 978 213 975 q 260 968 247 979 q 275 940 274 957 z "},"":{"ha":533,"x_min":81,"x_max":389,"o":"m 153 571 q 167 556 160 564 q 188 534 175 547 q 213 508 201 521 l 213 507 l 231 489 q 306 581 281 551 q 334 594 317 593 q 364 582 351 594 q 377 553 376 571 q 367 524 378 536 q 289 428 346 503 q 374 347 332 385 q 388 320 388 338 q 378 289 389 303 q 350 275 367 276 q 319 285 333 274 q 239 360 285 314 q 171 272 208 318 q 111 267 144 242 q 97 295 99 278 q 107 326 96 313 q 181 421 132 354 l 151 450 l 151 451 q 128 476 140 463 q 107 497 115 489 q 92 514 99 506 q 81 544 81 526 q 93 572 81 561 q 123 584 106 585 q 153 571 140 583 z "},"":{"ha":501,"x_min":26,"x_max":356,"o":"m 111 271 q 132 325 122 296 l 138 340 q 208 533 181 454 q 226 588 215 551 q 201 667 219 631 q 182 682 194 678 q 171 679 174 682 q 153 656 163 672 q 121 538 135 621 q 110 392 111 464 q 111 290 110 317 l 111 271 m 236 367 q 215 311 229 346 q 210 296 211 299 q 147 124 160 158 l 151 115 q 179 92 165 92 q 192 99 186 92 q 213 138 204 111 q 235 290 231 189 q 236 367 236 315 m 313 579 q 314 519 315 539 q 315 514 315 518 q 316 491 315 511 q 317 465 317 471 q 318 286 321 353 q 292 111 314 178 q 254 42 276 68 q 179 8 221 8 q 115 31 142 8 l 114 31 l 114 26 q 92 3 107 11 q 61 0 76 -6 q 37 22 44 7 q 35 53 29 38 q 47 89 39 65 q 57 121 54 113 q 28 288 31 193 q 26 393 26 315 q 39 549 29 478 q 79 694 53 644 q 122 747 96 728 q 196 764 156 771 q 268 717 243 756 q 275 739 274 731 q 296 763 281 754 q 326 767 311 772 q 351 746 343 761 q 356 715 360 731 q 313 579 332 639 z "},"":{"ha":571,"x_min":26,"x_max":425,"o":"m 122 728 q 110 438 101 589 q 161 160 118 254 q 171 135 167 146 l 172 129 l 175 124 q 193 89 182 97 q 229 78 204 78 q 292 151 264 79 q 333 347 321 224 q 342 578 344 457 q 332 728 339 692 q 340 760 331 746 q 367 776 350 774 q 398 769 383 779 q 414 742 413 758 q 425 579 422 689 q 417 339 428 454 q 368 115 401 196 q 317 33 346 61 q 229 -6 281 -3 q 135 29 168 -6 q 96 96 111 53 l 94 97 q 94 101 94 100 l 92 107 q 85 126 88 122 q 26 433 35 240 q 39 740 18 592 q 56 767 42 757 q 86 775 69 778 q 115 759 104 774 q 122 728 125 744 m 192 1065 q 268 968 211 1042 q 260 910 292 935 q 228 901 246 899 q 201 918 211 904 q 128 1013 178 951 q 118 1043 117 1026 q 133 1071 119 1060 q 164 1081 147 1082 q 192 1065 181 1079 z "},"":{"ha":571,"x_min":26,"x_max":425,"o":"m 122 728 q 110 438 101 589 q 161 160 118 254 q 171 135 167 146 l 172 129 l 175 124 q 193 89 182 97 q 229 78 204 78 q 292 151 264 79 q 333 347 321 224 q 342 578 344 457 q 332 728 339 692 q 340 760 331 746 q 367 776 350 774 q 398 769 383 779 q 414 742 413 758 q 425 579 422 689 q 417 339 428 454 q 368 115 401 196 q 317 33 346 61 q 229 -6 281 -3 q 135 29 168 -6 q 96 96 111 53 l 94 97 q 94 101 94 100 l 92 107 q 85 126 88 122 q 26 433 35 240 q 39 740 18 592 q 56 767 42 757 q 86 775 69 778 q 115 759 104 774 q 122 728 125 744 m 293 1029 q 206 914 263 954 q 174 906 192 903 q 147 922 157 908 q 140 953 138 936 q 156 981 142 969 q 217 1061 194 1007 q 239 1083 222 1076 q 271 1083 256 1090 q 293 1061 286 1078 q 293 1029 300 1044 z "},"":{"ha":571,"x_min":26,"x_max":425,"o":"m 122 728 q 110 438 101 589 q 161 160 118 254 q 171 135 167 146 l 172 129 l 175 124 q 193 89 182 97 q 229 78 204 78 q 292 151 264 79 q 333 347 321 224 q 342 578 344 457 q 332 728 339 692 q 340 760 331 746 q 367 776 350 774 q 398 769 383 779 q 414 742 413 758 q 425 579 422 689 q 417 339 428 454 q 368 115 401 196 q 317 33 346 61 q 229 -6 281 -3 q 135 29 168 -6 q 96 96 111 53 l 94 97 q 94 101 94 100 l 92 107 q 85 126 88 122 q 26 433 35 240 q 39 740 18 592 q 56 767 42 757 q 86 775 69 778 q 115 759 104 774 q 122 728 125 744 m 111 961 q 168 1018 150 1004 q 196 1036 179 1028 q 233 1044 214 1047 q 269 1031 256 1042 q 293 1007 282 1022 q 335 940 304 993 q 338 909 343 926 q 319 883 333 892 q 288 880 306 875 q 263 899 271 885 q 228 956 244 933 l 226 957 q 222 954 225 957 q 171 904 217 950 q 142 891 160 892 q 113 903 125 890 q 99 931 100 914 q 111 961 99 949 z "},"":{"ha":571,"x_min":26,"x_max":425,"o":"m 122 728 q 110 438 101 589 q 161 160 118 254 q 171 135 167 146 l 172 129 l 175 124 q 193 89 182 97 q 229 78 204 78 q 292 151 264 79 q 333 347 321 224 q 342 578 344 457 q 332 728 339 692 q 340 760 331 746 q 367 776 350 774 q 398 769 383 779 q 414 742 413 758 q 425 579 422 689 q 417 339 428 454 q 368 115 401 196 q 317 33 346 61 q 229 -6 281 -3 q 135 29 168 -6 q 96 96 111 53 l 94 97 q 94 101 94 100 l 92 107 q 85 126 88 122 q 26 433 35 240 q 39 740 18 592 q 56 767 42 757 q 86 775 69 778 q 115 759 104 774 q 122 728 125 744 m 174 999 q 181 968 176 979 q 178 936 186 951 q 154 915 169 921 q 122 917 138 910 q 101 942 107 925 q 90 985 97 951 q 98 1016 88 1001 q 125 1033 108 1031 q 156 1026 142 1036 q 174 999 171 1015 m 331 993 q 336 963 333 976 q 330 931 339 946 q 304 913 321 917 q 273 917 288 908 q 254 944 258 926 q 247 986 250 961 q 258 1017 246 1004 q 286 1031 269 1029 q 317 1021 304 1032 q 331 993 329 1010 z "},"":{"ha":504,"x_min":19,"x_max":358,"o":"m 103 726 l 103 683 q 104 564 101 608 q 125 454 108 489 q 140 433 133 439 q 153 432 144 429 q 182 456 164 435 q 221 526 200 476 q 264 682 251 597 q 265 732 264 718 q 280 760 267 749 q 310 769 293 771 q 336 758 325 768 q 353 721 356 744 q 349 678 351 706 l 349 668 q 349 650 349 663 q 350 629 350 638 q 353 583 353 613 q 358 410 360 461 q 307 128 358 222 q 60 35 231 -14 q 35 56 43 40 q 31 88 26 71 q 51 113 36 104 q 82 115 65 121 q 179 114 143 99 q 233 167 213 126 q 275 410 275 244 l 275 446 q 247 403 261 421 q 168 350 208 357 q 93 364 128 342 q 50 419 68 382 q 21 558 28 467 q 19 685 17 607 l 19 724 q 31 753 19 742 q 60 767 43 765 q 90 755 78 767 q 103 726 103 743 m 251 954 q 231 922 240 938 q 224 911 224 915 q 171 842 190 861 q 141 829 158 829 q 113 842 124 829 q 100 872 100 854 q 113 901 100 889 q 153 956 126 915 q 160 968 154 957 q 174 988 167 976 q 185 1004 182 1000 q 213 1020 196 1018 q 243 1013 229 1022 q 251 954 275 988 z "},"":{"ha":583,"x_min":64,"x_max":438,"o":"m 160 247 q 310 292 258 254 q 354 374 357 325 q 303 465 351 424 q 158 521 249 508 q 161 346 161 468 q 160 302 161 333 q 160 247 160 271 m 158 164 q 157 42 157 110 q 145 12 157 24 q 115 0 133 0 q 86 12 99 0 q 74 42 74 24 q 75 214 74 126 q 76 267 75 239 q 77 313 76 294 q 78 347 78 331 q 64 682 78 563 q 74 713 63 699 q 101 728 85 726 q 132 719 119 729 q 147 690 144 708 q 154 604 153 636 q 356 529 276 594 q 438 376 435 463 q 358 224 442 283 q 158 164 283 171 z "},"":{"ha":606,"x_min":64,"x_max":449,"o":"m 121 693 q 274 689 201 726 q 356 572 356 643 q 340 515 353 542 q 317 469 333 497 q 289 404 290 421 q 292 390 289 399 q 319 350 306 365 q 360 306 326 342 q 365 301 363 304 q 411 251 392 275 q 449 190 438 219 q 428 25 481 111 q 265 -61 375 -61 q 235 -49 247 -61 q 224 -19 224 -37 q 235 10 224 -3 q 265 22 247 22 q 357 69 329 22 q 372 160 388 118 q 306 243 360 189 l 301 247 q 256 296 281 268 q 217 356 232 324 q 206 406 206 381 q 221 464 208 438 q 244 511 228 482 q 272 574 271 556 q 267 589 272 582 q 233 615 260 600 q 151 615 197 635 q 147 314 146 486 l 147 214 q 149 44 149 129 q 137 15 149 28 q 107 3 125 3 q 78 15 90 3 q 65 44 65 28 q 64 213 65 129 l 64 314 q 71 654 61 524 q 85 683 72 672 q 114 693 97 694 l 121 693 z "},"":{"ha":522,"x_min":26,"x_max":375,"o":"m 256 407 q 229 446 244 436 q 211 450 221 451 q 140 390 178 443 q 108 297 106 339 q 117 279 110 283 q 147 271 125 271 q 211 296 182 269 l 217 301 q 226 310 219 303 q 257 353 256 335 q 276 383 261 372 q 278 385 278 383 q 256 407 263 392 m 356 357 q 353 332 353 346 q 360 301 356 315 q 363 289 360 300 q 369 263 365 278 q 375 242 374 247 q 370 210 379 225 q 344 192 361 196 q 313 195 328 186 q 294 221 299 204 q 290 235 293 225 q 286 251 288 246 q 281 247 283 249 l 272 239 l 269 238 q 267 235 267 236 q 146 188 214 186 q 63 216 94 189 q 26 289 31 243 q 72 438 19 358 q 193 531 125 518 q 275 515 238 542 q 332 439 310 494 q 331 403 340 419 q 356 357 361 392 m 181 768 q 233 729 208 746 q 244 721 233 726 q 250 717 247 719 q 256 713 253 714 q 272 685 269 703 q 265 654 275 668 q 238 638 256 640 q 207 644 221 635 q 196 653 204 647 q 185 660 189 660 q 126 706 142 692 q 111 733 113 715 q 121 764 110 750 q 149 778 132 778 q 181 768 167 779 z "},"":{"ha":522,"x_min":26,"x_max":375,"o":"m 256 407 q 229 446 244 436 q 211 450 221 451 q 140 390 178 443 q 108 297 106 339 q 117 279 110 283 q 147 271 125 271 q 211 296 182 269 l 217 301 q 226 310 219 303 q 257 353 256 335 q 276 383 261 372 q 278 385 278 383 q 256 407 263 392 m 356 357 q 353 332 353 346 q 360 301 356 315 q 363 289 360 300 q 369 263 365 278 q 375 242 374 247 q 370 210 379 225 q 344 192 361 196 q 313 195 328 186 q 294 221 299 204 q 290 235 293 225 q 286 251 288 246 q 281 247 283 249 l 272 239 l 269 238 q 267 235 267 236 q 146 188 214 186 q 63 216 94 189 q 26 289 31 243 q 72 438 19 358 q 193 531 125 518 q 275 515 238 542 q 332 439 310 494 q 331 403 340 419 q 356 357 361 392 m 240 682 q 235 676 239 681 q 228 668 231 671 l 221 660 q 217 655 219 658 q 214 650 215 651 q 161 599 182 611 q 130 592 147 589 q 103 610 113 596 q 97 641 93 624 q 115 668 101 658 q 149 703 129 678 q 152 707 150 704 q 156 711 154 710 q 163 719 161 718 q 170 728 165 722 q 178 738 175 735 q 206 751 189 750 q 236 740 224 751 q 244 720 243 735 q 243 694 246 706 l 240 682 z "},"":{"ha":522,"x_min":26,"x_max":375,"o":"m 256 407 q 229 446 244 436 q 211 450 221 451 q 140 390 178 443 q 108 297 106 339 q 117 279 110 283 q 147 271 125 271 q 211 296 182 269 l 217 301 q 226 310 219 303 q 257 353 256 335 q 276 383 261 372 q 278 385 278 383 q 256 407 263 392 m 356 357 q 353 332 353 346 q 360 301 356 315 q 363 289 360 300 q 369 263 365 278 q 375 242 374 247 q 370 210 379 225 q 344 192 361 196 q 313 195 328 186 q 294 221 299 204 q 290 235 293 225 q 286 251 288 246 q 281 247 283 249 l 272 239 l 269 238 q 267 235 267 236 q 146 188 214 186 q 63 216 94 189 q 26 289 31 243 q 72 438 19 358 q 193 531 125 518 q 275 515 238 542 q 332 439 310 494 q 331 403 340 419 q 356 357 361 392 m 83 654 l 132 700 q 153 718 146 714 q 185 731 167 728 q 242 713 211 736 q 285 668 261 697 q 293 638 294 654 q 279 610 292 621 q 249 600 265 599 q 221 615 232 601 q 193 644 199 640 l 189 640 q 140 593 156 607 q 109 583 126 582 q 81 596 92 583 q 70 626 69 608 q 83 654 71 643 z "},"":{"ha":522,"x_min":26,"x_max":375,"o":"m 256 407 q 229 446 244 436 q 211 450 221 451 q 140 390 178 443 q 108 297 106 339 q 117 279 110 283 q 147 271 125 271 q 211 296 182 269 l 217 301 q 226 310 219 303 q 257 353 256 335 q 276 383 261 372 q 278 385 278 383 q 256 407 263 392 m 356 357 q 353 332 353 346 q 360 301 356 315 q 363 289 360 300 q 369 263 365 278 q 375 242 374 247 q 370 210 379 225 q 344 192 361 196 q 313 195 328 186 q 294 221 299 204 q 290 235 293 225 q 286 251 288 246 q 281 247 283 249 l 272 239 l 269 238 q 267 235 267 236 q 146 188 214 186 q 63 216 94 189 q 26 289 31 243 q 72 438 19 358 q 193 531 125 518 q 275 515 238 542 q 332 439 310 494 q 331 403 340 419 q 356 357 361 392 m 33 633 q 110 707 56 701 q 154 700 131 708 q 189 682 172 693 q 211 668 203 674 q 225 658 218 664 q 233 653 232 653 l 233 663 q 246 692 233 681 q 275 704 258 704 q 305 692 293 704 q 317 663 317 681 q 306 597 317 619 q 249 561 288 558 q 200 576 226 561 q 191 582 197 578 q 182 588 185 586 q 178 590 181 589 q 174 593 175 592 q 164 599 168 599 q 146 611 153 608 q 125 622 142 614 l 122 622 l 119 624 q 119 622 119 622 q 118 621 118 622 q 116 615 118 619 q 113 608 114 611 q 92 583 107 592 q 61 581 78 575 q 36 602 44 588 q 33 633 28 617 z "},"":{"ha":522,"x_min":26,"x_max":375,"o":"m 256 407 q 229 446 244 436 q 211 450 221 451 q 140 390 178 443 q 108 297 106 339 q 117 279 110 283 q 147 271 125 271 q 211 296 182 269 l 217 301 q 226 310 219 303 q 257 353 256 335 q 276 383 261 372 q 278 385 278 383 q 256 407 263 392 m 356 357 q 353 332 353 346 q 360 301 356 315 q 363 289 360 300 q 369 263 365 278 q 375 242 374 247 q 370 210 379 225 q 344 192 361 196 q 313 195 328 186 q 294 221 299 204 q 290 235 293 225 q 286 251 288 246 q 281 247 283 249 l 272 239 l 269 238 q 267 235 267 236 q 146 188 214 186 q 63 216 94 189 q 26 289 31 243 q 72 438 19 358 q 193 531 125 518 q 275 515 238 542 q 332 439 310 494 q 331 403 340 419 q 356 357 361 392 m 154 660 q 154 653 154 657 q 155 648 154 650 q 156 644 156 646 l 156 642 l 156 638 q 157 632 157 633 q 151 601 160 615 q 125 583 142 586 q 75 617 85 576 l 75 621 l 74 625 q 72 629 74 626 l 72 632 l 72 639 q 71 651 71 647 q 80 682 69 669 q 108 697 90 694 q 139 688 125 699 q 154 660 153 676 m 290 674 l 290 671 l 296 635 q 289 604 299 618 q 263 586 279 590 q 231 593 246 583 q 214 619 217 603 q 208 660 214 625 q 207 663 208 661 q 216 693 206 679 q 243 710 226 707 q 274 701 261 711 q 290 674 288 690 z "},"":{"ha":522,"x_min":26,"x_max":375,"o":"m 169 661 q 185 653 178 656 q 189 653 189 650 q 192 654 192 653 q 197 663 193 656 q 196 685 201 674 q 188 690 194 689 q 169 661 171 683 m 168 769 q 186 774 176 774 q 271 722 246 771 q 276 636 290 682 q 213 572 257 585 q 110 601 163 557 q 89 632 96 614 q 86 657 86 649 q 156 767 86 738 q 168 769 164 769 m 256 407 q 229 446 244 436 q 211 450 221 451 q 140 390 178 443 q 108 297 106 339 q 117 279 110 283 q 147 271 125 271 q 211 296 182 269 l 217 301 q 226 310 219 303 q 257 353 256 335 q 276 383 261 372 q 278 385 278 383 q 256 407 263 392 m 356 357 q 353 332 353 346 q 360 301 356 315 q 363 289 360 300 q 369 263 365 278 q 375 242 374 247 q 370 210 379 225 q 344 192 361 196 q 313 195 328 186 q 294 221 299 204 q 290 235 293 225 q 286 251 288 246 q 281 247 283 249 l 272 239 l 269 238 q 267 235 267 236 q 146 188 214 186 q 63 216 94 189 q 26 289 31 243 q 72 438 19 358 q 193 531 125 518 q 275 515 238 542 q 332 439 310 494 q 331 403 340 419 q 356 357 361 392 z "},"":{"ha":782,"x_min":25,"x_max":636,"o":"m 251 338 q 231 375 228 350 l 231 382 l 224 389 q 203 392 213 393 q 136 344 169 385 q 108 278 106 306 q 113 269 108 272 q 143 263 119 263 q 206 283 178 263 q 211 288 208 286 q 215 292 211 289 l 219 294 q 246 324 244 313 q 251 338 249 332 m 551 442 l 547 450 q 490 496 526 481 q 432 497 456 510 q 390 422 404 481 q 408 424 397 422 q 426 425 419 425 q 521 436 510 435 q 539 440 528 438 q 551 442 550 442 m 83 579 q 319 558 263 618 q 343 522 336 539 q 388 568 363 553 q 522 574 447 606 q 617 496 583 547 q 636 439 636 464 q 608 376 639 401 q 535 354 590 363 q 433 342 497 349 q 412 340 426 342 q 390 339 397 339 q 425 281 401 300 q 471 267 444 264 q 542 304 503 269 q 573 315 556 315 q 601 301 590 314 q 612 272 613 289 q 597 243 611 254 q 478 183 540 190 q 374 215 418 179 q 344 192 364 196 q 301 207 318 183 q 282 232 286 215 q 281 236 282 235 q 269 228 278 233 l 265 225 q 261 221 261 222 q 256 218 258 218 q 142 179 206 178 q 63 203 93 179 q 25 268 29 228 q 71 396 19 331 q 189 474 124 463 q 272 457 232 482 q 271 469 271 461 q 260 500 267 493 q 221 513 249 511 q 100 499 176 515 q 69 503 83 494 q 51 531 54 513 q 57 562 47 547 q 83 579 67 576 z "},"":{"ha":476,"x_min":19,"x_max":329,"o":"m 215 438 q 189 446 206 453 q 131 389 157 432 q 103 307 103 346 q 128 269 103 278 q 185 281 142 265 q 198 285 190 283 q 208 289 206 288 q 253 297 235 296 q 306 289 281 300 q 329 267 322 283 q 329 235 336 250 q 306 213 322 219 q 275 213 290 206 q 233 208 258 217 q 213 201 222 206 q 201 199 204 199 q 183 171 200 197 q 182 168 183 169 q 206 156 194 164 q 229 119 222 143 q 215 65 236 90 q 178 40 204 53 q 114 26 144 28 q 92 34 101 25 q 81 56 82 43 q 88 78 79 68 q 110 89 97 88 q 156 99 139 92 q 163 103 158 100 q 168 106 167 106 l 168 107 q 157 111 163 110 q 156 112 156 111 q 154 113 156 113 l 150 114 q 131 121 133 119 q 110 143 115 132 q 111 175 100 160 l 111 176 q 113 178 113 176 q 115 181 114 178 l 117 183 l 119 186 q 100 192 108 189 q 19 304 22 219 q 60 433 18 367 q 156 522 100 499 q 226 528 192 538 q 283 486 261 519 q 292 456 294 472 q 274 428 289 439 q 242 421 260 418 q 215 438 225 424 z "},"":{"ha":485,"x_min":38,"x_max":340,"o":"m 247 414 q 226 449 242 435 q 193 454 213 458 q 147 427 168 449 q 119 376 125 406 q 117 361 117 365 q 185 388 176 385 q 242 413 196 392 l 244 414 l 247 414 m 153 285 q 156 282 154 283 q 160 281 158 281 l 165 278 q 176 274 168 276 q 210 271 196 271 q 274 289 251 274 q 305 298 288 300 q 332 282 322 296 q 340 250 342 267 q 324 222 338 233 q 211 188 279 190 q 113 211 149 188 q 47 292 67 243 q 38 394 26 342 q 88 485 49 447 q 176 535 126 524 q 275 517 229 547 q 332 417 319 485 l 332 411 q 333 403 332 410 l 333 394 q 322 364 335 379 q 217 310 307 349 q 185 297 207 306 q 153 285 164 289 m 94 758 q 103 760 94 758 q 125 750 111 761 q 154 729 139 739 l 156 729 q 199 699 182 711 q 215 671 213 688 q 206 640 217 654 q 177 624 194 626 q 146 633 160 622 q 110 660 129 647 l 108 660 q 75 683 104 663 q 59 710 61 693 q 67 740 57 726 q 94 758 78 756 z "},"":{"ha":485,"x_min":38,"x_max":340,"o":"m 247 414 q 226 449 242 435 q 193 454 213 458 q 147 427 168 449 q 119 376 125 406 q 117 361 117 365 q 185 388 176 385 q 242 413 196 392 l 244 414 l 247 414 m 153 285 q 156 282 154 283 q 160 281 158 281 l 165 278 q 176 274 168 276 q 210 271 196 271 q 274 289 251 274 q 305 298 288 300 q 332 282 322 296 q 340 250 342 267 q 324 222 338 233 q 211 188 279 190 q 113 211 149 188 q 47 292 67 243 q 38 394 26 342 q 88 485 49 447 q 176 535 126 524 q 275 517 229 547 q 332 417 319 485 l 332 411 q 333 403 332 410 l 333 394 q 322 364 335 379 q 217 310 307 349 q 185 297 207 306 q 153 285 164 289 m 239 706 l 235 697 l 233 696 q 213 663 219 674 q 186 628 200 642 q 156 615 174 615 q 126 628 139 615 q 114 658 114 640 q 126 688 114 675 q 161 736 135 696 l 161 739 l 167 747 q 192 767 175 763 q 224 763 210 772 q 243 738 239 754 q 239 706 247 721 z "},"":{"ha":485,"x_min":38,"x_max":340,"o":"m 247 414 q 226 449 242 435 q 193 454 213 458 q 147 427 168 449 q 119 376 125 406 q 117 361 117 365 q 185 388 176 385 q 242 413 196 392 l 244 414 l 247 414 m 153 285 q 156 282 154 283 q 160 281 158 281 l 165 278 q 176 274 168 276 q 210 271 196 271 q 274 289 251 274 q 305 298 288 300 q 332 282 322 296 q 340 250 342 267 q 324 222 338 233 q 211 188 279 190 q 113 211 149 188 q 47 292 67 243 q 38 394 26 342 q 88 485 49 447 q 176 535 126 524 q 275 517 229 547 q 332 417 319 485 l 332 411 q 333 403 332 410 l 333 394 q 322 364 335 379 q 217 310 307 349 q 185 297 207 306 q 153 285 164 289 m 44 640 q 85 708 74 693 q 108 732 96 724 q 144 746 122 743 q 182 738 165 749 q 208 717 199 728 q 256 656 228 697 q 261 625 265 642 q 243 599 257 608 q 213 592 229 589 q 186 610 196 596 q 150 657 163 646 q 119 603 142 646 q 96 582 113 588 q 64 583 79 576 q 43 608 49 592 q 44 640 38 625 z "},"":{"ha":485,"x_min":38,"x_max":340,"o":"m 247 414 q 226 449 242 435 q 193 454 213 458 q 147 427 168 449 q 119 376 125 406 q 117 361 117 365 q 185 388 176 385 q 242 413 196 392 l 244 414 l 247 414 m 153 285 q 156 282 154 283 q 160 281 158 281 l 165 278 q 176 274 168 276 q 210 271 196 271 q 274 289 251 274 q 305 298 288 300 q 332 282 322 296 q 340 250 342 267 q 324 222 338 233 q 211 188 279 190 q 113 211 149 188 q 47 292 67 243 q 38 394 26 342 q 88 485 49 447 q 176 535 126 524 q 275 517 229 547 q 332 417 319 485 l 332 411 q 333 403 332 410 l 333 394 q 322 364 335 379 q 217 310 307 349 q 185 297 207 306 q 153 285 164 289 m 256 650 l 256 633 q 243 603 256 615 q 214 592 231 592 q 184 603 196 592 q 172 633 172 615 l 172 650 q 184 679 172 667 q 214 692 196 692 q 243 679 231 692 q 256 650 256 667 m 129 642 l 129 636 q 131 629 129 632 q 121 599 132 611 q 92 583 110 586 q 62 593 75 582 q 47 622 49 604 q 46 629 47 625 l 46 636 q 56 666 44 653 q 85 681 67 679 q 115 671 101 682 q 129 642 128 660 z "},"":{"ha":269,"x_min":-18,"x_max":124,"o":"m 115 508 q 122 431 119 483 q 121 357 122 394 l 121 351 q 124 233 119 285 q 115 202 125 215 q 88 186 104 189 q 57 194 71 183 q 42 224 43 206 q 38 353 36 275 l 38 358 q 33 496 39 457 q 41 526 31 513 q 68 543 51 540 q 99 535 85 546 q 115 508 113 525 m 56 714 l 60 710 l 63 706 q 100 669 88 679 q 116 642 114 660 q 107 611 118 625 q 79 595 96 597 q 49 603 63 593 q 1 650 29 619 q 0 651 0 650 l -3 653 q -7 658 -4 656 q -17 688 -18 671 q -4 717 -17 706 q 27 727 10 728 q 56 714 44 726 z "},"":{"ha":276,"x_min":3,"x_max":132,"o":"m 115 508 q 122 431 119 483 q 121 357 122 394 l 121 351 q 124 233 119 285 q 115 202 125 215 q 88 186 104 189 q 57 194 71 183 q 42 224 43 206 q 38 353 36 275 l 38 358 q 33 496 39 457 q 41 526 31 513 q 68 543 51 540 q 99 535 85 546 q 115 508 113 525 m 124 689 q 115 674 122 686 q 114 672 114 674 q 72 621 94 640 q 42 610 60 610 q 14 624 25 611 q 3 653 3 636 q 17 682 4 671 q 44 718 28 693 l 44 719 q 56 736 51 729 q 83 753 67 750 q 114 746 99 756 q 131 719 128 736 q 124 689 135 703 z "},"":{"ha":313,"x_min":-44,"x_max":165,"o":"m 115 508 q 122 431 119 483 q 121 357 122 394 l 121 351 q 124 233 119 285 q 115 202 125 215 q 88 186 104 189 q 57 194 71 183 q 42 224 43 206 q 38 353 36 275 l 38 358 q 33 496 39 457 q 41 526 31 513 q 68 543 51 540 q 99 535 85 546 q 115 508 113 525 m -35 647 q 10 697 -7 682 q 65 726 38 725 q 126 696 100 728 q 163 636 143 675 q 165 604 171 621 q 144 579 160 588 q 113 578 129 572 q 88 599 96 583 q 67 638 76 624 q 29 594 56 626 q 1 579 18 581 q -29 589 -17 578 q -44 617 -43 600 q -35 647 -46 633 z "},"":{"ha":311,"x_min":-32,"x_max":165,"o":"m 165 643 q 139 597 169 610 q 107 599 122 592 q 85 622 92 606 l 83 624 l 83 625 q 82 640 81 633 l 82 643 l 82 644 l 82 646 q 96 675 83 664 q 125 686 108 686 q 154 672 143 685 q 165 643 165 660 m 115 508 q 122 431 119 483 q 121 357 122 394 l 121 351 q 124 233 119 285 q 115 202 125 215 q 88 186 104 189 q 57 194 71 183 q 42 224 43 206 q 38 353 36 275 l 38 358 q 33 496 39 457 q 41 526 31 513 q 68 543 51 540 q 99 535 85 546 q 115 508 113 525 m 47 654 l 50 646 q 47 614 56 629 q 22 593 39 599 q -9 596 6 588 q -29 621 -24 604 l -32 629 q -30 661 -37 646 q -6 682 -22 676 q 26 679 11 688 q 47 654 42 671 z "},"":{"ha":613,"x_min":46,"x_max":457,"o":"m 368 324 q 258 356 315 358 q 163 313 194 353 q 132 246 142 286 q 128 172 122 206 q 160 117 133 139 q 254 90 193 90 q 368 142 340 89 q 375 296 397 193 q 368 324 374 304 m 264 540 q 178 493 208 506 q 147 492 163 486 q 124 514 131 499 q 123 546 117 529 q 144 569 129 563 q 213 607 174 581 q 153 665 182 642 q 138 694 139 676 q 147 724 136 711 q 174 740 157 738 q 206 731 192 742 q 285 651 247 697 q 343 682 313 669 q 376 683 360 689 q 399 661 392 676 q 376 606 413 622 q 335 585 353 596 q 457 313 428 449 q 442 103 485 183 q 253 7 390 4 q 108 51 158 10 q 46 157 58 89 q 51 265 36 208 q 97 363 65 322 q 257 439 154 436 q 328 431 292 442 q 264 540 304 481 z "},"":{"ha":488,"x_min":29,"x_max":342,"o":"m 228 451 q 204 438 221 451 q 118 229 121 369 q 86 189 118 196 q 65 186 76 185 q 38 202 49 189 q 29 232 28 215 q 31 250 31 238 q 32 268 32 263 q 33 361 33 293 q 36 501 33 457 q 50 531 38 519 q 81 540 63 542 q 110 526 99 539 q 119 497 121 514 q 119 483 119 492 q 118 471 118 475 q 150 501 128 482 q 211 533 179 526 q 274 521 244 542 q 328 425 313 496 q 342 313 339 381 q 340 226 342 251 q 326 197 339 208 q 297 186 314 185 q 267 200 279 188 q 257 231 256 213 q 247 407 264 333 q 236 440 243 425 q 231 450 233 444 q 228 451 229 451 m 33 628 q 54 686 36 665 q 111 708 76 711 q 157 696 132 707 q 194 676 167 690 q 228 658 211 667 l 229 658 q 232 657 231 657 l 232 668 q 244 698 232 686 q 274 710 256 710 q 303 698 290 710 q 315 668 315 686 q 300 603 315 625 q 243 569 282 572 q 193 582 225 569 q 153 603 174 592 q 117 622 125 618 l 117 621 q 101 593 114 604 q 71 583 88 582 q 43 598 54 585 q 33 628 32 611 z "},"":{"ha":490,"x_min":22,"x_max":344,"o":"m 164 449 q 104 375 114 418 q 119 301 94 336 q 175 272 140 272 q 253 329 217 275 q 244 414 276 365 q 167 449 213 464 l 164 449 m 161 533 q 247 522 206 542 q 315 460 289 501 q 344 369 342 417 q 322 283 347 322 q 178 189 261 193 q 53 251 101 186 q 22 393 4 315 q 136 529 42 479 q 161 533 149 536 m 142 694 q 148 688 143 693 q 156 676 153 682 q 158 675 157 676 q 188 638 169 663 q 194 606 197 622 q 176 581 190 590 q 144 574 161 571 q 118 592 128 576 q 94 621 107 606 l 93 622 q 76 643 79 639 q 67 674 65 657 q 83 701 69 692 q 115 710 97 713 q 142 694 132 708 z "},"":{"ha":490,"x_min":22,"x_max":344,"o":"m 164 449 q 104 375 114 418 q 119 301 94 336 q 175 272 140 272 q 253 329 217 275 q 244 414 276 365 q 167 449 213 464 l 164 449 m 161 533 q 247 522 206 542 q 315 460 289 501 q 344 369 342 417 q 322 283 347 322 q 178 189 261 193 q 53 251 101 186 q 22 393 4 315 q 136 529 42 479 q 161 533 149 536 m 229 661 q 181 589 207 618 q 152 574 169 575 q 122 585 135 574 q 108 613 110 596 q 118 643 107 631 q 154 699 139 668 q 179 719 163 714 q 210 718 196 725 q 231 693 225 710 q 229 661 236 676 z "},"":{"ha":490,"x_min":22,"x_max":344,"o":"m 164 449 q 104 375 114 418 q 119 301 94 336 q 175 272 140 272 q 253 329 217 275 q 244 414 276 365 q 167 449 213 464 l 164 449 m 161 533 q 247 522 206 542 q 315 460 289 501 q 344 369 342 417 q 322 283 347 322 q 178 189 261 193 q 53 251 101 186 q 22 393 4 315 q 136 529 42 479 q 161 533 149 536 m 68 639 q 107 685 89 667 q 157 714 131 708 q 215 699 185 718 q 258 658 235 685 q 270 628 271 646 q 256 600 269 611 q 226 590 243 589 q 197 603 208 590 q 169 629 178 624 q 168 628 169 628 q 165 626 167 628 q 135 589 160 621 q 108 573 125 575 q 76 581 92 571 q 60 608 63 590 q 68 639 58 625 z "},"":{"ha":490,"x_min":22,"x_max":344,"o":"m 164 449 q 104 375 114 418 q 119 301 94 336 q 175 272 140 272 q 253 329 217 275 q 244 414 276 365 q 167 449 213 464 l 164 449 m 161 533 q 247 522 206 542 q 315 460 289 501 q 344 369 342 417 q 322 283 347 322 q 178 189 261 193 q 53 251 101 186 q 22 393 4 315 q 136 529 42 479 q 161 533 149 536 m 38 599 q 50 654 36 632 q 100 683 67 679 q 142 679 119 686 q 178 668 169 671 q 181 667 181 668 q 210 658 206 660 l 217 658 l 217 661 q 228 690 217 678 q 258 703 240 703 q 288 690 275 703 q 300 661 300 678 q 285 604 300 628 q 236 575 267 579 q 192 578 218 571 q 174 583 186 579 q 156 588 163 586 q 151 589 154 589 q 134 594 143 592 q 122 599 125 597 l 121 599 q 108 572 119 583 q 81 558 97 560 q 51 569 64 557 q 38 599 39 581 z "},"":{"ha":490,"x_min":22,"x_max":344,"o":"m 164 449 q 104 375 114 418 q 119 301 94 336 q 175 272 140 272 q 253 329 217 275 q 244 414 276 365 q 167 449 213 464 l 164 449 m 161 533 q 247 522 206 542 q 315 460 289 501 q 344 369 342 417 q 322 283 347 322 q 178 189 261 193 q 53 251 101 186 q 22 393 4 315 q 136 529 42 479 q 161 533 149 536 m 143 640 q 140 611 147 625 q 117 590 132 597 q 85 592 100 585 q 63 615 69 600 l 63 618 q 60 632 60 626 l 60 640 q 72 670 60 658 q 101 682 83 682 q 131 670 118 682 q 143 640 143 658 m 271 667 q 274 660 271 660 l 274 656 q 275 651 275 654 q 270 620 279 635 q 244 601 261 606 q 213 606 228 597 q 194 632 199 615 l 194 633 l 193 635 l 192 636 q 192 640 192 639 q 194 672 186 656 q 218 693 201 688 q 250 690 235 699 q 271 667 265 682 z "},"":{"ha":538,"x_min":58,"x_max":392,"o":"m 88 329 q 215 350 144 346 q 314 351 242 351 l 350 351 q 380 339 368 351 q 392 310 392 326 q 380 280 392 292 q 350 268 368 268 l 313 268 q 219 267 244 268 q 110 249 153 263 q 78 253 93 244 q 58 278 63 261 q 62 309 53 294 q 88 329 71 324 m 261 165 l 261 139 q 249 109 261 121 q 219 97 238 97 q 190 109 203 97 q 178 139 178 121 l 178 165 q 190 194 178 182 q 219 207 203 207 q 249 194 238 207 q 261 165 261 182 m 250 468 q 246 443 247 456 q 228 417 243 426 q 197 410 214 407 q 164 460 157 419 q 168 483 165 471 q 185 510 171 500 q 217 517 200 519 q 244 499 235 514 q 250 468 253 485 z "},"":{"ha":490,"x_min":22,"x_max":344,"o":"m 253 399 q 217 336 225 349 q 176 272 204 314 q 253 329 218 276 q 253 399 271 357 m 186 451 q 167 449 178 453 l 164 449 q 104 375 114 418 q 108 321 97 347 q 146 379 128 347 q 186 451 171 424 m 311 508 q 307 501 310 507 q 303 494 307 500 q 297 483 300 489 q 306 472 300 479 q 315 460 313 464 q 344 369 342 417 q 322 283 347 322 q 178 189 261 193 q 119 199 147 189 q 118 196 118 197 q 90 182 107 183 q 58 192 72 181 q 44 220 46 203 q 54 250 43 238 l 53 251 q 22 393 4 315 q 136 529 42 479 q 161 533 149 536 q 228 529 197 539 q 231 536 229 532 q 233 542 233 540 q 235 545 233 543 q 238 549 236 547 q 263 569 246 564 q 294 565 279 574 q 315 540 310 557 q 311 508 319 524 z "},"":{"ha":469,"x_min":35,"x_max":324,"o":"m 118 499 q 122 285 100 339 q 126 278 125 279 q 131 281 128 278 q 194 364 164 299 q 226 464 219 415 l 226 496 q 239 525 226 513 q 268 538 251 538 q 296 527 285 538 q 310 501 307 517 q 311 489 311 497 q 310 458 311 469 l 310 419 q 313 294 310 321 q 324 229 315 263 q 317 198 326 213 q 292 181 308 183 q 260 185 275 176 q 242 211 246 194 q 232 264 233 256 q 175 210 206 229 q 100 197 136 185 q 46 253 64 208 q 35 507 14 329 q 50 535 36 525 q 81 544 64 546 q 109 529 99 543 q 118 499 119 515 m 154 768 q 160 761 156 767 q 168 753 165 756 l 181 738 q 207 710 201 714 q 223 683 221 700 q 214 651 225 665 q 187 635 204 638 q 156 644 169 633 q 117 685 138 661 q 106 699 107 696 l 94 710 q 83 740 83 722 q 96 769 83 757 q 126 781 108 781 q 154 768 143 781 z "},"":{"ha":469,"x_min":35,"x_max":324,"o":"m 118 499 q 122 285 100 339 q 126 278 125 279 q 131 281 128 278 q 194 364 164 299 q 226 464 219 415 l 226 496 q 239 525 226 513 q 268 538 251 538 q 296 527 285 538 q 310 501 307 517 q 311 489 311 497 q 310 458 311 469 l 310 419 q 313 294 310 321 q 324 229 315 263 q 317 198 326 213 q 292 181 308 183 q 260 185 275 176 q 242 211 246 194 q 232 264 233 256 q 175 210 206 229 q 100 197 136 185 q 46 253 64 208 q 35 507 14 329 q 50 535 36 525 q 81 544 64 546 q 109 529 99 543 q 118 499 119 515 m 231 681 q 226 671 228 675 q 218 654 219 658 q 179 592 199 614 q 119 586 153 561 q 106 615 107 597 q 115 644 104 632 q 144 693 126 660 l 153 708 q 154 714 153 711 q 157 719 156 717 q 182 740 165 735 q 214 736 199 744 q 234 713 229 729 q 231 681 239 696 z "},"":{"ha":469,"x_min":35,"x_max":324,"o":"m 118 499 q 122 285 100 339 q 126 278 125 279 q 131 281 128 278 q 194 364 164 299 q 226 464 219 415 l 226 496 q 239 525 226 513 q 268 538 251 538 q 296 527 285 538 q 310 501 307 517 q 311 489 311 497 q 310 458 311 469 l 310 419 q 313 294 310 321 q 324 229 315 263 q 317 198 326 213 q 292 181 308 183 q 260 185 275 176 q 242 211 246 194 q 232 264 233 256 q 175 210 206 229 q 100 197 136 185 q 46 253 64 208 q 35 507 14 329 q 50 535 36 525 q 81 544 64 546 q 109 529 99 543 q 118 499 119 515 m 58 642 q 104 703 83 682 q 167 731 132 732 q 226 700 196 729 q 271 646 235 692 q 263 588 294 613 q 231 579 249 576 q 204 596 214 582 q 167 640 182 625 q 164 644 164 643 l 163 644 q 128 597 150 633 q 102 578 118 582 q 71 585 86 575 q 52 610 56 594 q 58 642 49 626 z "},"":{"ha":469,"x_min":35,"x_max":324,"o":"m 61 649 q 60 651 61 650 q 57 663 57 657 l 57 667 l 57 668 l 57 669 q 65 699 54 686 q 94 714 76 713 q 124 706 111 717 q 139 676 138 694 q 117 626 149 642 q 85 626 101 619 q 61 649 68 633 m 256 674 q 254 644 261 658 q 233 624 247 629 q 201 623 218 617 q 178 644 185 629 q 176 647 178 647 q 174 660 174 656 l 174 667 q 182 697 171 683 q 211 711 193 710 q 241 703 228 714 q 256 674 254 692 m 118 499 q 122 285 100 339 q 126 278 125 279 q 131 281 128 278 q 194 364 164 299 q 226 464 219 415 l 226 496 q 239 525 226 513 q 268 538 251 538 q 296 527 285 538 q 310 501 307 517 q 311 489 311 497 q 310 458 311 469 l 310 419 q 313 294 310 321 q 324 229 315 263 q 317 198 326 213 q 292 181 308 183 q 260 185 275 176 q 242 211 246 194 q 232 264 233 256 q 175 210 206 229 q 100 197 136 185 q 46 253 64 208 q 35 507 14 329 q 50 535 36 525 q 81 544 64 546 q 109 529 99 543 q 118 499 119 515 z "},"":{"ha":482,"x_min":28,"x_max":336,"o":"m 336 490 q 331 360 332 446 q 329 324 329 342 q 307 125 325 189 q 264 44 292 75 q 178 4 231 8 q 36 69 61 -4 q 32 81 35 72 l 31 82 q 31 85 31 83 q 29 89 31 89 l 29 92 q 33 124 25 108 q 58 143 42 139 q 90 139 75 147 q 110 114 104 131 q 111 110 110 111 q 114 97 113 100 q 118 93 115 94 q 172 88 132 86 q 203 101 189 88 q 226 149 215 114 q 243 260 239 192 q 190 206 215 224 q 116 187 153 178 q 57 240 79 196 q 28 496 22 311 q 42 526 29 514 q 71 536 54 538 q 101 522 89 535 q 111 493 113 510 q 132 276 106 331 q 136 269 135 271 q 142 274 139 269 q 210 367 175 297 q 250 494 244 436 q 260 517 250 504 q 300 536 274 540 q 327 520 317 533 q 336 490 338 507 m 257 682 q 201 592 233 636 q 175 575 192 578 q 143 582 158 572 q 126 608 129 592 q 133 640 124 625 q 183 721 157 671 q 208 741 192 736 q 240 738 225 746 q 260 713 256 729 q 257 682 265 696 z "},"":{"ha":601,"x_min":57,"x_max":456,"o":"m 143 435 q 142 368 143 394 q 140 293 142 315 q 138 94 138 140 q 318 150 256 99 q 372 260 375 196 q 317 374 372 325 q 146 435 253 431 l 143 435 m 146 701 q 146 579 147 676 l 146 518 l 149 518 q 372 436 286 514 q 456 261 456 361 q 371 85 458 157 q 138 11 286 15 q 143 -96 138 -65 q 136 -127 146 -112 q 110 -144 126 -142 q 78 -139 93 -149 q 61 -112 64 -129 q 57 296 51 -60 q 58 369 58 318 q 63 581 63 526 q 63 693 64 675 q 72 723 61 710 q 99 739 82 736 q 130 730 117 740 q 146 701 143 719 z "},"":{"ha":482,"x_min":28,"x_max":336,"o":"m 265 657 q 262 625 271 640 q 236 606 253 610 q 205 609 219 600 q 185 635 190 618 l 185 638 l 183 639 q 183 643 183 642 q 182 649 183 647 q 191 680 181 667 q 218 696 201 693 q 250 688 236 699 q 265 660 264 678 l 265 657 m 336 490 q 331 360 332 446 q 329 324 329 342 q 307 125 325 189 q 264 44 292 75 q 178 4 231 8 q 36 69 61 -4 q 32 81 35 72 l 31 82 q 31 85 31 83 q 29 89 31 89 l 29 92 q 33 124 25 108 q 58 143 42 139 q 90 139 75 147 q 110 114 104 131 q 111 110 110 111 q 114 97 113 100 q 118 93 115 94 q 172 88 132 86 q 203 101 189 88 q 226 149 215 114 q 243 260 239 192 q 190 206 215 224 q 116 187 153 178 q 57 240 79 196 q 28 496 22 311 q 42 526 29 514 q 71 536 54 538 q 101 522 89 535 q 111 493 113 510 q 132 276 106 331 q 136 269 135 271 q 142 274 139 269 q 210 367 175 297 q 250 494 244 436 q 260 517 250 504 q 300 536 274 540 q 327 520 317 533 q 336 490 338 507 m 138 664 l 138 660 q 139 656 139 658 q 133 624 142 639 q 106 607 124 610 q 74 613 89 604 q 57 639 60 622 l 57 643 q 56 647 56 646 q 62 678 53 664 q 89 696 71 693 q 120 690 106 700 q 138 664 135 681 z "},"":{"ha":544,"x_min":31,"x_max":399,"o":"m 126 326 q 282 333 189 325 q 280 353 282 339 q 276 374 278 367 q 217 675 249 592 q 204 700 211 692 q 189 675 196 689 q 129 360 161 617 q 126 326 126 338 m 44 13 q 31 160 26 54 q 47 369 33 254 q 115 713 79 639 q 154 769 133 749 q 217 790 183 796 q 267 757 244 786 q 293 706 285 732 q 360 385 329 614 q 363 356 361 375 q 365 329 365 338 q 379 303 379 318 q 372 274 382 285 q 385 149 381 203 q 399 22 396 44 q 394 -9 403 6 q 367 -28 385 -24 q 335 -22 350 -32 q 318 4 321 -12 q 301 140 314 17 q 290 250 290 246 q 118 243 192 239 q 114 158 114 197 q 121 47 111 68 q 122 15 128 32 q 100 -8 115 -1 q 68 -9 85 -15 q 44 13 51 -3 m 53 900 q 132 938 83 933 q 201 928 161 939 l 210 925 q 258 916 244 915 q 282 928 272 917 q 310 942 293 942 q 342 932 328 943 q 355 903 354 921 q 344 874 356 886 q 260 833 308 833 q 221 836 243 832 l 188 844 l 179 847 q 114 842 132 861 q 84 829 101 829 q 54 840 67 829 q 42 870 42 853 q 53 900 42 888 z "},"":{"ha":522,"x_min":21,"x_max":375,"o":"m 256 407 q 229 446 244 436 q 211 450 221 451 q 140 390 178 443 q 108 297 106 339 q 117 279 110 283 q 147 271 125 271 q 211 296 182 269 l 217 301 q 226 310 219 303 q 257 353 256 335 q 276 383 261 372 q 278 385 278 383 q 256 407 263 392 m 356 357 q 353 332 353 346 q 360 301 356 315 q 363 289 360 300 q 369 263 365 278 q 375 242 374 247 q 370 210 379 225 q 344 192 361 196 q 313 195 328 186 q 294 221 299 204 q 290 235 293 225 q 286 251 288 246 q 281 247 283 249 l 272 239 l 269 238 q 267 235 267 236 q 146 188 214 186 q 63 216 94 189 q 26 289 31 243 q 72 438 19 358 q 193 531 125 518 q 275 515 238 542 q 332 439 310 494 q 331 403 340 419 q 356 357 361 392 m 29 692 q 111 739 60 732 q 186 729 142 740 q 190 728 188 729 q 194 728 192 728 q 263 726 250 713 q 291 740 274 739 q 321 731 308 742 q 335 702 335 719 q 325 672 336 685 q 244 635 294 635 q 207 639 225 635 q 174 646 194 640 q 167 649 167 647 q 96 642 111 663 q 68 626 85 628 q 38 633 51 624 q 22 660 24 643 q 29 692 19 676 z "},"":{"ha":544,"x_min":31,"x_max":399,"o":"m 126 326 q 282 333 189 325 q 280 353 282 339 q 276 374 278 367 q 217 675 249 592 q 204 700 211 692 q 189 675 196 689 q 129 360 161 617 q 126 326 126 338 m 44 13 q 31 160 26 54 q 47 369 33 254 q 115 713 79 639 q 154 769 133 749 q 217 790 183 796 q 267 757 244 786 q 293 706 285 732 q 360 385 329 614 q 363 356 361 375 q 365 329 365 338 q 379 303 379 318 q 372 274 382 285 q 385 149 381 203 q 399 22 396 44 q 394 -9 403 6 q 367 -28 385 -24 q 335 -22 350 -32 q 318 4 321 -12 q 301 140 314 17 q 290 250 290 246 q 118 243 192 239 q 114 158 114 197 q 121 47 111 68 q 122 15 128 32 q 100 -8 115 -1 q 68 -9 85 -15 q 44 13 51 -3 m 150 922 q 154 915 150 917 q 183 910 167 908 q 217 919 203 910 q 224 932 224 925 q 235 961 224 949 q 265 974 247 974 q 295 961 283 974 q 307 932 307 949 q 265 853 307 882 q 189 826 232 829 q 111 843 149 822 q 67 922 67 869 q 78 952 67 940 q 108 964 90 964 q 138 952 125 964 q 150 922 150 940 z "},"":{"ha":522,"x_min":26,"x_max":375,"o":"m 256 407 q 229 446 244 436 q 211 450 221 451 q 140 390 178 443 q 108 297 106 339 q 117 279 110 283 q 147 271 125 271 q 211 296 182 269 l 217 301 q 226 310 219 303 q 257 353 256 335 q 276 383 261 372 q 278 385 278 383 q 256 407 263 392 m 356 357 q 353 332 353 346 q 360 301 356 315 q 363 289 360 300 q 369 263 365 278 q 375 242 374 247 q 370 210 379 225 q 344 192 361 196 q 313 195 328 186 q 294 221 299 204 q 290 235 293 225 q 286 251 288 246 q 281 247 283 249 l 272 239 l 269 238 q 267 235 267 236 q 146 188 214 186 q 63 216 94 189 q 26 289 31 243 q 72 438 19 358 q 193 531 125 518 q 275 515 238 542 q 332 439 310 494 q 331 403 340 419 q 356 357 361 392 m 126 683 q 136 665 128 671 q 165 660 146 657 q 193 669 181 660 q 196 685 197 676 q 201 716 192 701 q 228 735 211 731 q 259 728 244 738 q 278 703 274 719 q 251 611 289 649 q 174 576 221 581 q 90 596 125 572 q 43 681 44 625 q 55 710 43 697 q 83 724 67 722 q 114 712 101 724 q 126 683 126 700 z "},"":{"ha":610,"x_min":31,"x_max":461,"o":"m 126 326 q 282 333 189 325 q 280 353 282 339 q 276 374 278 367 q 217 675 249 592 q 204 700 211 692 q 189 675 196 689 q 129 360 161 617 q 126 326 126 338 m 44 13 q 31 160 26 54 q 47 369 33 254 q 115 713 79 639 q 154 769 133 749 q 217 790 183 796 q 267 757 244 786 q 293 706 285 732 q 360 385 329 614 q 363 356 361 375 q 365 329 365 338 q 379 303 379 318 q 372 274 382 285 q 385 149 381 203 q 399 22 396 44 q 394 -9 403 6 q 367 -28 385 -24 q 335 -22 350 -32 q 318 4 321 -12 q 301 140 314 17 q 290 250 290 246 q 118 243 192 239 q 114 158 114 197 q 121 47 111 68 q 122 15 128 32 q 100 -8 115 -1 q 68 -9 85 -15 q 44 13 51 -3 m 394 -94 q 389 -122 389 -107 q 393 -135 392 -131 q 401 -122 397 -131 q 447 -108 419 -94 q 461 -154 475 -126 q 410 -201 440 -192 q 349 -185 374 -210 q 324 -131 328 -164 q 333 -67 319 -99 q 378 -50 347 -37 q 394 -94 408 -65 z "},"":{"ha":572,"x_min":26,"x_max":428,"o":"m 256 407 q 229 446 244 436 q 211 450 221 451 q 140 390 178 443 q 108 297 106 339 q 117 279 110 283 q 147 271 125 271 q 211 296 182 269 l 217 301 q 226 310 219 303 q 257 353 256 335 q 276 383 261 372 q 278 385 278 383 q 256 407 263 392 m 356 357 q 353 332 353 346 q 360 301 356 315 q 363 289 360 300 q 369 263 365 278 q 375 242 374 247 q 370 210 379 225 q 344 192 361 196 q 313 195 328 186 q 294 221 299 204 q 290 235 293 225 q 286 251 288 246 q 281 247 283 249 l 272 239 l 269 238 q 267 235 267 236 q 146 188 214 186 q 63 216 94 189 q 26 289 31 243 q 72 438 19 358 q 193 531 125 518 q 275 515 238 542 q 332 439 310 494 q 331 403 340 419 q 356 357 361 392 m 360 158 q 364 152 360 158 q 363 133 367 146 q 360 111 358 121 q 361 101 360 103 l 363 101 q 375 110 369 103 q 399 115 385 117 q 421 103 413 114 q 428 78 429 92 q 415 57 426 65 q 358 35 385 35 q 310 61 328 35 q 300 154 281 99 q 317 173 304 167 q 342 174 329 179 q 360 158 354 169 z "},"":{"ha":535,"x_min":22,"x_max":389,"o":"m 265 643 q 235 678 256 663 q 196 696 214 694 q 138 656 160 697 q 106 511 111 604 q 110 331 100 439 q 131 193 119 239 q 183 96 150 118 q 228 96 203 81 q 283 158 258 110 q 306 267 310 210 q 316 297 304 283 q 346 310 328 310 q 375 300 363 311 q 389 271 388 289 q 358 122 393 192 q 267 22 324 51 q 136 26 199 -15 q 50 172 78 67 q 26 322 36 228 q 22 517 17 439 q 64 693 31 631 q 201 779 110 785 q 281 748 242 776 q 340 681 321 719 q 342 649 347 665 q 321 625 336 632 q 290 623 306 618 q 265 643 274 628 m 258 960 q 238 928 253 953 l 236 925 q 233 922 235 924 q 199 868 201 871 q 172 850 189 854 q 142 856 156 846 q 124 883 128 865 q 129 914 119 900 q 163 965 144 936 q 165 969 164 967 l 167 971 q 188 1006 176 986 q 215 1024 197 1019 q 246 1018 232 1028 q 264 991 260 1008 q 258 960 268 974 z "},"":{"ha":476,"x_min":19,"x_max":329,"o":"m 215 438 q 189 446 206 453 q 131 389 157 432 q 103 307 103 346 q 128 269 103 278 q 185 281 142 265 q 198 285 190 283 q 208 289 206 288 q 253 297 235 296 q 306 289 281 300 q 329 267 322 283 q 329 235 336 250 q 306 213 322 219 q 275 213 290 206 q 233 208 258 217 q 213 201 222 206 q 163 188 185 192 q 100 192 126 181 q 19 304 22 219 q 60 433 18 367 q 156 522 100 499 q 226 528 192 538 q 283 486 261 519 q 292 456 294 472 q 274 428 289 439 q 242 421 260 418 q 215 438 225 424 m 235 697 q 169 604 210 640 q 140 593 157 593 q 111 607 122 593 q 99 637 99 619 q 113 665 100 654 q 160 732 139 689 q 183 753 167 747 q 214 753 199 760 q 236 729 231 746 q 235 697 242 713 z "},"":{"ha":535,"x_min":22,"x_max":389,"o":"m 265 643 q 235 678 256 663 q 196 696 214 694 q 138 656 160 697 q 106 511 111 604 q 110 331 100 439 q 131 193 119 239 q 183 96 150 118 q 228 96 203 81 q 283 158 258 110 q 306 267 310 210 q 316 297 304 283 q 346 310 328 310 q 375 300 363 311 q 389 271 388 289 q 358 122 393 192 q 267 22 324 51 q 136 26 199 -15 q 50 172 78 67 q 26 322 36 228 q 22 517 17 439 q 64 693 31 631 q 201 779 110 785 q 281 748 242 776 q 340 681 321 719 q 342 649 347 665 q 321 625 336 632 q 290 623 306 618 q 265 643 274 628 m 56 931 q 108 982 86 965 q 174 1004 142 1006 q 236 969 208 1003 q 276 903 258 944 q 277 871 283 888 q 256 847 271 854 q 224 847 240 840 q 200 869 207 853 q 174 915 185 904 l 168 921 l 167 921 l 164 919 q 157 914 160 917 q 118 876 144 906 q 91 862 108 863 q 60 872 74 861 q 46 900 47 883 q 56 931 44 917 z "},"":{"ha":476,"x_min":19,"x_max":329,"o":"m 215 438 q 189 446 206 453 q 131 389 157 432 q 103 307 103 346 q 128 269 103 278 q 185 281 142 265 q 198 285 190 283 q 208 289 206 288 q 253 297 235 296 q 306 289 281 300 q 329 267 322 283 q 329 235 336 250 q 306 213 322 219 q 275 213 290 206 q 233 208 258 217 q 213 201 222 206 q 163 188 185 192 q 100 192 126 181 q 19 304 22 219 q 60 433 18 367 q 156 522 100 499 q 226 528 192 538 q 283 486 261 519 q 292 456 294 472 q 274 428 289 439 q 242 421 260 418 q 215 438 225 424 m 75 639 q 118 686 96 664 q 171 715 143 711 q 233 693 203 719 q 275 640 254 672 q 281 609 285 626 q 263 582 276 592 q 231 576 249 572 q 204 594 214 581 q 179 629 190 618 l 175 625 q 138 585 157 607 q 110 570 128 571 q 79 581 93 569 q 75 639 49 607 z "},"":{"ha":535,"x_min":22,"x_max":389,"o":"m 265 643 q 235 678 256 663 q 196 696 214 694 q 138 656 160 697 q 106 511 111 604 q 110 331 100 439 q 131 193 119 239 q 183 96 150 118 q 228 96 203 81 q 283 158 258 110 q 306 267 310 210 q 316 297 304 283 q 346 310 328 310 q 375 300 363 311 q 389 271 388 289 q 358 122 393 192 q 267 22 324 51 q 136 26 199 -15 q 50 172 78 67 q 26 322 36 228 q 22 517 17 439 q 64 693 31 631 q 201 779 110 785 q 281 748 242 776 q 340 681 321 719 q 342 649 347 665 q 321 625 336 632 q 290 623 306 618 q 265 643 274 628 m 203 914 l 206 908 l 208 903 q 211 872 217 888 q 190 847 206 856 q 159 844 176 839 q 135 865 142 850 q 132 869 133 867 l 129 875 q 126 907 121 890 q 146 932 131 924 q 178 934 161 939 q 203 914 194 929 z "},"":{"ha":476,"x_min":19,"x_max":329,"o":"m 196 667 q 208 638 208 656 q 197 610 208 621 q 169 595 186 596 q 139 607 151 594 l 136 608 q 133 613 135 610 q 129 617 131 615 q 125 624 125 621 q 119 655 115 638 q 138 681 124 672 q 169 686 151 690 q 194 668 186 682 q 196 667 196 668 m 215 438 q 189 446 206 453 q 131 389 157 432 q 103 307 103 346 q 128 269 103 278 q 185 281 142 265 q 198 285 190 283 q 208 289 206 288 q 253 297 235 296 q 306 289 281 300 q 329 267 322 283 q 329 235 336 250 q 306 213 322 219 q 275 213 290 206 q 233 208 258 217 q 213 201 222 206 q 163 188 185 192 q 100 192 126 181 q 19 304 22 219 q 60 433 18 367 q 156 522 100 499 q 226 528 192 538 q 283 486 261 519 q 292 456 294 472 q 274 428 289 439 q 242 421 260 418 q 215 438 225 424 z "},"":{"ha":535,"x_min":22,"x_max":389,"o":"m 178 940 q 204 976 182 944 q 231 993 214 990 q 263 986 247 996 q 279 959 276 975 q 272 928 282 943 q 233 875 253 900 q 210 857 214 860 q 174 847 192 846 q 140 860 158 847 q 119 881 132 865 q 81 936 113 889 q 75 967 71 950 q 93 994 79 985 q 125 1000 108 1004 q 151 981 142 996 q 178 940 164 961 m 265 643 q 235 678 256 663 q 196 696 214 694 q 138 656 160 697 q 106 511 111 604 q 110 331 100 439 q 131 193 119 239 q 183 96 150 118 q 228 96 203 81 q 283 158 258 110 q 306 267 310 210 q 316 297 304 283 q 346 310 328 310 q 375 300 363 311 q 389 271 388 289 q 358 122 393 192 q 267 22 324 51 q 136 26 199 -15 q 50 172 78 67 q 26 322 36 228 q 22 517 17 439 q 64 693 31 631 q 201 779 110 785 q 281 748 242 776 q 340 681 321 719 q 342 649 347 665 q 321 625 336 632 q 290 623 306 618 q 265 643 274 628 z "},"":{"ha":476,"x_min":19,"x_max":329,"o":"m 165 668 l 175 678 l 179 683 q 188 692 183 688 q 194 699 192 697 q 223 713 206 713 q 253 701 240 713 q 266 673 265 690 q 256 643 267 656 q 246 631 254 640 q 236 621 238 622 q 219 603 224 608 q 200 588 206 592 q 169 578 186 581 q 136 585 154 576 q 115 601 125 592 q 75 646 97 619 q 65 677 64 660 q 81 704 67 694 q 111 714 94 715 q 139 699 128 713 q 154 681 146 690 q 165 668 163 671 m 215 438 q 189 446 206 453 q 131 389 157 432 q 103 307 103 346 q 128 269 103 278 q 185 281 142 265 q 198 285 190 283 q 208 289 206 288 q 253 297 235 296 q 306 289 281 300 q 329 267 322 283 q 329 235 336 250 q 306 213 322 219 q 275 213 290 206 q 233 208 258 217 q 213 201 222 206 q 163 188 185 192 q 100 192 126 181 q 19 304 22 219 q 60 433 18 367 q 156 522 100 499 q 226 528 192 538 q 283 486 261 519 q 292 456 294 472 q 274 428 289 439 q 242 421 260 418 q 215 438 225 424 z "},"":{"ha":529,"x_min":22,"x_max":383,"o":"m 146 82 q 238 167 200 107 q 300 401 300 264 q 240 626 303 538 q 113 701 189 696 q 129 389 113 618 l 129 386 q 146 82 144 156 m 58 782 q 308 675 215 803 q 383 401 386 565 q 308 122 383 238 q 71 -17 221 -17 q 42 -4 54 -17 q 29 25 29 8 q 63 65 29 58 q 46 379 61 175 l 46 382 q 29 718 29 604 q 22 736 25 724 q 30 767 19 753 q 58 782 40 781 m 106 985 q 142 929 125 949 q 153 921 147 924 q 154 919 153 919 q 164 926 160 922 q 203 976 179 939 q 260 990 225 1010 q 279 964 275 981 q 274 932 283 947 q 221 865 242 885 q 149 836 185 835 q 81 872 113 838 q 32 946 60 897 q 30 976 25 960 q 50 1001 35 993 q 82 1005 65 1010 q 106 985 99 1000 z "},"":{"ha":657,"x_min":42,"x_max":511,"o":"m 346 736 l 346 663 q 347 444 346 506 q 358 229 350 314 q 349 199 360 213 q 321 185 338 186 q 278 210 290 181 q 247 200 253 201 q 169 188 203 188 q 42 274 72 190 q 49 417 17 336 q 147 525 79 494 q 263 528 204 551 l 263 664 l 263 736 q 274 765 263 753 q 304 778 286 778 q 334 765 322 778 q 346 736 346 753 m 263 433 q 182 450 221 465 q 126 385 143 432 q 119 303 106 336 q 172 271 129 272 l 178 271 q 185 273 181 272 q 192 274 189 274 q 226 281 201 275 q 242 285 231 282 q 258 292 253 289 q 268 296 263 293 l 269 297 q 264 432 267 343 l 263 433 m 461 643 q 511 547 503 597 q 476 436 519 490 q 448 422 465 424 q 418 431 431 421 q 403 459 404 442 q 413 490 401 476 q 429 536 432 513 q 400 586 425 560 q 388 616 388 599 q 401 646 389 633 q 433 656 415 657 q 461 643 450 656 z "},"":{"ha":529,"x_min":-25,"x_max":383,"o":"m 146 82 q 238 167 200 107 q 300 401 300 264 q 240 626 303 538 q 113 701 189 696 q 125 450 113 621 l 161 450 q 190 438 178 450 q 203 408 203 426 q 190 378 203 390 q 161 367 178 367 l 131 367 q 146 82 144 182 m 58 782 q 308 675 215 803 q 383 401 386 565 q 308 122 383 238 q 71 -17 221 -17 q 42 -4 54 -17 q 29 25 29 8 q 63 65 29 58 q 47 364 61 164 q 32 363 42 364 q 17 363 22 363 q -12 375 0 363 q -25 404 -25 388 q -12 434 -25 422 q 17 446 0 446 q 28 447 21 446 q 42 447 36 447 q 29 718 29 606 q 22 736 25 724 q 30 767 19 753 q 58 782 40 781 z "},"":{"ha":590,"x_min":42,"x_max":446,"o":"m 263 433 q 182 450 221 465 q 126 385 143 432 q 119 303 106 336 q 172 271 129 272 l 178 271 q 185 273 181 272 q 192 274 189 274 q 226 281 201 275 q 242 285 231 282 q 258 292 253 289 q 268 296 263 293 l 269 297 q 264 432 267 343 l 263 433 m 157 671 q 229 697 185 694 q 263 696 250 697 l 263 736 q 274 765 263 753 q 304 778 286 778 q 334 765 322 778 q 346 736 346 753 l 346 676 q 365 674 363 674 l 372 674 q 429 679 397 701 q 445 651 443 668 q 436 621 447 635 q 399 594 422 601 q 360 590 386 590 q 353 591 358 590 q 346 592 347 592 q 347 444 346 490 q 358 229 350 314 q 349 199 360 213 q 321 185 338 186 q 278 210 290 181 q 247 200 253 201 q 169 188 203 188 q 42 274 72 190 q 49 417 17 336 q 147 525 79 494 q 263 528 204 551 l 263 611 q 214 608 225 619 q 183 598 200 597 q 154 611 165 599 q 144 642 143 625 q 157 671 144 660 z "},"":{"ha":460,"x_min":25,"x_max":314,"o":"m 82 781 q 178 775 118 774 l 211 775 q 265 776 239 776 q 295 765 283 776 q 307 735 307 753 q 295 706 307 718 q 265 693 283 693 q 214 692 240 693 l 179 692 l 121 692 q 122 431 118 568 q 135 432 126 432 q 174 433 146 433 q 201 435 193 433 q 217 436 211 435 q 247 427 233 438 q 263 400 260 417 q 255 368 265 382 q 226 353 244 354 q 206 351 219 351 q 174 350 197 350 q 124 347 149 350 q 124 336 124 344 q 125 322 125 328 q 129 82 129 147 q 185 86 153 82 q 208 88 190 86 q 244 90 226 89 q 269 93 267 93 q 299 83 286 94 q 314 56 313 72 q 304 26 315 39 q 276 10 293 13 q 266 9 274 10 q 253 8 258 8 q 192 3 243 7 q 82 -3 136 -3 q 53 10 65 -3 q 40 39 40 22 q 46 58 40 47 q 42 321 46 125 l 39 399 q 39 718 35 588 q 33 746 31 729 q 51 773 36 763 q 82 781 65 783 m 40 914 q 108 938 71 940 q 164 928 131 938 q 171 925 165 928 q 221 919 211 914 q 251 930 233 931 q 279 917 268 929 q 290 887 290 904 q 275 858 289 869 q 204 833 247 831 q 147 846 183 835 q 140 849 142 847 q 94 850 104 860 q 63 840 81 839 q 35 856 46 842 q 25 885 24 868 q 40 914 26 903 z "},"":{"ha":485,"x_min":38,"x_max":340,"o":"m 247 414 q 226 449 242 435 q 193 454 213 458 q 147 427 168 449 q 119 376 125 406 q 117 361 117 365 q 185 388 176 385 q 242 413 196 392 l 244 414 l 247 414 m 153 285 q 156 282 154 283 q 160 281 158 281 l 165 278 q 176 274 168 276 q 210 271 196 271 q 274 289 251 274 q 305 298 288 300 q 332 282 322 296 q 340 250 342 267 q 324 222 338 233 q 211 188 279 190 q 113 211 149 188 q 47 292 67 243 q 38 394 26 342 q 88 485 49 447 q 176 535 126 524 q 275 517 229 547 q 332 417 319 485 l 332 411 q 333 403 332 410 l 333 394 q 322 364 335 379 q 217 310 307 349 q 185 297 207 306 q 153 285 164 289 m 42 640 q 124 714 61 711 q 169 706 144 714 q 207 692 182 703 q 214 689 213 689 q 256 676 244 676 q 264 679 260 675 q 291 695 274 693 q 322 686 308 697 q 338 659 336 676 q 329 628 340 642 q 249 593 299 589 q 182 611 225 594 q 175 614 179 614 q 128 631 136 631 l 126 631 l 126 628 q 121 617 122 624 q 101 592 117 600 q 69 588 86 583 q 44 608 53 593 q 42 640 36 624 z "},"":{"ha":460,"x_min":11,"x_max":314,"o":"m 82 781 q 178 775 118 774 l 211 775 q 265 776 239 776 q 295 765 283 776 q 307 735 307 753 q 295 706 307 718 q 265 693 283 693 q 214 692 240 693 l 179 692 l 121 692 q 122 431 118 568 q 135 432 126 432 q 174 433 146 433 q 201 435 193 433 q 217 436 211 435 q 247 427 233 438 q 263 400 260 417 q 255 368 265 382 q 226 353 244 354 q 206 351 219 351 q 174 350 197 350 q 124 347 149 350 q 124 336 124 344 q 125 322 125 328 q 129 82 129 147 q 185 86 153 82 q 208 88 190 86 q 244 90 226 89 q 269 93 267 93 q 299 83 286 94 q 314 56 313 72 q 304 26 315 39 q 276 10 293 13 q 266 9 274 10 q 253 8 258 8 q 192 3 243 7 q 82 -3 136 -3 q 53 10 65 -3 q 40 39 40 22 q 46 58 40 47 q 42 321 46 125 l 39 399 q 39 718 35 588 q 33 746 31 729 q 51 773 36 763 q 82 781 65 783 m 11 892 q 86 965 26 958 q 131 961 106 967 q 168 947 146 957 q 174 945 169 947 q 181 942 178 943 q 213 929 200 933 l 214 929 q 227 958 215 946 q 256 969 239 969 q 285 957 274 969 q 297 928 297 944 q 282 869 297 890 q 228 842 264 844 q 185 850 208 842 q 147 865 167 857 l 136 871 q 94 882 104 883 q 92 872 94 881 q 73 847 88 856 q 42 842 58 838 q 16 860 25 844 q 11 892 7 875 z "},"":{"ha":485,"x_min":38,"x_max":340,"o":"m 247 414 q 226 449 242 435 q 193 454 213 458 q 147 427 168 449 q 119 376 125 406 q 117 361 117 365 q 185 388 176 385 q 242 413 196 392 l 244 414 l 247 414 m 153 285 q 156 282 154 283 q 160 281 158 281 l 165 278 q 176 274 168 276 q 210 271 196 271 q 274 289 251 274 q 305 298 288 300 q 332 282 322 296 q 340 250 342 267 q 324 222 338 233 q 211 188 279 190 q 113 211 149 188 q 47 292 67 243 q 38 394 26 342 q 88 485 49 447 q 176 535 126 524 q 275 517 229 547 q 332 417 319 485 l 332 411 q 333 403 332 410 l 333 394 q 322 364 335 379 q 217 310 307 349 q 185 297 207 306 q 153 285 164 289 m 133 675 q 138 667 133 669 q 172 657 149 660 q 211 664 199 657 q 218 669 218 667 q 233 699 219 688 q 263 708 246 710 q 292 694 281 707 q 301 664 303 682 q 249 590 297 615 q 168 574 215 571 q 90 599 121 576 q 50 683 46 629 q 65 711 51 700 q 96 721 79 722 q 125 706 114 719 q 133 675 136 692 z "},"":{"ha":460,"x_min":33,"x_max":314,"o":"m 82 781 q 178 775 118 774 l 211 775 q 265 776 239 776 q 295 765 283 776 q 307 735 307 753 q 295 706 307 718 q 265 693 283 693 q 214 692 240 693 l 179 692 l 121 692 q 122 431 118 568 q 135 432 126 432 q 174 433 146 433 q 201 435 193 433 q 217 436 211 435 q 247 427 233 438 q 263 400 260 417 q 255 368 265 382 q 226 353 244 354 q 206 351 219 351 q 174 350 197 350 q 124 347 149 350 q 124 336 124 344 q 125 322 125 328 q 129 82 129 147 q 185 86 153 82 q 208 88 190 86 q 244 90 226 89 q 269 93 267 93 q 299 83 286 94 q 314 56 313 72 q 304 26 315 39 q 276 10 293 13 q 266 9 274 10 q 253 8 258 8 q 192 3 243 7 q 82 -3 136 -3 q 53 10 65 -3 q 40 39 40 22 q 46 58 40 47 q 42 321 46 125 l 39 399 q 39 718 35 588 q 33 746 31 729 q 51 773 36 763 q 82 781 65 783 m 189 924 q 192 917 189 922 l 192 915 q 198 885 201 901 q 181 858 194 868 q 122 869 146 836 l 121 872 l 118 878 l 114 886 q 111 918 106 901 q 132 942 117 935 q 164 944 147 949 q 189 924 181 939 z "},"":{"ha":485,"x_min":38,"x_max":340,"o":"m 247 414 q 226 449 242 435 q 193 454 213 458 q 147 427 168 449 q 119 376 125 406 q 117 361 117 365 q 185 388 176 385 q 242 413 196 392 l 244 414 l 247 414 m 153 285 q 156 282 154 283 q 160 281 158 281 l 165 278 q 176 274 168 276 q 210 271 196 271 q 274 289 251 274 q 305 298 288 300 q 332 282 322 296 q 340 250 342 267 q 324 222 338 233 q 211 188 279 190 q 113 211 149 188 q 47 292 67 243 q 38 394 26 342 q 88 485 49 447 q 176 535 126 524 q 275 517 229 547 q 332 417 319 485 l 332 411 q 333 403 332 410 l 333 394 q 322 364 335 379 q 217 310 307 349 q 185 297 207 306 q 153 285 164 289 m 208 668 l 215 661 q 226 630 226 647 q 211 601 225 613 q 181 592 199 590 q 153 606 164 593 q 149 611 150 608 q 136 640 136 622 q 149 669 136 657 q 178 681 161 681 q 208 668 196 681 z "},"":{"ha":460,"x_min":33,"x_max":314,"o":"m 82 781 q 178 775 118 774 l 211 775 q 265 776 239 776 q 295 765 283 776 q 307 735 307 753 q 295 706 307 718 q 265 693 283 693 q 214 692 240 693 l 179 692 l 121 692 q 122 431 118 568 q 135 432 126 432 q 174 433 146 433 q 201 435 193 433 q 217 436 211 435 q 247 427 233 438 q 263 400 260 417 q 255 368 265 382 q 226 353 244 354 q 206 351 219 351 q 174 350 197 350 q 124 347 149 350 q 124 336 124 344 q 125 322 125 328 q 129 82 129 147 q 185 86 153 82 q 208 88 190 86 q 244 90 226 89 q 269 93 267 93 q 299 83 286 94 q 314 56 313 72 q 304 26 315 39 q 276 10 293 13 q 266 9 274 10 q 253 8 258 8 q 192 3 243 7 q 82 -3 136 -3 q 53 10 65 -3 q 40 39 40 22 q 46 58 40 47 q 42 321 46 125 l 39 399 q 39 718 35 588 q 33 746 31 729 q 51 773 36 763 q 82 781 65 783 m 178 -56 q 171 -117 167 -90 q 175 -115 172 -117 q 181 -111 178 -112 q 205 -104 192 -103 q 226 -117 218 -106 q 221 -164 246 -143 q 149 -185 182 -193 q 119 -162 129 -178 q 107 -135 111 -153 q 117 -32 94 -83 q 160 -12 126 -3 q 178 -31 172 -18 q 178 -56 183 -43 z "},"":{"ha":485,"x_min":38,"x_max":340,"o":"m 247 414 q 226 449 242 435 q 193 454 213 458 q 147 427 168 449 q 119 376 125 406 q 117 361 117 365 q 185 388 176 385 q 242 413 196 392 l 244 414 l 247 414 m 153 285 q 156 282 154 283 q 160 281 158 281 l 165 278 q 176 274 168 276 q 210 271 196 271 q 274 289 251 274 q 305 298 288 300 q 332 282 322 296 q 340 250 342 267 q 324 222 338 233 q 211 188 279 190 q 113 211 149 188 q 47 292 67 243 q 38 394 26 342 q 88 485 49 447 q 176 535 126 524 q 275 517 229 547 q 332 417 319 485 l 332 411 q 333 403 332 410 l 333 394 q 322 364 335 379 q 217 310 307 349 q 185 297 207 306 q 153 285 164 289 m 204 147 q 207 97 200 121 q 208 94 207 96 l 208 92 q 239 104 221 108 q 265 68 269 100 q 232 13 258 26 q 196 11 213 6 q 172 28 182 18 q 140 153 132 71 q 151 175 142 167 q 175 182 161 183 q 197 170 189 181 q 204 147 206 160 z "},"":{"ha":460,"x_min":33,"x_max":314,"o":"m 156 942 q 182 976 181 972 q 210 992 193 990 q 242 982 228 993 q 257 955 256 972 q 247 924 258 938 q 235 908 244 921 q 216 885 225 896 q 204 871 207 874 q 182 850 196 860 q 136 843 158 836 q 108 861 119 847 q 93 882 99 871 q 64 940 85 896 q 64 972 57 956 q 86 994 71 989 q 117 995 101 1001 q 140 974 133 989 q 156 942 146 961 m 82 781 q 178 775 118 774 l 211 775 q 265 776 239 776 q 295 765 283 776 q 307 735 307 753 q 295 706 307 718 q 265 693 283 693 q 214 692 240 693 l 179 692 l 121 692 q 122 431 118 568 q 135 432 126 432 q 174 433 146 433 q 201 435 193 433 q 217 436 211 435 q 247 427 233 438 q 263 400 260 417 q 255 368 265 382 q 226 353 244 354 q 206 351 219 351 q 174 350 197 350 q 124 347 149 350 q 124 336 124 344 q 125 322 125 328 q 129 82 129 147 q 185 86 153 82 q 208 88 190 86 q 244 90 226 89 q 269 93 267 93 q 299 83 286 94 q 314 56 313 72 q 304 26 315 39 q 276 10 293 13 q 266 9 274 10 q 253 8 258 8 q 192 3 243 7 q 82 -3 136 -3 q 53 10 65 -3 q 40 39 40 22 q 46 58 40 47 q 42 321 46 125 l 39 399 q 39 718 35 588 q 33 746 31 729 q 51 773 36 763 q 82 781 65 783 z "},"":{"ha":485,"x_min":38,"x_max":340,"o":"m 247 414 q 226 449 242 435 q 193 454 213 458 q 147 427 168 449 q 119 376 125 406 q 117 361 117 365 q 185 388 176 385 q 242 413 196 392 l 244 414 l 247 414 m 153 285 q 156 282 154 283 q 160 281 158 281 l 165 278 q 176 274 168 276 q 210 271 196 271 q 274 289 251 274 q 305 298 288 300 q 332 282 322 296 q 340 250 342 267 q 324 222 338 233 q 211 188 279 190 q 113 211 149 188 q 47 292 67 243 q 38 394 26 342 q 88 485 49 447 q 176 535 126 524 q 275 517 229 547 q 332 417 319 485 l 332 411 q 333 403 332 410 l 333 394 q 322 364 335 379 q 217 310 307 349 q 185 297 207 306 q 153 285 164 289 m 179 682 q 196 708 186 689 q 222 728 204 724 q 253 725 239 733 q 273 700 268 717 q 269 668 278 683 q 235 618 250 633 q 178 590 211 590 q 124 619 149 590 q 88 672 106 636 q 84 703 79 686 q 103 729 89 721 q 135 733 118 738 q 160 714 151 729 q 179 682 178 683 z "},"":{"ha":531,"x_min":15,"x_max":383,"o":"m 256 565 q 247 624 257 590 q 224 679 238 658 q 210 693 215 689 q 206 696 207 696 q 196 692 203 696 q 169 667 183 683 q 99 393 101 579 q 115 234 97 307 q 163 122 132 161 q 199 92 183 97 q 215 92 207 88 q 268 163 243 103 q 301 296 294 228 q 301 349 304 325 q 179 338 218 340 q 149 348 161 336 q 135 378 136 360 q 144 407 133 394 q 174 421 156 419 q 294 432 217 424 q 303 439 300 438 q 335 446 318 449 q 361 428 351 443 q 383 289 392 381 q 344 131 376 204 q 247 15 307 40 q 168 14 210 -1 q 97 71 132 28 q 15 394 13 178 q 104 718 18 611 q 207 779 153 779 q 292 728 256 778 q 328 647 314 694 q 339 563 342 600 q 326 533 339 544 q 296 522 314 522 q 267 536 279 524 q 256 565 256 549 m 76 915 q 135 979 117 961 q 167 1000 153 994 q 213 1000 189 1008 q 258 961 233 994 q 294 901 269 946 q 299 869 303 886 q 279 844 294 853 q 248 841 265 836 q 222 860 231 846 q 190 913 203 894 q 190 914 190 914 q 189 915 189 914 q 140 861 185 911 q 112 847 129 847 q 82 857 94 846 q 67 884 68 867 q 76 915 65 901 z "},"":{"ha":500,"x_min":24,"x_max":354,"o":"m 263 435 q 151 438 197 467 q 107 365 107 413 q 140 286 107 311 q 271 288 182 256 l 271 290 q 265 383 271 306 q 263 421 265 404 l 263 435 m 343 506 q 349 390 342 489 q 354 293 354 307 q 333 97 358 165 q 178 7 290 -14 q 57 53 110 18 q 38 78 42 63 q 44 110 35 94 q 72 128 54 124 q 103 122 89 132 q 192 89 139 99 q 231 93 217 85 q 254 128 244 101 q 269 199 265 151 q 92 218 161 169 q 24 365 24 269 q 47 449 24 410 q 110 510 69 488 q 263 524 178 550 q 306 550 275 553 q 333 536 322 549 q 343 506 344 524 m 63 668 q 88 702 65 672 q 114 738 110 732 q 136 761 122 747 q 172 776 157 776 q 214 764 193 778 q 235 740 228 750 q 278 675 278 683 q 285 644 288 660 q 267 618 282 628 q 235 611 251 608 q 208 629 219 614 q 175 681 203 640 q 129 618 150 643 q 102 601 119 604 q 71 610 85 599 q 55 636 57 619 q 63 668 53 653 z "},"":{"ha":531,"x_min":15,"x_max":383,"o":"m 256 565 q 247 624 257 590 q 224 679 238 658 q 210 693 215 689 q 206 696 207 696 q 196 692 203 696 q 169 667 183 683 q 99 393 101 579 q 115 234 97 307 q 163 122 132 161 q 199 92 183 97 q 215 92 207 88 q 268 163 243 103 q 301 296 294 228 q 301 349 304 325 q 179 338 218 340 q 149 348 161 336 q 135 378 136 360 q 144 407 133 394 q 174 421 156 419 q 294 432 217 424 q 303 439 300 438 q 335 446 318 449 q 361 428 351 443 q 383 289 392 381 q 344 131 376 204 q 247 15 307 40 q 168 14 210 -1 q 97 71 132 28 q 15 394 13 178 q 104 718 18 611 q 207 779 153 779 q 292 728 256 778 q 328 647 314 694 q 339 563 342 600 q 326 533 339 544 q 296 522 314 522 q 267 536 279 524 q 256 565 256 549 m 161 921 q 167 906 161 911 q 189 900 175 900 q 213 908 204 900 q 221 924 221 913 q 233 953 221 940 q 263 965 244 965 q 291 953 279 965 q 303 924 303 940 q 265 843 303 874 q 190 817 232 817 q 114 842 144 817 q 78 925 75 871 q 92 954 79 943 q 121 965 104 965 q 151 951 139 964 q 161 921 163 939 z "},"":{"ha":500,"x_min":24,"x_max":354,"o":"m 263 435 q 151 438 197 467 q 107 365 107 413 q 140 286 107 311 q 271 288 182 256 l 271 290 q 265 383 271 306 q 263 421 265 404 l 263 435 m 343 506 q 349 390 342 489 q 354 293 354 307 q 333 97 358 165 q 178 7 290 -14 q 57 53 110 18 q 38 78 42 63 q 44 110 35 94 q 72 128 54 124 q 103 122 89 132 q 192 89 139 99 q 231 93 217 85 q 254 128 244 101 q 269 199 265 151 q 92 218 161 169 q 24 365 24 269 q 47 449 24 410 q 110 510 69 488 q 263 524 178 550 q 306 550 275 553 q 333 536 322 549 q 343 506 344 524 m 139 707 q 149 688 138 697 q 190 675 168 675 q 225 683 214 675 q 228 694 229 688 q 233 726 224 711 q 260 744 243 740 q 291 738 276 747 q 308 711 306 729 q 275 617 321 651 q 188 592 239 589 q 101 619 135 594 q 56 710 53 653 q 68 738 56 726 q 99 750 81 750 q 127 737 115 749 q 139 707 139 725 z "},"":{"ha":531,"x_min":15,"x_max":383,"o":"m 256 565 q 247 624 257 590 q 224 679 238 658 q 210 693 215 689 q 206 696 207 696 q 196 692 203 696 q 169 667 183 683 q 99 393 101 579 q 115 234 97 307 q 163 122 132 161 q 199 92 183 97 q 215 92 207 88 q 268 163 243 103 q 301 296 294 228 q 301 349 304 325 q 179 338 218 340 q 149 348 161 336 q 135 378 136 360 q 144 407 133 394 q 174 421 156 419 q 294 432 217 424 q 303 439 300 438 q 335 446 318 449 q 361 428 351 443 q 383 289 392 381 q 344 131 376 204 q 247 15 307 40 q 168 14 210 -1 q 97 71 132 28 q 15 394 13 178 q 104 718 18 611 q 207 779 153 779 q 292 728 256 778 q 328 647 314 694 q 339 563 342 600 q 326 533 339 544 q 296 522 314 522 q 267 536 279 524 q 256 565 256 549 m 219 967 q 224 960 221 964 q 226 953 225 957 q 230 921 235 938 q 210 897 225 904 q 178 894 194 889 q 153 914 161 899 q 149 921 151 918 l 146 929 q 142 960 138 944 q 163 985 147 976 q 194 988 178 993 q 219 967 211 982 z "},"":{"ha":500,"x_min":24,"x_max":354,"o":"m 263 435 q 151 438 197 467 q 107 365 107 413 q 140 286 107 311 q 271 288 182 256 l 271 290 q 265 383 271 306 q 263 421 265 404 l 263 435 m 208 660 q 192 606 224 624 q 160 601 178 597 q 135 619 143 606 l 133 622 l 133 624 l 132 625 q 126 639 129 631 l 126 643 q 125 647 126 644 q 131 680 121 665 q 157 697 140 694 q 188 692 174 701 q 207 667 203 683 q 208 660 207 663 m 343 506 q 349 390 342 489 q 354 293 354 307 q 333 97 358 165 q 178 7 290 -14 q 57 53 110 18 q 38 78 42 63 q 44 110 35 94 q 72 128 54 124 q 103 122 89 132 q 192 89 139 99 q 231 93 217 85 q 254 128 244 101 q 269 199 265 151 q 92 218 161 169 q 24 365 24 269 q 47 449 24 410 q 110 510 69 488 q 263 524 178 550 q 306 550 275 553 q 333 536 322 549 q 343 506 344 524 z "},"":{"ha":531,"x_min":15,"x_max":383,"o":"m 256 565 q 247 624 257 590 q 224 679 238 658 q 210 693 215 689 q 206 696 207 696 q 196 692 203 696 q 169 667 183 683 q 99 393 101 579 q 115 234 97 307 q 163 122 132 161 q 199 92 183 97 q 215 92 207 88 q 268 163 243 103 q 301 296 294 228 q 301 349 304 325 q 179 338 218 340 q 149 348 161 336 q 135 378 136 360 q 144 407 133 394 q 174 421 156 419 q 294 432 217 424 q 303 439 300 438 q 335 446 318 449 q 361 428 351 443 q 383 289 392 381 q 344 131 376 204 q 247 15 307 40 q 168 14 210 -1 q 97 71 132 28 q 15 394 13 178 q 104 718 18 611 q 207 779 153 779 q 292 728 256 778 q 328 647 314 694 q 339 563 342 600 q 326 533 339 544 q 296 522 314 522 q 267 536 279 524 q 256 565 256 549 m 238 -12 q 260 -114 274 -64 q 203 -192 249 -156 q 172 -201 189 -203 q 144 -185 154 -199 q 135 -154 133 -171 q 150 -126 136 -137 q 179 -92 178 -106 q 169 -60 183 -81 q 163 -28 160 -46 q 181 -1 167 -11 q 211 5 194 8 q 238 -12 228 1 z "},"":{"ha":500,"x_min":24,"x_max":354,"o":"m 263 435 q 151 438 197 467 q 107 365 107 413 q 140 286 107 311 q 271 288 182 256 l 271 290 q 265 383 271 306 q 263 421 265 404 l 263 435 m 343 506 q 349 390 342 489 q 354 293 354 307 q 333 97 358 165 q 178 7 290 -14 q 57 53 110 18 q 38 78 42 63 q 44 110 35 94 q 72 128 54 124 q 103 122 89 132 q 192 89 139 99 q 231 93 217 85 q 254 128 244 101 q 269 199 265 151 q 92 218 161 169 q 24 365 24 269 q 47 449 24 410 q 110 510 69 488 q 263 524 178 550 q 306 550 275 553 q 333 536 322 549 q 343 506 344 524 m 217 688 q 181 642 190 665 q 179 635 179 639 l 181 635 q 202 611 196 628 q 201 579 208 594 q 178 558 194 564 q 147 558 163 551 q 97 613 108 575 q 104 674 90 638 q 163 751 121 714 q 194 761 176 763 q 221 746 211 760 q 231 715 232 732 q 217 688 229 699 z "},"":{"ha":554,"x_min":29,"x_max":410,"o":"m 388 736 q 393 611 392 635 q 401 386 401 417 q 410 18 410 175 q 397 -12 410 0 q 368 -24 385 -24 q 338 -12 350 -24 q 326 18 326 0 q 319 375 326 149 q 304 372 308 372 q 125 357 221 372 q 143 42 131 179 q 133 11 144 24 q 104 -4 122 -1 q 74 6 88 -6 q 60 35 61 17 q 40 400 50 147 q 40 422 40 411 q 38 452 39 433 q 38 489 38 471 q 29 728 35 583 q 40 758 28 746 q 69 772 51 771 q 99 760 86 772 q 113 732 111 749 q 115 671 114 703 q 117 588 115 639 q 121 492 119 536 q 122 440 122 469 q 304 456 206 456 q 315 454 313 456 q 310 608 311 558 q 304 732 308 633 q 315 763 303 750 q 344 775 326 775 q 374 765 361 776 q 388 736 386 753 m 82 918 q 110 947 92 926 q 122 961 118 956 q 133 974 132 971 q 157 999 143 985 q 189 1018 174 1013 q 267 999 228 1035 q 322 921 288 979 q 326 889 331 906 q 307 864 322 872 q 275 860 292 856 q 250 879 258 864 q 213 935 222 925 q 196 918 206 931 q 190 911 194 917 q 185 906 186 906 q 177 897 182 903 q 171 890 172 892 q 138 857 150 867 q 108 847 125 846 q 79 860 90 847 q 69 890 68 872 q 82 918 69 907 z "},"":{"ha":506,"x_min":-57,"x_max":361,"o":"m 111 739 q 114 500 111 567 q 118 408 114 496 q 157 464 129 428 q 215 519 188 500 q 283 533 250 542 q 333 493 317 525 q 353 439 347 468 q 361 318 364 389 q 351 218 360 264 q 333 192 347 201 q 301 186 318 182 q 276 203 285 189 q 269 235 267 218 q 278 321 275 263 q 271 422 281 379 q 263 450 267 442 q 261 449 261 450 q 260 449 261 449 q 221 411 242 436 q 138 231 146 318 q 127 203 138 215 q 103 190 117 192 q 72 197 86 188 q 54 225 57 207 q 31 497 35 353 q 28 739 28 565 q 40 769 28 757 q 69 781 51 781 q 99 769 86 781 q 111 739 111 757 m -43 899 q 29 965 -10 932 q 54 983 44 979 q 108 974 85 994 q 119 958 115 967 q 124 949 122 953 l 125 944 q 126 940 126 943 q 131 933 129 935 q 163 893 140 913 q 177 865 176 882 q 167 835 178 847 q 138 820 156 821 q 108 831 121 819 q 63 883 81 854 q 13 838 15 839 q -17 826 0 826 q -46 840 -35 826 q -56 870 -57 853 q -43 899 -56 888 z "},"":{"ha":935,"x_min":35,"x_max":789,"o":"m 628 469 q 397 464 531 461 q 208 472 340 465 q 204 361 208 436 q 425 361 294 360 l 483 361 q 632 364 628 364 q 628 457 631 399 l 628 469 m 79 564 q 97 562 85 563 q 117 561 110 561 l 122 561 l 118 599 q 126 630 115 615 q 153 646 136 644 q 185 638 171 649 q 200 611 199 628 q 207 556 206 575 q 399 547 346 549 q 631 553 533 544 q 634 581 632 563 q 636 608 636 600 q 653 637 639 626 q 683 644 667 647 q 712 629 701 643 q 719 597 722 615 q 715 563 717 575 q 742 567 732 565 q 772 560 758 569 q 789 532 786 550 q 782 501 792 515 q 754 485 772 488 q 733 481 747 483 q 711 478 718 479 q 719 314 711 411 q 721 297 719 310 q 724 272 722 285 q 735 61 735 132 q 723 32 735 44 q 693 19 711 19 q 664 32 676 19 q 651 61 651 44 q 640 265 651 128 q 639 281 639 271 q 485 278 638 281 l 426 278 q 200 278 293 276 q 197 200 197 217 q 207 69 197 126 q 200 38 210 53 q 172 22 190 24 q 141 29 156 19 q 125 56 126 39 q 114 201 114 115 q 119 343 114 249 q 121 349 119 347 q 125 476 125 440 l 125 478 l 111 478 q 92 478 104 478 q 74 481 79 479 q 45 494 57 482 q 35 524 33 507 q 49 553 36 542 q 79 564 61 565 z "},"":{"ha":506,"x_min":-79,"x_max":361,"o":"m 111 739 l 111 650 q 182 657 165 654 q 201 660 193 657 q 251 661 225 681 q 267 633 265 650 q 260 603 269 617 q 225 581 250 588 q 193 574 210 575 q 115 567 176 571 l 111 567 q 113 533 111 556 q 114 500 114 511 q 118 408 114 496 q 157 464 129 428 q 215 519 188 500 q 283 533 250 542 q 333 493 317 525 q 353 439 347 468 q 361 318 364 389 q 351 218 360 264 q 333 192 347 201 q 301 186 318 182 q 276 203 285 189 q 269 235 267 218 q 278 321 275 263 q 271 422 281 379 q 263 450 267 442 q 261 449 261 450 q 260 449 261 449 q 221 411 242 436 q 138 231 146 318 q 127 203 138 215 q 103 190 117 192 q 72 197 86 188 q 54 225 57 207 q 31 497 35 353 q 29 529 31 508 q 28 560 28 550 q -26 550 -10 556 q -58 552 -43 544 q -79 576 -74 560 q -77 607 -85 592 q -54 629 -69 622 q 28 644 -28 638 l 28 739 q 40 769 28 757 q 69 781 51 781 q 99 769 86 781 q 111 739 111 757 z "},"":{"ha":363,"x_min":-86,"x_max":217,"o":"m 128 736 q 121 354 121 594 l 121 183 l 121 32 q 109 2 121 14 q 79 -10 97 -10 q 50 2 63 -10 q 38 32 38 14 l 38 183 l 38 354 q 44 740 38 596 q 58 769 46 757 q 89 779 71 781 q 117 765 106 778 q 128 736 129 753 m -67 929 q 14 953 -28 954 q 79 943 36 953 q 151 943 132 929 q 183 951 165 954 q 210 933 200 947 q 217 902 219 919 q 200 875 214 885 q 122 851 167 851 q 60 863 100 851 q 13 869 28 869 q -21 860 -7 869 q -52 854 -35 850 q -79 872 -69 858 q -85 903 -89 888 q -67 929 -82 919 z "},"":{"ha":338,"x_min":-72,"x_max":192,"o":"m 115 508 q 122 431 119 483 q 121 357 122 394 l 121 351 q 124 233 119 285 q 115 202 125 215 q 88 186 104 189 q 57 194 71 183 q 42 224 43 206 q 38 353 36 275 l 38 358 q 33 496 39 457 q 41 526 31 513 q 68 543 51 540 q 99 535 85 546 q 115 508 113 525 m -62 665 q 3 699 -40 696 q 63 693 31 701 q 78 690 64 693 q 93 688 86 689 q 106 685 100 686 q 114 683 113 683 q 156 707 125 710 q 183 691 172 704 q 192 661 193 678 q 126 600 185 604 q 92 603 104 600 q 61 610 90 603 q 47 613 53 610 q 10 615 19 617 l 3 615 q -25 599 -8 601 q -56 607 -42 597 q -72 635 -69 618 q -62 665 -74 651 z "},"":{"ha":401,"x_min":-81,"x_max":256,"o":"m 128 736 q 121 354 121 594 l 121 183 l 121 32 q 109 2 121 14 q 79 -10 97 -10 q 50 2 63 -10 q 38 32 38 14 l 38 183 l 38 354 q 44 740 38 596 q 58 769 46 757 q 89 779 71 781 q 117 765 106 778 q 128 736 129 753 m -72 919 q 8 967 -39 958 q 85 960 40 971 q 106 954 94 958 q 161 944 149 943 q 179 954 172 944 q 204 974 188 969 q 236 968 221 978 q 256 943 251 960 q 250 911 260 926 q 165 861 221 864 q 122 865 144 860 q 85 874 108 867 q 65 879 76 876 q -6 868 11 890 q -33 852 -15 854 q -64 861 -50 850 q -80 889 -78 872 q -72 919 -82 906 z "},"":{"ha":360,"x_min":-78,"x_max":213,"o":"m 115 508 q 122 431 119 483 q 121 357 122 394 l 121 351 q 124 233 119 285 q 115 202 125 215 q 88 186 104 189 q 57 194 71 183 q 42 224 43 206 q 38 353 36 275 l 38 358 q 33 496 39 457 q 41 526 31 513 q 68 543 51 540 q 99 535 85 546 q 115 508 113 525 m -74 658 q 6 706 -47 706 q 76 688 35 706 l 85 685 q 129 669 119 669 l 132 681 q 151 706 136 697 q 183 711 165 715 q 208 692 200 707 q 213 660 217 676 q 133 586 196 589 q 89 593 110 586 q 53 607 75 599 l 44 611 q 6 622 18 622 q -1 617 1 622 q -26 597 -10 601 q -58 601 -43 593 q -78 626 -74 610 q -74 658 -82 643 z "},"":{"ha":339,"x_min":-36,"x_max":193,"o":"m 128 736 q 121 354 121 594 l 121 183 l 121 32 q 109 2 121 14 q 79 -10 97 -10 q 50 2 63 -10 q 38 32 38 14 l 38 183 l 38 354 q 44 740 38 596 q 58 769 46 757 q 89 779 71 781 q 117 765 106 778 q 128 736 129 753 m -22 929 q -15 935 -22 929 q 8 939 -8 940 q 36 925 25 938 q 47 897 47 913 l 47 896 q 76 889 60 892 q 107 896 96 889 l 110 897 q 122 926 110 914 q 151 939 135 939 q 181 926 169 939 q 193 897 193 914 q 149 824 193 849 q 76 806 118 806 q 4 825 31 808 q -36 900 -40 853 q -22 929 -35 918 z "},"":{"ha":333,"x_min":-47,"x_max":189,"o":"m 115 508 q 122 431 119 483 q 121 357 122 394 l 121 351 q 124 233 119 285 q 115 202 125 215 q 88 186 104 189 q 57 194 71 183 q 42 224 43 206 q 38 353 36 275 l 38 358 q 33 496 39 457 q 41 526 31 513 q 68 543 51 540 q 99 535 85 546 q 115 508 113 525 m 36 676 q 39 671 35 675 q 71 664 50 664 q 101 671 90 664 q 106 676 106 674 q 114 707 103 693 q 143 722 125 721 q 174 713 160 724 q 189 685 188 701 q 149 601 193 632 q 69 581 115 581 q -8 603 24 581 q -47 686 -53 635 q -32 715 -46 704 q -1 724 -18 725 q 27 708 17 721 q 36 676 38 694 z "},"":{"ha":335,"x_min":33,"x_max":189,"o":"m 128 736 q 121 354 121 594 l 121 183 l 121 32 q 109 2 121 14 q 79 -10 97 -10 q 50 2 63 -10 q 38 32 38 14 l 38 183 l 38 354 q 44 740 38 596 q 58 769 46 757 q 89 779 71 781 q 117 765 106 778 q 128 736 129 753 m 126 -101 q 113 -162 113 -124 q 115 -159 114 -161 q 118 -156 117 -157 q 148 -144 131 -144 q 178 -156 165 -144 q 189 -185 189 -168 q 178 -215 189 -203 q 93 -256 133 -260 q 50 -233 68 -253 q 33 -199 38 -219 q 54 -60 15 -129 q 79 -40 63 -44 q 111 -44 96 -36 q 130 -70 125 -53 q 126 -101 135 -87 z "},"":{"ha":333,"x_min":24,"x_max":189,"o":"m 115 508 q 122 431 119 483 q 121 357 122 394 l 121 351 q 124 233 119 285 q 115 202 125 215 q 88 186 104 189 q 57 194 71 183 q 42 224 43 206 q 38 353 36 275 l 38 358 q 33 496 39 457 q 41 526 31 513 q 68 543 51 540 q 99 535 85 546 q 115 508 113 525 m 104 675 q 107 664 107 672 q 108 654 108 660 l 108 649 q 96 619 108 632 q 67 607 83 607 q 37 619 49 607 q 25 649 25 632 l 25 650 q 24 658 24 653 q 29 690 19 675 q 56 708 39 704 q 87 702 72 711 q 104 675 101 693 m 121 119 q 106 40 103 82 q 113 46 108 42 q 118 51 117 50 q 149 62 132 63 q 178 49 167 61 q 188 19 189 36 q 174 -10 188 1 q 82 -50 125 -56 q 40 -22 56 -46 q 25 15 29 -10 q 47 157 11 82 q 71 178 54 172 q 103 175 88 183 q 124 151 118 168 q 121 119 129 135 z "},"":{"ha":274,"x_min":35,"x_max":128,"o":"m 118 942 l 119 939 q 121 907 126 924 q 100 883 115 890 q 69 881 85 875 q 44 901 53 886 l 42 907 q 38 917 39 913 q 35 931 38 925 q 41 962 32 947 q 67 979 50 976 q 98 974 83 983 q 117 949 113 965 q 117 944 117 947 l 118 942 m 128 736 q 121 354 121 594 l 121 183 l 121 32 q 109 2 121 14 q 79 -10 97 -10 q 50 2 63 -10 q 38 32 38 14 l 38 183 l 38 354 q 44 740 38 596 q 58 769 46 757 q 89 779 71 781 q 117 765 106 778 q 128 736 129 753 z "},"":{"ha":288,"x_min":50,"x_max":143,"o":"m 133 546 q 136 374 133 446 q 139 282 136 351 q 141 265 140 276 q 142 246 142 253 l 142 236 l 142 228 q 142 219 142 224 q 143 211 143 214 q 132 182 143 194 q 103 168 121 169 q 72 178 85 167 q 60 208 60 190 q 59 215 60 210 q 58 225 58 221 l 58 233 l 58 242 q 58 260 58 249 q 56 278 57 272 q 55 325 56 294 q 53 371 54 356 q 50 549 49 490 q 64 577 51 565 q 93 589 76 589 q 123 575 111 588 q 133 546 135 563 z "},"":{"ha":524,"x_min":-12,"x_max":378,"o":"m 315 717 q 314 561 307 657 q 317 522 315 550 q 322 474 319 494 q 322 464 322 472 l 324 457 q 324 449 324 454 q 325 440 325 443 q 328 408 328 418 q 321 188 339 279 q 275 74 308 119 q 165 10 235 17 q 103 14 129 6 q 49 57 74 24 l 43 63 q 35 74 38 71 q 6 117 10 110 q -12 175 -11 147 q -5 205 -15 192 q 24 221 6 218 q 54 213 40 224 q 69 185 68 203 q 101 125 74 161 l 110 114 q 115 107 113 108 q 131 93 124 96 q 158 93 136 92 q 208 122 188 94 q 239 204 228 150 q 246 401 256 286 q 244 413 244 408 q 242 432 243 418 q 239 467 242 446 q 234 516 236 488 q 231 556 232 544 q 233 726 224 661 q 249 755 235 744 q 279 763 263 765 q 308 747 297 761 q 315 717 318 733 m 132 913 q 178 976 154 953 q 240 1003 207 1003 q 311 972 274 1003 q 339 946 319 965 l 365 919 q 378 890 378 907 q 365 860 378 872 q 337 849 354 849 q 307 860 319 849 l 294 872 q 281 888 283 885 q 269 897 276 890 q 258 907 261 904 q 243 918 256 910 q 240 919 240 918 q 235 915 238 917 q 207 874 221 904 q 182 853 199 858 q 150 856 165 849 q 130 881 135 864 q 132 913 125 897 z "},"":{"ha":404,"x_min":-22,"x_max":258,"o":"m 203 494 q 203 478 203 490 q 204 457 204 467 q 207 408 207 440 q 213 264 213 331 q 192 74 210 139 q 154 -3 176 24 q 76 -42 122 -40 q 24 -33 43 -44 q -11 -1 6 -24 q -22 28 -22 11 q -7 57 -21 46 q 23 67 6 68 q 51 53 40 67 q 61 42 56 47 q 63 40 63 42 q 72 42 68 40 q 90 51 82 42 q 111 96 103 64 q 129 264 126 147 q 124 403 129 329 q 121 453 124 433 q 120 475 121 463 q 119 492 119 488 q 131 522 119 510 q 161 535 143 535 q 190 524 178 536 q 203 494 203 511 m 32 664 q 79 722 63 706 q 138 756 108 751 q 204 735 171 761 q 251 681 224 719 q 258 650 261 667 q 242 624 256 633 q 183 633 208 600 q 151 671 160 664 q 150 672 150 671 q 149 672 150 672 q 139 664 146 671 q 100 615 124 649 q 73 599 90 601 q 42 606 56 596 q 25 633 28 615 q 32 664 22 650 z "},"":{"ha":560,"x_min":29,"x_max":415,"o":"m 378 732 q 339 424 406 565 q 196 269 290 314 q 222 247 203 264 q 256 218 242 229 l 258 215 q 335 149 315 167 q 406 74 375 111 q 415 44 417 61 q 400 15 414 26 q 369 6 386 4 q 342 21 353 7 q 278 88 311 56 q 204 153 274 90 q 201 154 203 153 q 163 188 186 168 q 132 215 140 207 q 136 33 136 114 q 124 3 136 15 q 94 -8 113 -8 q 65 3 78 -8 q 53 33 53 15 q 47 260 53 143 l 47 261 q 38 286 38 274 q 44 310 38 299 q 42 382 44 321 q 29 736 29 611 q 41 765 29 753 q 71 778 53 778 q 100 765 88 778 q 113 736 113 753 q 124 388 113 621 q 126 333 126 343 q 264 458 217 356 q 296 718 319 578 q 303 749 293 735 q 329 767 313 764 q 360 760 346 769 q 378 732 375 750 m 254 35 q 281 -71 290 -24 q 197 -151 269 -128 q 165 -149 181 -157 q 144 -125 150 -140 q 147 -93 139 -108 q 171 -72 154 -78 q 196 -60 186 -67 q 200 -53 197 -58 q 183 -8 203 -39 q 178 22 174 6 q 197 49 182 39 q 228 54 213 58 q 254 35 244 50 z "},"":{"ha":474,"x_min":32,"x_max":328,"o":"m 324 507 q 240 368 304 435 q 235 363 239 367 q 229 358 231 360 q 311 261 239 315 q 327 233 325 250 q 319 203 329 217 q 292 187 308 189 q 261 194 275 185 q 188 263 211 231 q 157 311 167 288 q 119 299 139 303 q 122 125 122 215 q 110 95 122 107 q 81 83 99 83 q 51 95 64 83 q 39 125 39 107 q 35 322 39 222 q 34 358 35 339 q 33 390 33 378 q 32 413 32 401 q 43 751 28 632 q 58 778 46 768 q 89 788 71 789 q 116 772 106 785 q 125 742 126 758 q 115 414 111 625 q 117 385 117 404 q 181 428 147 394 q 243 529 229 475 q 263 554 249 546 q 294 558 278 563 q 319 538 311 553 q 324 507 328 524 m 244 132 q 263 85 254 111 q 263 26 271 54 q 225 -29 254 -4 q 195 -40 213 -40 q 167 -26 178 -39 q 156 3 156 -14 q 169 32 157 21 q 183 50 181 44 q 168 99 185 57 q 167 131 161 114 q 189 154 174 147 q 221 154 204 161 q 244 132 238 147 z "},"":{"ha":578,"x_min":57,"x_max":433,"o":"m 333 490 q 315 440 319 457 q 290 379 306 411 q 246 299 268 329 q 306 228 272 261 q 392 168 361 168 q 421 156 408 168 q 433 126 433 143 q 421 97 433 108 q 392 85 408 85 q 311 113 354 85 q 244 169 279 132 q 188 238 217 199 q 178 232 185 236 q 169 225 172 228 q 172 126 172 150 q 174 82 174 111 q 161 52 174 64 q 132 40 149 40 q 102 52 114 40 q 90 82 90 64 q 89 125 90 110 q 86 208 89 147 q 57 249 57 218 q 82 288 57 276 q 81 313 81 294 q 71 549 71 450 q 83 578 71 565 q 113 590 94 590 q 142 578 129 590 q 154 549 154 565 q 163 340 154 460 q 168 346 164 344 l 181 350 q 214 413 197 378 q 238 469 219 426 q 256 519 242 486 q 278 543 263 536 q 310 544 293 550 q 332 522 325 538 q 333 490 339 506 z "},"":{"ha":465,"x_min":15,"x_max":319,"o":"m 85 767 q 91 761 85 767 q 99 739 97 756 q 101 687 100 722 q 104 622 103 651 q 117 338 113 443 q 124 81 121 246 l 149 81 l 185 78 q 274 76 251 74 q 304 67 292 78 q 319 39 317 57 q 311 8 322 22 q 282 -7 300 -6 q 179 -6 253 -10 q 144 -3 146 -3 q 89 -4 106 -3 q 54 10 68 -7 q 40 42 40 24 q 33 335 40 154 q 21 618 29 440 q 18 683 19 647 q 15 735 17 718 q 26 765 14 753 q 54 778 38 778 q 85 767 72 779 m 301 885 q 232 724 279 781 q 205 708 222 710 q 174 717 188 706 q 158 744 160 726 q 167 775 156 761 q 219 903 203 818 q 238 928 224 919 q 269 935 253 938 q 296 916 286 931 q 301 885 306 901 z "},"":{"ha":290,"x_min":-26,"x_max":144,"o":"m 114 738 q 115 457 114 592 l 117 454 q 117 449 117 451 q 118 158 118 304 q 106 128 118 140 q 76 117 94 117 q 47 128 58 117 q 35 158 35 140 q 33 447 35 304 q 33 453 33 450 q 32 457 32 456 q 31 738 31 590 q 43 767 31 756 q 72 779 56 779 q 102 767 90 779 q 114 738 114 756 m 139 974 q 71 897 111 933 q 64 892 68 896 q 57 886 60 888 q 50 879 56 885 l 43 874 q 12 863 29 863 q -17 878 -6 864 q -26 908 -28 892 q -11 936 -25 925 l -6 942 q 3 949 1 947 q 15 960 8 953 q 69 1019 50 992 q 96 1038 79 1033 q 126 1032 113 1042 q 144 1005 140 1022 q 139 974 149 988 z "},"":{"ha":465,"x_min":15,"x_max":319,"o":"m 85 767 q 91 761 85 767 q 99 739 97 756 q 101 687 100 722 q 104 622 103 651 q 117 338 113 443 q 124 81 121 246 l 149 81 l 185 78 q 274 76 251 74 q 304 67 292 78 q 319 39 317 57 q 311 8 322 22 q 282 -7 300 -6 q 179 -6 253 -10 q 144 -3 146 -3 q 89 -4 106 -3 q 54 10 68 -7 q 40 42 40 24 q 33 335 40 154 q 21 618 29 440 q 18 683 19 647 q 15 735 17 718 q 26 765 14 753 q 54 778 38 778 q 85 767 72 779 m 210 -47 q 233 -162 242 -104 q 153 -264 222 -236 q 121 -264 138 -271 q 99 -240 104 -257 q 100 -209 93 -225 q 122 -186 107 -193 q 151 -150 147 -176 q 138 -87 156 -122 q 133 -56 128 -74 q 153 -31 138 -39 q 184 -27 167 -22 q 210 -47 201 -32 z "},"":{"ha":296,"x_min":18,"x_max":150,"o":"m 114 738 q 115 457 114 592 l 117 454 q 117 449 117 451 q 118 158 118 304 q 106 128 118 140 q 76 117 94 117 q 47 128 58 117 q 35 158 35 140 q 33 447 35 304 q 33 453 33 450 q 32 457 32 456 q 31 738 31 590 q 43 767 31 756 q 72 779 56 779 q 102 767 90 779 q 114 738 114 756 m 107 68 q 150 -47 157 17 q 81 -149 143 -111 q 49 -153 67 -157 q 24 -133 32 -149 q 18 -102 14 -118 q 38 -76 22 -86 q 67 -37 64 -61 q 47 11 71 -15 q 35 41 35 24 q 49 69 36 58 q 78 81 61 82 q 107 68 96 81 z "},"":{"ha":465,"x_min":13,"x_max":319,"o":"m 85 767 q 91 761 85 767 q 99 739 97 756 q 101 687 100 722 q 104 622 103 651 q 117 338 113 443 q 124 81 121 246 l 149 81 l 185 78 q 274 76 251 74 q 304 67 292 78 q 319 39 317 57 q 311 8 322 22 q 282 -7 300 -6 q 179 -6 253 -10 q 144 -3 146 -3 q 89 -4 106 -3 q 54 10 68 -7 q 40 42 40 24 q 33 335 40 154 q 21 618 29 440 q 18 683 19 647 q 15 735 17 718 q 26 765 14 753 q 54 778 38 778 q 85 767 72 779 m 51 1040 q 59 1040 51 1040 q 82 1029 68 1040 q 121 993 96 1018 q 128 985 122 990 q 135 978 133 981 l 146 967 q 181 1026 156 983 q 206 1047 189 1042 q 236 1043 222 1051 q 256 1018 251 1035 q 253 986 261 1001 q 208 913 218 924 q 188 888 199 897 q 151 872 172 872 q 108 886 129 871 q 86 908 99 893 l 74 921 q 61 935 69 926 q 44 951 56 940 q 28 967 33 961 q 13 994 14 976 q 24 1025 13 1011 q 51 1040 33 1039 z "},"":{"ha":321,"x_min":-50,"x_max":175,"o":"m 114 738 q 115 457 114 592 l 117 454 q 117 449 117 451 q 118 158 118 304 q 106 128 118 140 q 76 117 94 117 q 47 128 58 117 q 35 158 35 140 q 33 447 35 304 q 33 453 33 450 q 32 457 32 456 q 31 738 31 590 q 43 767 31 756 q 72 779 56 779 q 102 767 90 779 q 114 738 114 756 m 22 992 q 40 972 29 983 q 53 958 50 961 l 56 956 q 65 971 61 964 q 101 1022 88 1006 q 130 1038 113 1036 q 161 1028 147 1039 q 175 1000 174 1017 q 165 969 176 983 q 151 950 161 964 q 135 926 142 936 q 129 917 135 917 q 124 907 126 913 q 108 888 115 894 q 28 874 74 847 q -40 938 3 886 q -50 968 -51 951 q -36 996 -49 985 q -5 1006 -22 1007 q 22 992 13 1006 z "},"":{"ha":465,"x_min":15,"x_max":319,"o":"m 261 425 q 263 394 268 410 q 244 371 258 379 q 213 367 229 363 q 188 386 196 371 q 183 392 185 392 q 178 408 179 399 l 178 421 q 185 451 175 438 q 213 468 196 465 q 244 460 231 471 q 260 432 258 450 q 261 425 260 428 m 85 767 q 91 761 85 767 q 99 739 97 756 q 101 687 100 722 q 104 622 103 651 q 117 338 113 443 q 124 81 121 246 l 149 81 l 185 78 q 274 76 251 74 q 304 67 292 78 q 319 39 317 57 q 311 8 322 22 q 282 -7 300 -6 q 179 -6 253 -10 q 144 -3 146 -3 q 89 -4 106 -3 q 54 10 68 -7 q 40 42 40 24 q 33 335 40 154 q 21 618 29 440 q 18 683 19 647 q 15 735 17 718 q 26 765 14 753 q 54 778 38 778 q 85 767 72 779 z "},"":{"ha":393,"x_min":15,"x_max":247,"o":"m 85 767 q 91 761 85 767 q 99 739 97 756 q 101 687 100 722 q 104 622 103 651 q 117 338 113 443 q 124 42 124 157 q 111 12 124 24 q 82 0 99 0 q 52 12 64 0 q 40 42 40 24 q 33 335 40 154 q 21 618 29 440 q 18 683 19 647 q 15 735 17 718 q 26 765 14 753 q 54 778 38 778 q 85 767 72 779 m 247 429 l 247 425 q 242 394 251 408 q 215 376 232 379 q 184 383 199 374 q 167 410 169 392 q 165 415 165 411 q 164 421 164 419 q 172 451 161 438 q 201 467 183 465 q 232 458 218 468 q 247 429 246 447 z "},"":{"ha":465,"x_min":-86,"x_max":319,"o":"m -86 464 q -8 531 -64 515 q 25 536 3 533 q 21 618 24 569 q 18 683 19 647 q 15 735 17 718 q 26 765 14 753 q 54 778 38 778 q 85 767 72 779 q 99 739 97 756 q 101 687 100 722 q 104 622 103 651 q 108 531 106 581 q 161 529 151 526 q 165 531 164 529 l 165 535 q 181 562 168 551 q 211 571 194 572 q 240 556 229 568 q 249 525 250 543 q 178 447 243 461 q 133 444 165 444 q 123 447 129 446 q 113 447 117 447 q 115 389 114 425 q 117 338 117 353 q 124 81 121 246 l 149 81 l 185 78 q 274 76 251 74 q 304 67 292 78 q 319 39 317 57 q 311 8 322 22 q 282 -7 300 -6 q 179 -6 253 -10 q 144 -3 146 -3 q 89 -4 106 -3 q 54 10 68 -7 q 40 42 40 24 q 33 335 40 154 q 29 453 29 439 q 22 452 26 453 q 14 450 17 451 q -10 431 -1 447 q -33 409 -17 415 q -64 410 -49 403 q -86 432 -79 415 q -86 464 -93 449 z "},"":{"ha":415,"x_min":-76,"x_max":271,"o":"m -72 388 q 3 451 -44 435 q 60 463 26 460 q 63 568 63 557 q 58 703 63 642 q 68 733 57 719 q 97 747 79 746 q 127 738 114 749 q 142 708 140 726 q 146 568 146 644 q 143 456 146 558 q 188 451 181 451 q 201 477 189 467 q 229 488 214 488 q 258 475 246 488 q 271 446 271 463 q 207 369 271 381 q 167 369 189 368 l 142 372 q 140 229 138 294 q 154 63 143 133 q 147 31 157 44 q 119 14 138 17 q 89 22 103 11 q 72 49 75 32 q 57 226 60 121 q 58 378 54 297 q 0 346 15 376 q -26 327 -8 332 q -57 331 -43 322 q -76 356 -72 339 q -72 388 -81 374 z "},"":{"ha":565,"x_min":18,"x_max":419,"o":"m 317 165 q 336 749 336 372 q 349 778 336 765 q 378 790 361 790 q 408 778 396 790 q 419 749 419 765 q 399 149 419 358 q 394 93 396 110 q 391 68 393 83 q 389 51 389 53 q 386 42 389 50 q 382 31 383 35 q 376 19 379 22 q 360 3 369 8 q 328 -1 344 -6 q 303 18 313 3 l 303 19 l 301 21 l 297 29 q 290 42 296 33 q 282 57 285 51 q 235 142 253 106 q 225 160 231 149 q 174 265 192 222 q 157 305 164 288 q 144 338 150 322 q 135 363 139 354 l 118 404 q 128 25 128 181 q 116 -4 128 8 q 86 -17 104 -17 q 57 -4 69 -17 q 44 25 44 8 q 29 514 44 200 q 28 546 29 529 q 24 639 26 589 q 21 708 21 689 q 19 715 19 711 q 18 722 18 719 q 24 753 15 739 q 50 771 33 768 q 60 772 54 772 q 90 760 78 772 q 103 732 103 749 q 103 726 103 731 q 104 719 104 722 q 150 560 121 649 q 213 393 181 474 q 251 297 218 378 q 299 199 263 268 l 307 182 q 317 165 311 176 m 254 1008 l 250 997 q 243 974 247 988 q 236 954 239 960 q 214 908 225 925 q 168 868 197 878 q 138 870 153 863 q 117 894 122 878 q 139 946 106 929 q 143 951 142 949 q 158 983 150 961 q 164 1001 160 989 q 172 1024 168 1014 q 175 1036 175 1035 q 197 1060 182 1053 q 229 1061 213 1067 q 253 1040 246 1056 q 254 1008 260 1025 z "},"":{"ha":488,"x_min":29,"x_max":342,"o":"m 228 451 q 204 438 221 451 q 118 229 121 369 q 86 189 118 196 q 65 186 76 185 q 38 202 49 189 q 29 232 28 215 q 31 250 31 238 q 32 268 32 263 q 33 361 33 293 q 36 501 33 457 q 50 531 38 519 q 81 540 63 542 q 110 526 99 539 q 119 497 121 514 q 119 483 119 492 q 118 471 118 475 q 150 501 128 482 q 211 533 179 526 q 274 521 244 542 q 328 425 313 496 q 342 313 339 381 q 340 226 342 251 q 326 197 339 208 q 297 186 314 185 q 267 200 279 188 q 257 231 256 213 q 247 407 264 333 q 236 440 243 425 q 231 450 233 444 q 228 451 229 451 m 256 794 l 250 785 q 246 775 249 781 q 239 763 243 771 q 233 753 235 756 q 161 664 200 693 q 129 657 146 654 q 103 674 113 660 q 95 705 92 688 q 113 732 99 722 q 161 794 133 747 l 171 814 q 176 824 175 817 q 182 833 181 831 q 206 853 189 849 q 238 850 222 858 q 258 826 253 843 q 256 794 264 810 z "},"":{"ha":565,"x_min":18,"x_max":419,"o":"m 317 165 q 336 749 336 372 q 349 778 336 765 q 378 790 361 790 q 408 778 396 790 q 419 749 419 765 q 399 149 419 358 q 394 93 396 110 q 391 68 393 83 q 389 51 389 53 q 386 42 389 50 q 382 31 383 35 q 376 19 379 22 q 360 3 369 8 q 328 -1 344 -6 q 303 18 313 3 l 303 19 l 301 21 l 297 29 q 290 42 296 33 q 282 57 285 51 q 235 142 253 106 q 225 160 231 149 q 174 265 192 222 q 157 305 164 288 q 144 338 150 322 q 135 363 139 354 l 118 404 q 128 25 128 181 q 116 -4 128 8 q 86 -17 104 -17 q 57 -4 69 -17 q 44 25 44 8 q 29 514 44 200 q 28 546 29 529 q 24 639 26 589 q 21 708 21 689 q 19 715 19 711 q 18 722 18 719 q 24 753 15 739 q 50 771 33 768 q 60 772 54 772 q 90 760 78 772 q 103 732 103 749 q 103 726 103 731 q 104 719 104 722 q 150 560 121 649 q 213 393 181 474 q 251 297 218 378 q 299 199 263 268 l 307 182 q 317 165 311 176 m 233 -31 q 267 -126 268 -82 q 196 -219 264 -192 q 164 -218 179 -225 q 142 -196 149 -211 q 142 -165 135 -181 q 164 -142 149 -149 q 181 -131 175 -139 q 183 -124 183 -128 q 164 -76 183 -104 q 158 -45 154 -62 q 176 -18 163 -28 q 207 -12 190 -8 q 233 -31 224 -17 z "},"":{"ha":488,"x_min":29,"x_max":342,"o":"m 228 451 q 204 438 221 451 q 118 229 121 369 q 86 189 118 196 q 65 186 76 185 q 38 202 49 189 q 29 232 28 215 q 31 250 31 238 q 32 268 32 263 q 33 361 33 293 q 36 501 33 457 q 50 531 38 519 q 81 540 63 542 q 110 526 99 539 q 119 497 121 514 q 119 483 119 492 q 118 471 118 475 q 150 501 128 482 q 211 533 179 526 q 274 521 244 542 q 328 425 313 496 q 342 313 339 381 q 340 226 342 251 q 326 197 339 208 q 297 186 314 185 q 267 200 279 188 q 257 231 256 213 q 247 407 264 333 q 236 440 243 425 q 231 450 233 444 q 228 451 229 451 m 204 163 q 251 58 244 117 q 237 -13 257 17 q 174 -51 217 -43 q 142 -45 157 -54 q 125 -19 128 -36 q 131 12 121 -3 q 157 31 140 26 q 167 33 161 31 l 168 35 q 169 39 168 36 q 168 49 169 44 q 142 107 165 78 q 131 137 131 119 q 144 165 132 154 q 176 176 158 176 q 204 163 193 175 z "},"":{"ha":565,"x_min":18,"x_max":419,"o":"m 317 165 q 336 749 336 372 q 349 778 336 765 q 378 790 361 790 q 408 778 396 790 q 419 749 419 765 q 399 149 419 358 q 394 93 396 110 q 391 68 393 83 q 389 51 389 53 q 386 42 389 50 q 382 31 383 35 q 376 19 379 22 q 360 3 369 8 q 328 -1 344 -6 q 303 18 313 3 l 303 19 l 301 21 l 297 29 q 290 42 296 33 q 282 57 285 51 q 235 142 253 106 q 225 160 231 149 q 174 265 192 222 q 157 305 164 288 q 144 338 150 322 q 135 363 139 354 l 118 404 q 128 25 128 181 q 116 -4 128 8 q 86 -17 104 -17 q 57 -4 69 -17 q 44 25 44 8 q 29 514 44 200 q 28 546 29 529 q 24 639 26 589 q 21 708 21 689 q 19 715 19 711 q 18 722 18 719 q 24 753 15 739 q 50 771 33 768 q 60 772 54 772 q 90 760 78 772 q 103 732 103 749 q 103 726 103 731 q 104 719 104 722 q 150 560 121 649 q 213 393 181 474 q 251 297 218 378 q 299 199 263 268 l 307 182 q 317 165 311 176 m 194 926 q 197 931 197 929 q 244 986 225 968 q 256 996 251 993 q 285 1006 268 1007 q 314 992 303 1004 q 324 961 325 978 q 310 933 322 944 l 301 925 q 267 883 283 910 l 261 875 q 253 864 254 865 q 235 843 246 853 q 188 829 213 824 q 149 851 167 833 q 86 939 132 868 q 80 970 76 954 q 99 996 83 986 q 130 1001 113 1006 q 157 983 147 997 q 194 926 165 969 z "},"":{"ha":488,"x_min":29,"x_max":342,"o":"m 228 451 q 204 438 221 451 q 118 229 121 369 q 86 189 118 196 q 65 186 76 185 q 38 202 49 189 q 29 232 28 215 q 31 250 31 238 q 32 268 32 263 q 33 361 33 293 q 36 501 33 457 q 50 531 38 519 q 81 540 63 542 q 110 526 99 539 q 119 497 121 514 q 119 483 119 492 q 118 471 118 475 q 150 501 128 482 q 211 533 179 526 q 274 521 244 542 q 328 425 313 496 q 342 313 339 381 q 340 226 342 251 q 326 197 339 208 q 297 186 314 185 q 267 200 279 188 q 257 231 256 213 q 247 407 264 333 q 236 440 243 425 q 231 450 233 444 q 228 451 229 451 m 108 775 q 153 718 125 753 q 157 714 157 717 q 193 760 169 726 q 219 778 203 775 q 251 769 236 781 q 268 742 265 758 q 261 711 271 726 q 213 650 228 665 q 185 631 194 635 q 144 626 164 622 q 113 642 129 629 q 90 664 103 650 q 78 679 89 665 q 57 705 67 693 q 43 721 47 717 q 35 752 33 735 q 49 781 36 769 q 108 775 82 806 z "},"":{"ha":614,"x_min":33,"x_max":468,"o":"m 356 465 l 354 465 q 331 451 344 463 q 246 243 246 379 q 214 203 246 210 q 193 199 203 199 q 165 215 175 201 q 156 246 154 228 q 158 281 158 268 q 160 374 161 329 q 164 515 160 449 q 178 544 165 532 q 207 554 190 556 q 236 540 225 553 q 246 510 247 528 q 244 485 246 493 q 260 499 249 488 q 278 515 271 510 q 338 547 311 542 q 401 535 374 554 q 456 439 438 511 q 468 326 467 389 q 468 239 471 279 q 454 210 467 222 q 424 200 442 199 q 395 214 407 201 q 385 243 383 226 q 374 419 390 351 q 363 454 369 440 q 357 463 360 460 l 356 465 m 113 778 q 151 665 153 731 q 101 558 149 599 q 72 548 89 547 q 43 563 54 549 q 33 592 32 575 q 47 621 35 610 q 68 669 65 638 q 49 725 68 703 q 39 756 38 739 q 54 783 40 774 q 85 793 68 794 q 113 778 101 792 z "},"":{"ha":568,"x_min":18,"x_max":424,"o":"m 333 22 l 332 24 q 331 26 331 25 q 325 33 328 28 q 307 57 311 50 q 250 135 276 97 q 231 164 244 144 q 174 265 190 225 q 157 305 164 288 q 144 338 150 322 q 135 363 139 354 l 118 404 q 128 25 128 181 q 116 -4 128 8 q 86 -17 104 -17 q 57 -4 69 -17 q 44 25 44 8 q 29 514 44 200 q 28 546 29 529 q 24 639 26 589 q 21 708 21 689 q 19 715 19 711 q 18 722 18 719 q 24 753 15 739 q 50 771 33 768 q 60 772 54 772 q 90 760 78 772 q 103 732 103 749 q 103 726 103 731 q 104 719 104 722 q 150 560 121 649 q 213 393 181 474 q 251 297 218 378 q 301 210 265 261 q 319 182 308 197 q 324 174 321 179 q 329 167 328 169 l 333 208 l 333 247 q 334 253 333 249 q 336 258 335 257 q 340 472 340 353 q 340 501 340 486 q 338 542 339 517 q 338 588 338 567 q 337 682 338 633 q 336 749 336 731 q 349 778 336 765 q 378 790 361 790 q 408 778 396 790 q 419 749 419 765 q 420 682 419 731 q 421 589 421 633 q 422 543 421 568 q 423 503 422 518 q 424 472 424 488 q 417 206 424 303 l 417 143 q 417 110 417 128 q 418 85 418 92 q 413 -32 415 8 q 386 -140 404 -97 q 203 -261 336 -261 q 173 -249 185 -261 q 161 -219 161 -237 q 173 -190 161 -203 q 203 -178 185 -178 q 310 -108 281 -178 q 333 22 329 -58 z "},"":{"ha":488,"x_min":29,"x_max":342,"o":"m 342 242 q 340 218 342 233 q 335 132 339 163 q 310 51 329 85 q 139 -28 265 -28 q 109 -16 121 -28 q 97 14 97 -4 q 109 43 97 31 q 139 56 121 56 q 210 67 183 56 q 238 93 228 75 q 251 143 247 108 q 257 221 256 169 l 257 224 l 257 231 q 247 407 264 333 q 236 440 243 425 q 231 450 233 444 q 228 451 229 451 q 204 438 221 451 q 118 229 121 369 q 86 189 118 196 q 65 186 76 185 q 38 202 49 189 q 29 232 28 215 q 31 250 31 238 q 32 268 32 263 q 33 361 33 293 q 36 501 33 457 q 50 531 38 519 q 81 540 63 542 q 110 526 99 539 q 119 497 121 514 q 119 483 119 492 q 118 471 118 475 q 150 501 128 482 q 211 533 179 526 q 274 521 244 542 q 328 425 313 496 q 342 313 339 381 l 342 249 l 342 242 z "},"":{"ha":465,"x_min":-14,"x_max":318,"o":"m 314 519 q 315 514 315 518 q 316 491 315 511 q 317 465 317 471 q 318 286 321 353 q 292 111 314 178 q 254 42 276 68 q 179 8 221 8 q 115 31 142 8 q 79 74 96 46 q 28 288 32 156 q 26 393 26 315 q 39 549 29 478 q 79 694 53 644 q 122 747 96 728 q 196 764 156 771 q 275 706 251 753 q 314 519 318 621 m 231 517 q 201 667 235 603 q 182 682 194 678 q 171 679 174 682 q 153 656 163 672 q 121 538 135 621 q 110 392 111 464 q 111 290 110 317 q 151 115 114 182 q 179 92 165 92 q 192 99 186 92 q 213 138 204 111 q 235 290 231 189 q 235 461 238 340 q 233 482 233 465 q 232 504 232 499 q 231 517 231 508 m -14 894 q 68 969 -1 963 q 164 954 107 971 q 179 950 168 953 q 208 942 194 946 q 226 936 221 938 q 231 935 228 936 q 235 935 233 935 q 232 940 233 936 q 231 946 231 944 q 233 978 225 963 q 257 999 242 993 q 289 997 274 1004 q 310 972 304 989 q 318 900 324 929 q 264 851 307 858 q 208 856 240 847 q 197 858 203 857 q 179 863 190 860 q 156 869 168 867 q 140 874 154 869 q 76 886 93 888 l 71 885 q 69 879 69 883 q 52 853 67 863 q 21 846 38 843 q -7 863 3 849 q -14 894 -17 876 z "},"":{"ha":490,"x_min":-6,"x_max":344,"o":"m 164 449 q 104 375 114 418 q 119 301 94 336 q 175 272 140 272 q 253 329 217 275 q 244 414 276 365 q 167 449 213 464 l 164 449 m 161 533 q 247 522 206 542 q 315 460 289 501 q 344 369 342 417 q 322 283 347 322 q 178 189 261 193 q 53 251 101 186 q 22 393 4 315 q 136 529 42 479 q 161 533 149 536 m -6 618 q 75 689 11 681 q 163 676 107 693 q 172 674 164 676 q 229 661 215 661 l 229 672 q 242 702 229 690 q 271 714 254 714 q 301 702 289 714 q 313 672 313 690 q 296 610 313 632 q 243 579 278 583 q 193 582 224 575 l 149 593 l 140 596 q 85 606 99 607 l 81 606 l 79 604 q 78 603 78 604 q 76 600 76 601 q 75 596 75 597 q 56 570 71 579 q 24 567 40 561 q -1 586 7 571 q -6 618 -10 601 z "},"":{"ha":465,"x_min":26,"x_max":318,"o":"m 314 519 q 315 514 315 518 q 316 491 315 511 q 317 465 317 471 q 318 286 321 353 q 292 111 314 178 q 254 42 276 68 q 179 8 221 8 q 115 31 142 8 q 79 74 96 46 q 28 288 32 156 q 26 393 26 315 q 39 549 29 478 q 79 694 53 644 q 122 747 96 728 q 196 764 156 771 q 275 706 251 753 q 314 519 318 621 m 231 517 q 201 667 235 603 q 182 682 194 678 q 171 679 174 682 q 153 656 163 672 q 121 538 135 621 q 110 392 111 464 q 111 290 110 317 q 151 115 114 182 q 179 92 165 92 q 192 99 186 92 q 213 138 204 111 q 235 290 231 189 q 235 461 238 340 q 233 482 233 465 q 232 504 232 499 q 231 517 231 508 m 118 935 q 125 929 118 932 q 156 924 140 922 q 181 931 171 924 q 185 939 185 933 q 197 968 185 956 q 226 981 210 981 q 256 968 244 981 q 268 939 268 956 q 229 864 268 892 q 160 840 199 842 q 88 854 118 838 q 36 918 46 876 q 42 949 33 935 q 68 967 51 964 q 100 962 86 971 q 118 935 114 953 z "},"":{"ha":490,"x_min":22,"x_max":344,"o":"m 164 449 q 104 375 114 418 q 119 301 94 336 q 175 272 140 272 q 253 329 217 275 q 244 414 276 365 q 167 449 213 464 l 164 449 m 161 533 q 247 522 206 542 q 315 460 289 501 q 344 369 342 417 q 322 283 347 322 q 178 189 261 193 q 53 251 101 186 q 22 393 4 315 q 136 529 42 479 q 161 533 149 536 m 122 679 q 131 667 124 671 q 164 661 142 661 q 199 672 185 664 q 207 686 207 678 q 219 716 207 704 q 249 728 231 728 q 278 716 265 728 q 290 686 290 704 q 247 606 290 638 q 171 578 215 582 q 89 594 125 575 q 40 672 44 621 q 50 703 39 690 q 78 717 61 715 q 108 707 96 718 q 122 679 121 696 z "}}}
